{
.appVersion = "848";
classes = (
{
automatic = 1;
code = "A Aacute Acircumflex Adieresis Agrave Aring Atilde AE B C Ccedilla D Eth E Eacute Ecircumflex Edieresis Egrave F G H I Iacute Icircumflex Idieresis Igrave J K L Lslash M N Ntilde O Oacute Ocircumflex Odieresis Ograve Oslash Otilde OE P Thorn Q R S Scaron T U Uacute Ucircumflex Udieresis Ugrave V W X Y Yacute Ydieresis Z Zcaron Delta Omega";
name = Uppercase;
}
);
copyright = "Copyright (c) 2011-2016 by Omnibus-Type (www.omnibus-type.com omnibus.type@gmail.com)";
customParameters = (
{
name = openTypeNameLicenseURL;
value = "http://scripts.sil.org/OFL";
},
{
name = openTypeNameDescription;
value = "Chivo (Goat) is a new Omnibus-Type grotesque. The strength of Chivo Black Italic make it ideal for highlights and headlines. Chivo Black Italic elegance makes it ideal for combining the strength of Chivo family and to use in texts for continuous reading. Its design detail becomes an indispensable ally for any designer.";
},
{
name = trademark;
value = "Chivo is a trademark of Omnibus-Type.";
},
{
name = openTypeNameLicense;
value = "This Font Software is licensed under the SIL Open Font License, Version 1.1. This license is available with a FAQ at: http://scripts.sil.org/OFL";
},
{
name = openTypeOS2VendorID;
value = OMNI;
},
{
name = fsType;
value = (
);
},
{
name = "Family Alignment Zones";
value = (
"{686, 12}",
"{511, 12}",
"{0, -12}"
);
},
{
name = glyphOrder;
value = (
".notdef",
space,
exclam,
quotedbl,
numbersign,
dollar,
percent,
ampersand,
quotesingle,
parenleft,
parenright,
asterisk,
plus,
comma,
hyphen,
period,
slash,
zero,
one,
two,
three,
four,
five,
six,
seven,
eight,
nine,
colon,
semicolon,
less,
equal,
greater,
question,
at,
A,
B,
C,
D,
E,
F,
G,
H,
I,
J,
K,
L,
M,
N,
O,
P,
Q,
R,
S,
T,
U,
V,
W,
X,
Y,
Z,
bracketleft,
backslash,
bracketright,
asciicircum,
underscore,
grave,
a,
b,
c,
d,
e,
f,
g,
h,
i,
j,
k,
l,
m,
n,
o,
p,
q,
r,
s,
t,
u,
v,
w,
x,
y,
z,
braceleft,
bar,
braceright,
asciitilde,
nbspace,

glyphs = (
{
glyphname = .notdef;
lastChange = "2014-09-05 18:36:16 +0000";
layers = (
{
background = {
paths = (
{
closed = 1;
nodes = (
"0 0 LINE",
"500 0 LINE",
"500 700 LINE",
"0 700 LINE"
);
},
{
closed = 1;
nodes = (
"250 395 LINE",
"80 650 LINE",
"420 650 LINE"
);
},
{
closed = 1;
nodes = (
"280 350 LINE",
"450 605 LINE",
"450 95 LINE"
);
},
{
closed = 1;
nodes = (
"80 50 LINE",
"250 305 LINE",
"420 50 LINE"
);
},
{
closed = 1;
nodes = (
"50 605 LINE",
"220 350 LINE",
"50 95 LINE"
);
}
);
};
layerId = "65EC8A7C-8A8B-4926-A170-31F830B4F708";
paths = (
{
closed = 1;
nodes = (
"0 0 LINE",
"500 0 LINE",
"500 700 LINE",
"0 700 LINE"
);
},
{
closed = 1;
nodes = (
"250 395 LINE",
"80 650 LINE",
"420 650 LINE"
);
},
{
closed = 1;
nodes = (
"280 350 LINE",
"450 605 LINE",
"450 95 LINE"
);
},
{
closed = 1;
nodes = (
"80 50 LINE",
"250 305 LINE",
"420 50 LINE"
);
},
{
closed = 1;
nodes = (
"50 605 LINE",
"220 350 LINE",
"50 95 LINE"
);
}
);
width = 500;
}
);
},
{
glyphname = exclam;
lastChange = "2014-09-05 18:36:16 +0000";
layers = (
{
background = {
paths = (
{
closed = 1;
nodes = (
"43 0 LINE",
"108 0 LINE",
"118 69 LINE",
"53 69 LINE"
);
},
{
closed = 1;
nodes = (
"75 141 LINE",
"116 141 LINE",
"148 339 OFFCURVE",
"205 686 OFFCURVE",
"205 686 CURVE SMOOTH",
"141 686 LINE"
);
}
);
};
layerId = "65EC8A7C-8A8B-4926-A170-31F830B4F708";
paths = (
{
closed = 1;
nodes = (
"43 0 LINE",
"108 0 LINE",
"118 69 LINE",
"53 69 LINE"
);
},
{
closed = 1;
nodes = (
"75 141 LINE",
"116 141 LINE",
"148 339 OFFCURVE",
"205 686 OFFCURVE",
"205 686 CURVE SMOOTH",
"141 686 LINE"
);
}
);
width = 269;
}
);
unicode = 0021;
},
{
glyphname = quotedbl;
lastChange = "2014-09-05 18:36:16 +0000";
layers = (
{
background = {
paths = (
{
closed = 1;
nodes = (
"98 414 LINE",
"128 414 LINE",
"157 539 LINE",
"178 686 LINE",
"126 686 LINE",
"105 539 LINE"
);
},
{
closed = 1;
nodes = (
"231 414 LINE",
"261 414 LINE",
"290 539 LINE",
"311 686 LINE",
"259 686 LINE",
"238 539 LINE"
);
}
);
};
layerId = "65EC8A7C-8A8B-4926-A170-31F830B4F708";
paths = (
{
closed = 1;
nodes = (
"98 414 LINE",
"128 414 LINE",
"157 539 LINE",
"178 686 LINE",
"126 686 LINE",
"105 539 LINE"
);
},
{
closed = 1;
nodes = (
"231 414 LINE",
"261 414 LINE",
"290 539 LINE",
"311 686 LINE",
"259 686 LINE",
"238 539 LINE"
);
}
);
width = 363;
}
);
unicode = 0022;
},
{
glyphname = numbersign;
lastChange = "2014-09-05 18:36:16 +0000";
layers = (
{
background = {
paths = (
{
closed = 1;
nodes = (
"623 420 LINE",
"631 478 LINE",
"518 478 LINE",
"598 696 LINE",
"539 696 LINE",
"460 478 LINE",
"294 478 LINE",
"374 696 LINE",
"315 696 LINE",
"236 478 LINE",
"93 478 LINE",
"85 420 LINE",
"215 420 LINE",
"151 246 LINE",
"22 246 LINE",
"14 188 LINE",
"130 188 LINE",
"62 0 LINE",
"120 0 LINE",
"188 188 LINE",
"354 188 LINE",
"286 0 LINE",
"344 0 LINE",
"412 188 LINE",
"551 188 LINE",
"559 246 LINE",
"433 246 LINE",
"497 420 LINE"
);
},
{
closed = 1;
nodes = (
"273 420 LINE",
"439 420 LINE",
"375 246 LINE",
"209 246 LINE"
);
}
);
};
layerId = "65EC8A7C-8A8B-4926-A170-31F830B4F708";
paths = (
{
closed = 1;
nodes = (
"623 420 LINE",
"631 478 LINE",
"518 478 LINE",
"598 696 LINE",
"539 696 LINE",
"460 478 LINE",
"294 478 LINE",
"374 696 LINE",
"315 696 LINE",
"236 478 LINE",
"93 478 LINE",
"85 420 LINE",
"215 420 LINE",
"151 246 LINE",
"22 246 LINE",
"14 188 LINE",
"130 188 LINE",
"62 0 LINE",
"120 0 LINE",
"188 188 LINE",
"354 188 LINE",
"286 0 LINE",
"344 0 LINE",
"412 188 LINE",
"551 188 LINE",
"559 246 LINE",
"433 246 LINE",
"497 420 LINE"
);
},
{
closed = 1;
nodes = (
"273 420 LINE",
"439 420 LINE",
"375 246 LINE",
"209 246 LINE"
);
}
);
width = 644;
}
);
unicode = 0023;
},
{
glyphname = dollar;
lastChange = "2014-09-05 18:36:16 +0000";
layers = (
{
background = {
paths = (
{
closed = 1;
nodes = (
"214 -66 LINE",
"266 -66 LINE",
"266 19 LINE",
"397 21 OFFCURVE",
"526 77 OFFCURVE",
"526 230 CURVE SMOOTH",
"526 434 OFFCURVE",
"148 348 OFFCURVE",
"148 501 CURVE SMOOTH",
"148 595 OFFCURVE",
"239 625 OFFCURVE",
"338 625 CURVE SMOOTH",
"428 625 OFFCURVE",
"499 596 OFFCURVE",
"499 530 CURVE SMOOTH",
"499 525 OFFCURVE",
"499 520 OFFCURVE",
"495 494 CURVE",
"545 494 LINE",
"548 515 OFFCURVE",
"549 524 OFFCURVE",
"549 532 CURVE SMOOTH",
"549 629 OFFCURVE",
"466 669 OFFCURVE",
"358 672 CURVE",
"381 762 LINE",
"328 762 LINE",
"328 672 LINE",
"205 668 OFFCURVE",
"94 614 OFFCURVE",
"94 491 CURVE SMOOTH",
"94 291 OFFCURVE",
"472 381 OFFCURVE",
"472 217 CURVE SMOOTH",
"472 98 OFFCURVE",
"366 69 OFFCURVE",
"259 69 CURVE SMOOTH",
"160 69 OFFCURVE",
"83 93 OFFCURVE",
"83 172 CURVE SMOOTH",
"83 185 OFFCURVE",
"87 212 OFFCURVE",
"89 218 CURVE",
"38 218 LINE",
"35 210 OFFCURVE",
"33 186 OFFCURVE",
"33 171 CURVE SMOOTH",
"33 63 OFFCURVE",
"121 23 OFFCURVE",
"235 19 CURVE"
);
}
);
};
layerId = "65EC8A7C-8A8B-4926-A170-31F830B4F708";
paths = (
{
closed = 1;
nodes = (
"214 -66 LINE",
"266 -66 LINE",
"266 19 LINE",
"397 21 OFFCURVE",
"526 77 OFFCURVE",
"526 230 CURVE SMOOTH",
"526 434 OFFCURVE",
"148 348 OFFCURVE",
"148 501 CURVE SMOOTH",
"148 595 OFFCURVE",
"239 625 OFFCURVE",
"338 625 CURVE SMOOTH",
"428 625 OFFCURVE",
"499 596 OFFCURVE",
"499 530 CURVE SMOOTH",
"499 525 OFFCURVE",
"499 520 OFFCURVE",
"495 494 CURVE",
"545 494 LINE",
"548 515 OFFCURVE",
"549 524 OFFCURVE",
"549 532 CURVE SMOOTH",
"549 629 OFFCURVE",
"466 669 OFFCURVE",
"358 672 CURVE",
"381 762 LINE",
"328 762 LINE",
"328 672 LINE",
"205 668 OFFCURVE",
"94 614 OFFCURVE",
"94 491 CURVE SMOOTH",
"94 291 OFFCURVE",
"472 381 OFFCURVE",
"472 217 CURVE SMOOTH",
"472 98 OFFCURVE",
"366 69 OFFCURVE",
"259 69 CURVE SMOOTH",
"160 69 OFFCURVE",
"83 93 OFFCURVE",
"83 172 CURVE SMOOTH",
"83 185 OFFCURVE",
"87 212 OFFCURVE",
"89 218 CURVE",
"38 218 LINE",
"35 210 OFFCURVE",
"33 186 OFFCURVE",
"33 171 CURVE SMOOTH",
"33 63 OFFCURVE",
"121 23 OFFCURVE",
"235 19 CURVE"
);
}
);
width = 546;
}
);
unicode = 0024;
},
{
glyphname = percent;
lastChange = "2014-09-05 18:36:16 +0000";
layers = (
{
background = {
paths = (
{
closed = 1;
nodes = (
"648 686 LINE",
"589 686 LINE",
"75 0 LINE",
"135 0 LINE"
);
},
{
closed = 1;
nodes = (
"317 566 LINE SMOOTH",
"318 572 OFFCURVE",
"318 579 OFFCURVE",
"318 585 CURVE SMOOTH",
"318 642 OFFCURVE",
"281 686 OFFCURVE",
"214 686 CURVE SMOOTH",
"138 686 OFFCURVE",
"89 645 OFFCURVE",
"77 566 CURVE SMOOTH",
"61 456 LINE SMOOTH",
"60 449 OFFCURVE",
"60 443 OFFCURVE",
"60 437 CURVE SMOOTH",
"60 380 OFFCURVE",
"97 336 OFFCURVE",
"165 336 CURVE SMOOTH",
"240 336 OFFCURVE",
"290 378 OFFCURVE",
"301 456 CURVE SMOOTH"
);
},
{
closed = 1;
nodes = (
"251 452 LINE SMOOTH",
"246 413 OFFCURVE",
"216 382 OFFCURVE",
"171 382 CURVE SMOOTH",
"132 382 OFFCURVE",
"110 407 OFFCURVE",
"110 440 CURVE SMOOTH",
"110 444 OFFCURVE",
"110 448 OFFCURVE",
"111 452 CURVE",
"127 570 LINE SMOOTH",
"132 609 OFFCURVE",
"163 640 OFFCURVE",
"207 640 CURVE SMOOTH",
"248 640 OFFCURVE",
"268 616 OFFCURVE",
"268 583 CURVE SMOOTH",
"268 579 OFFCURVE",
"268 574 OFFCURVE",
"267 570 CURVE"
);
},
{
closed = 1;
nodes = (
"660 229 LINE SMOOTH",
"661 235 OFFCURVE",
"661 242 OFFCURVE",
"661 248 CURVE SMOOTH",
"661 305 OFFCURVE",
"624 349 OFFCURVE",
"556 349 CURVE SMOOTH",
"480 349 OFFCURVE",
"431 304 OFFCURVE",
"420 229 CURVE SMOOTH",
"404 119 LINE SMOOTH",
"403 112 OFFCURVE",
"403 106 OFFCURVE",
"403 100 CURVE SMOOTH",
"403 43 OFFCURVE",
"439 -1 OFFCURVE",
"507 -1 CURVE SMOOTH",
"582 -1 OFFCURVE",
"633 41 OFFCURVE",
"644 119 CURVE SMOOTH"
);
},
{
closed = 1;
nodes = (
"594 115 LINE SMOOTH",
"589 76 OFFCURVE",
"559 45 OFFCURVE",
"514 45 CURVE SMOOTH",
"475 45 OFFCURVE",
"453 70 OFFCURVE",
"453 103 CURVE SMOOTH",
"453 107 OFFCURVE",
"453 111 OFFCURVE",
"454 115 CURVE",
"470 233 LINE SMOOTH",
"475 272 OFFCURVE",
"506 303 OFFCURVE",
"550 303 CURVE SMOOTH",
"591 303 OFFCURVE",
"611 279 OFFCURVE",
"611 246 CURVE SMOOTH",
"611 242 OFFCURVE",
"611 237 OFFCURVE",
"610 233 CURVE"
);
}
);
};
layerId = "65EC8A7C-8A8B-4926-A170-31F830B4F708";
paths = (
{
closed = 1;
nodes = (
"648 686 LINE",
"589 686 LINE",
"75 0 LINE",
"135 0 LINE"
);
},
{
closed = 1;
nodes = (
"317 566 LINE SMOOTH",
"318 572 OFFCURVE",
"318 579 OFFCURVE",
"318 585 CURVE SMOOTH",
"318 642 OFFCURVE",
"281 686 OFFCURVE",
"214 686 CURVE SMOOTH",
"138 686 OFFCURVE",
"89 645 OFFCURVE",
"77 566 CURVE SMOOTH",
"61 456 LINE SMOOTH",
"60 449 OFFCURVE",
"60 443 OFFCURVE",
"60 437 CURVE SMOOTH",
"60 380 OFFCURVE",
"97 336 OFFCURVE",
"165 336 CURVE SMOOTH",
"240 336 OFFCURVE",
"290 378 OFFCURVE",
"301 456 CURVE SMOOTH"
);
},
{
closed = 1;
nodes = (
"251 452 LINE SMOOTH",
"246 413 OFFCURVE",
"216 382 OFFCURVE",
"171 382 CURVE SMOOTH",
"132 382 OFFCURVE",
"110 407 OFFCURVE",
"110 440 CURVE SMOOTH",
"110 444 OFFCURVE",
"110 448 OFFCURVE",
"111 452 CURVE",
"127 570 LINE SMOOTH",
"132 609 OFFCURVE",
"163 640 OFFCURVE",
"207 640 CURVE SMOOTH",
"248 640 OFFCURVE",
"268 616 OFFCURVE",
"268 583 CURVE SMOOTH",
"268 579 OFFCURVE",
"268 574 OFFCURVE",
"267 570 CURVE"
);
},
{
closed = 1;
nodes = (
"660 229 LINE SMOOTH",
"661 235 OFFCURVE",
"661 242 OFFCURVE",
"661 248 CURVE SMOOTH",
"661 305 OFFCURVE",
"624 349 OFFCURVE",
"556 349 CURVE SMOOTH",
"480 349 OFFCURVE",
"431 304 OFFCURVE",
"420 229 CURVE SMOOTH",
"404 119 LINE SMOOTH",
"403 112 OFFCURVE",
"403 106 OFFCURVE",
"403 100 CURVE SMOOTH",
"403 43 OFFCURVE",
"439 -1 OFFCURVE",
"507 -1 CURVE SMOOTH",
"582 -1 OFFCURVE",
"633 41 OFFCURVE",
"644 119 CURVE SMOOTH"
);
},
{
closed = 1;
nodes = (
"594 115 LINE SMOOTH",
"589 76 OFFCURVE",
"559 45 OFFCURVE",
"514 45 CURVE SMOOTH",
"475 45 OFFCURVE",
"453 70 OFFCURVE",
"453 103 CURVE SMOOTH",
"453 107 OFFCURVE",
"453 111 OFFCURVE",
"454 115 CURVE",
"470 233 LINE SMOOTH",
"475 272 OFFCURVE",
"506 303 OFFCURVE",
"550 303 CURVE SMOOTH",
"591 303 OFFCURVE",
"611 279 OFFCURVE",
"611 246 CURVE SMOOTH",
"611 242 OFFCURVE",
"611 237 OFFCURVE",
"610 233 CURVE"
);
}
);
width = 700;
}
);
unicode = 0025;
},
{
glyphname = ampersand;
lastChange = "2014-09-05 18:36:16 +0000";
layers = (
{
background = {
paths = (
{
closed = 1;
nodes = (
"427 688 LINE",
"404 693 OFFCURVE",
"378 696 OFFCURVE",
"350 696 CURVE SMOOTH",
"230 696 OFFCURVE",
"116 625 OFFCURVE",
"116 494 CURVE SMOOTH",
"116 420 OFFCURVE",
"156 386 OFFCURVE",
"209 356 CURVE",
"209 352 LINE",
"128 330 OFFCURVE",
"58 276 OFFCURVE",
"58 164 CURVE SMOOTH",
"58 60 OFFCURVE",
"148 0 OFFCURVE",
"263 0 CURVE SMOOTH",
"450 0 LINE",
"496 329 LINE",
"615 329 LINE",
"621 375 LINE",
"502 375 LINE",
"525 538 LINE",
"492 538 LINE",
"451 375 LINE",
"320 375 LINE SMOOTH",
"238 375 OFFCURVE",
"170 415 OFFCURVE",
"170 500 CURVE SMOOTH",
"170 601 OFFCURVE",
"257 648 OFFCURVE",
"344 648 CURVE SMOOTH",
"372 648 OFFCURVE",
"397 645 OFFCURVE",
"420 638 CURVE"
);
},
{
closed = 1;
nodes = (
"445 329 LINE",
"405 46 LINE",
"269 46 LINE SMOOTH",
"176 46 OFFCURVE",
"110 90 OFFCURVE",
"110 169 CURVE SMOOTH",
"110 285 OFFCURVE",
"209 329 OFFCURVE",
"309 329 CURVE SMOOTH"
);
}
);
};
layerId = "65EC8A7C-8A8B-4926-A170-31F830B4F708";
paths = (
{
closed = 1;
nodes = (
"427 688 LINE",
"404 693 OFFCURVE",
"378 696 OFFCURVE",
"350 696 CURVE SMOOTH",
"230 696 OFFCURVE",
"116 625 OFFCURVE",
"116 494 CURVE SMOOTH",
"116 420 OFFCURVE",
"156 386 OFFCURVE",
"209 356 CURVE",
"209 352 LINE",
"128 330 OFFCURVE",
"58 276 OFFCURVE",
"58 164 CURVE SMOOTH",
"58 60 OFFCURVE",
"148 0 OFFCURVE",
"263 0 CURVE SMOOTH",
"450 0 LINE",
"496 329 LINE",
"615 329 LINE",
"621 375 LINE",
"502 375 LINE",
"525 538 LINE",
"492 538 LINE",
"451 375 LINE",
"320 375 LINE SMOOTH",
"238 375 OFFCURVE",
"170 415 OFFCURVE",
"170 500 CURVE SMOOTH",
"170 601 OFFCURVE",
"257 648 OFFCURVE",
"344 648 CURVE SMOOTH",
"372 648 OFFCURVE",
"397 645 OFFCURVE",
"420 638 CURVE"
);
},
{
closed = 1;
nodes = (
"445 329 LINE",
"405 46 LINE",
"269 46 LINE SMOOTH",
"176 46 OFFCURVE",
"110 90 OFFCURVE",
"110 169 CURVE SMOOTH",
"110 285 OFFCURVE",
"209 329 OFFCURVE",
"309 329 CURVE SMOOTH"
);
}
);
width = 661;
}
);
unicode = 0026;
},
{
glyphname = quotesingle;
lastChange = "2014-09-05 18:36:16 +0000";
layers = (
{
background = {
paths = (
{
closed = 1;
nodes = (
"98 414 LINE",
"128 414 LINE",
"157 539 LINE",
"178 686 LINE",
"126 686 LINE",
"105 539 LINE"
);
}
);
};
layerId = "65EC8A7C-8A8B-4926-A170-31F830B4F708";
paths = (
{
closed = 1;
nodes = (
"98 414 LINE",
"128 414 LINE",
"157 539 LINE",
"178 686 LINE",
"126 686 LINE",
"105 539 LINE"
);
}
);
width = 209;
}
);
unicode = 0027;
},
{
glyphname = parenleft;
lastChange = "2014-09-05 18:36:16 +0000";
layers = (
{
background = {
paths = (
{
closed = 1;
nodes = (
"54 54 OFFCURVE",
"90 -63 OFFCURVE",
"159 -157 CURVE",
"188 -157 LINE",
"140 -65 OFFCURVE",
"105 49 OFFCURVE",
"105 173 CURVE SMOOTH",
"105 365 OFFCURVE",
"197 548 OFFCURVE",
"307 686 CURVE",
"278 686 LINE",
"139 544 OFFCURVE",
"54 376 OFFCURVE",
"54 177 CURVE SMOOTH"
);
}
);
};
layerId = "65EC8A7C-8A8B-4926-A170-31F830B4F708";
paths = (
{
closed = 1;
nodes = (
"54 54 OFFCURVE",
"90 -63 OFFCURVE",
"159 -157 CURVE",
"188 -157 LINE",
"140 -65 OFFCURVE",
"105 49 OFFCURVE",
"105 173 CURVE SMOOTH",
"105 365 OFFCURVE",
"197 548 OFFCURVE",
"307 686 CURVE",
"278 686 LINE",
"139 544 OFFCURVE",
"54 376 OFFCURVE",
"54 177 CURVE SMOOTH"
);
}
);
width = 289;
}
);
unicode = 0028;
},
{
glyphname = parenright;
lastChange = "2014-09-05 18:36:16 +0000";
layers = (
{
background = {
paths = (
{
closed = 1;
nodes = (
"220 474 OFFCURVE",
"183 592 OFFCURVE",
"114 686 CURVE",
"85 686 LINE",
"133 594 OFFCURVE",
"168 478 OFFCURVE",
"168 353 CURVE SMOOTH",
"168 163 OFFCURVE",
"74 -21 OFFCURVE",
"-33 -157 CURVE",
"-4 -157 LINE",
"134 -15 OFFCURVE",
"220 152 OFFCURVE",
"220 351 CURVE SMOOTH"
);
}
);
};
layerId = "65EC8A7C-8A8B-4926-A170-31F830B4F708";
paths = (
{
closed = 1;
nodes = (
"220 474 OFFCURVE",
"183 592 OFFCURVE",
"114 686 CURVE",
"85 686 LINE",
"133 594 OFFCURVE",
"168 478 OFFCURVE",
"168 353 CURVE SMOOTH",
"168 163 OFFCURVE",
"74 -21 OFFCURVE",
"-33 -157 CURVE",
"-4 -157 LINE",
"134 -15 OFFCURVE",
"220 152 OFFCURVE",
"220 351 CURVE SMOOTH"
);
}
);
width = 289;
}
);
unicode = 0029;
},
{
glyphname = asterisk;
lastChange = "2014-09-05 18:36:16 +0000";
layers = (
{
background = {
paths = (
{
closed = 1;
nodes = (
"452 519 LINE",
"443 578 LINE",
"270 510 LINE",
"312 686 LINE",
"250 686 LINE",
"238 512 LINE",
"87 582 LINE",
"59 524 LINE",
"223 482 LINE",
"89 350 LINE",
"134 315 LINE",
"244 462 LINE",
"315 311 LINE",
"369 347 LINE",
"275 480 LINE"
);
}
);
};
layerId = "65EC8A7C-8A8B-4926-A170-31F830B4F708";
paths = (
{
closed = 1;
nodes = (
"452 519 LINE",
"443 578 LINE",
"270 510 LINE",
"312 686 LINE",
"250 686 LINE",
"238 512 LINE",
"87 582 LINE",
"59 524 LINE",
"223 482 LINE",
"89 350 LINE",
"134 315 LINE",
"244 462 LINE",
"315 311 LINE",
"369 347 LINE",
"275 480 LINE"
);
}
);
width = 469;
}
);
unicode = 002A;
},
{
glyphname = plus;
lastChange = "2014-09-05 18:36:16 +0000";
layers = (
{
background = {
paths = (
{
closed = 1;
nodes = (
"366 511 LINE",
"308 511 LINE",
"277 284 LINE",
"50 284 LINE",
"41 226 LINE",
"268 226 LINE",
"237 0 LINE",
"295 0 LINE",
"326 226 LINE",
"553 226 LINE",
"562 284 LINE",
"335 284 LINE"
);
}
);
};
layerId = "65EC8A7C-8A8B-4926-A170-31F830B4F708";
paths = (
{
closed = 1;
nodes = (
"366 511 LINE",
"308 511 LINE",
"277 284 LINE",
"50 284 LINE",
"41 226 LINE",
"268 226 LINE",
"237 0 LINE",
"295 0 LINE",
"326 226 LINE",
"553 226 LINE",
"562 284 LINE",
"335 284 LINE"
);
}
);
width = 615;
}
);
unicode = 002B;
},
{
glyphname = comma;
lastChange = "2014-09-05 18:36:16 +0000";
layers = (
{
background = {
paths = (
{
closed = 1;
nodes = (
"58 -101 LINE",
"103 11 LINE",
"111 69 LINE",
"46 69 LINE",
"37 0 LINE",
"61 0 LINE",
"61 0 OFFCURVE",
"25 -101 OFFCURVE",
"24 -101 CURVE"
);
}
);
};
layerId = "65EC8A7C-8A8B-4926-A170-31F830B4F708";
paths = (
{
closed = 1;
nodes = (
"58 -101 LINE",
"103 11 LINE",
"111 69 LINE",
"46 69 LINE",
"37 0 LINE",
"61 0 LINE",
"61 0 OFFCURVE",
"25 -101 OFFCURVE",
"24 -101 CURVE"
);
}
);
width = 237;
}
);
unicode = 002C;
},
{
glyphname = hyphen;
lastChange = "2014-09-05 18:36:16 +0000";
layers = (
{
background = {
paths = (
{
closed = 1;
nodes = (
"60 237 LINE",
"312 237 LINE",
"321 299 LINE",
"68 299 LINE"
);
}
);
};
layerId = "65EC8A7C-8A8B-4926-A170-31F830B4F708";
paths = (
{
closed = 1;
nodes = (
"60 237 LINE",
"312 237 LINE",
"321 299 LINE",
"68 299 LINE"
);
}
);
width = 390;
}
);
unicode = 002D;
},
{
glyphname = period;
lastChange = "2014-09-05 18:36:16 +0000";
layers = (
{
background = {
paths = (
{
closed = 1;
nodes = (
"29 0 LINE",
"94 0 LINE",
"103 69 LINE",
"38 69 LINE"
);
}
);
};
layerId = "65EC8A7C-8A8B-4926-A170-31F830B4F708";
paths = (
{
closed = 1;
nodes = (
"29 0 LINE",
"94 0 LINE",
"103 69 LINE",
"38 69 LINE"
);
}
);
width = 238;
}
);
unicode = 002E;
},
{
glyphname = slash;
lastChange = "2014-09-05 18:36:16 +0000";
layers = (
{
background = {
paths = (
{
closed = 1;
nodes = (
"624 686 LINE",
"565 686 LINE",
"-45 -171 LINE",
"15 -171 LINE"
);
}
);
};
layerId = "65EC8A7C-8A8B-4926-A170-31F830B4F708";
paths = (
{
closed = 1;
nodes = (
"624 686 LINE",
"565 686 LINE",
"-45 -171 LINE",
"15 -171 LINE"
);
}
);
width = 489;
}
);
unicode = 002F;
},
{
glyphname = zero;
lastChange = "2014-09-05 18:36:16 +0000";
layers = (
{
background = {
paths = (
{
closed = 1;
nodes = (
"556 475 LINE SMOOTH",
"558 488 OFFCURVE",
"559 500 OFFCURVE",
"559 512 CURVE SMOOTH",
"559 625 OFFCURVE",
"481 696 OFFCURVE",
"366 696 CURVE SMOOTH",
"229 696 OFFCURVE",
"133 609 OFFCURVE",
"114 475 CURVE SMOOTH",
"77 211 LINE SMOOTH",
"75 198 OFFCURVE",
"74 185 OFFCURVE",
"74 173 CURVE SMOOTH",
"74 61 OFFCURVE",
"152 -10 OFFCURVE",
"267 -10 CURVE SMOOTH",
"407 -10 OFFCURVE",
"500 77 OFFCURVE",
"519 211 CURVE SMOOTH"
);
},
{
closed = 1;
nodes = (
"464 205 LINE SMOOTH",
"450 109 OFFCURVE",
"370 38 OFFCURVE",
"274 38 CURVE SMOOTH",
"187 38 OFFCURVE",
"128 97 OFFCURVE",
"128 180 CURVE SMOOTH",
"128 188 OFFCURVE",
"129 196 OFFCURVE",
"130 205 CURVE SMOOTH",
"169 481 LINE SMOOTH",
"182 577 OFFCURVE",
"262 648 OFFCURVE",
"359 648 CURVE SMOOTH",
"446 648 OFFCURVE",
"505 589 OFFCURVE",
"505 506 CURVE SMOOTH",
"505 498 OFFCURVE",
"504 490 OFFCURVE",
"503 481 CURVE SMOOTH"
);
}
);
};
layerId = "65EC8A7C-8A8B-4926-A170-31F830B4F708";
paths = (
{
closed = 1;
nodes = (
"556 475 LINE SMOOTH",
"558 488 OFFCURVE",
"559 500 OFFCURVE",
"559 512 CURVE SMOOTH",
"559 625 OFFCURVE",
"481 696 OFFCURVE",
"366 696 CURVE SMOOTH",
"229 696 OFFCURVE",
"133 609 OFFCURVE",
"114 475 CURVE SMOOTH",
"77 211 LINE SMOOTH",
"75 198 OFFCURVE",
"74 185 OFFCURVE",
"74 173 CURVE SMOOTH",
"74 61 OFFCURVE",
"152 -10 OFFCURVE",
"267 -10 CURVE SMOOTH",
"407 -10 OFFCURVE",
"500 77 OFFCURVE",
"519 211 CURVE SMOOTH"
);
},
{
closed = 1;
nodes = (
"464 205 LINE SMOOTH",
"450 109 OFFCURVE",
"370 38 OFFCURVE",
"274 38 CURVE SMOOTH",
"187 38 OFFCURVE",
"128 97 OFFCURVE",
"128 180 CURVE SMOOTH",
"128 188 OFFCURVE",
"129 196 OFFCURVE",
"130 205 CURVE SMOOTH",
"169 481 LINE SMOOTH",
"182 577 OFFCURVE",
"262 648 OFFCURVE",
"359 648 CURVE SMOOTH",
"446 648 OFFCURVE",
"505 589 OFFCURVE",
"505 506 CURVE SMOOTH",
"505 498 OFFCURVE",
"504 490 OFFCURVE",
"503 481 CURVE SMOOTH"
);
}
);
width = 615;
}
);
unicode = 0030;
},
{
glyphname = one;
lastChange = "2014-09-05 18:36:16 +0000";
layers = (
{
background = {
paths = (
{
closed = 1;
nodes = (
"502 0 LINE",
"508 48 LINE",
"313 48 LINE",
"404 696 LINE",
"381 696 LINE",
"284 667 OFFCURVE",
"205 660 OFFCURVE",
"149 653 CURVE",
"145 619 LINE",
"340 619 LINE",
"259 48 LINE",
"64 48 LINE",
"58 0 LINE"
);
}
);
};
layerId = "65EC8A7C-8A8B-4926-A170-31F830B4F708";
paths = (
{
closed = 1;
nodes = (
"502 0 LINE",
"508 48 LINE",
"313 48 LINE",
"404 696 LINE",
"381 696 LINE",
"284 667 OFFCURVE",
"205 660 OFFCURVE",
"149 653 CURVE",
"145 619 LINE",
"340 619 LINE",
"259 48 LINE",
"64 48 LINE",
"58 0 LINE"
);
}
);
width = 615;
}
);
unicode = 0031;
},
{
glyphname = two;
lastChange = "2014-09-05 18:36:16 +0000";
layers = (
{
background = {
paths = (
{
closed = 1;
nodes = (
"31 0 LINE",
"485 0 LINE",
"491 48 LINE",
"96 48 LINE",
"104 91 OFFCURVE",
"134 123 OFFCURVE",
"169 144 CURVE SMOOTH",
"400 281 LINE SMOOTH",
"470 323 OFFCURVE",
"551 391 OFFCURVE",
"551 516 CURVE SMOOTH",
"551 619 OFFCURVE",
"481 696 OFFCURVE",
"360 696 CURVE SMOOTH",
"225 696 OFFCURVE",
"117 598 OFFCURVE",
"103 454 CURVE",
"157 454 LINE",
"170 561 OFFCURVE",
"242 648 OFFCURVE",
"354 648 CURVE SMOOTH",
"446 648 OFFCURVE",
"496 592 OFFCURVE",
"496 512 CURVE SMOOTH",
"496 419 OFFCURVE",
"438 360 OFFCURVE",
"382 327 CURVE SMOOTH",
"161 196 LINE SMOOTH",
"87 152 OFFCURVE",
"46 110 OFFCURVE",
"34 23 CURVE SMOOTH"
);
}
);
};
layerId = "65EC8A7C-8A8B-4926-A170-31F830B4F708";
paths = (
{
closed = 1;
nodes = (
"31 0 LINE",
"485 0 LINE",
"491 48 LINE",
"96 48 LINE",
"104 91 OFFCURVE",
"134 123 OFFCURVE",
"169 144 CURVE SMOOTH",
"400 281 LINE SMOOTH",
"470 323 OFFCURVE",
"551 391 OFFCURVE",
"551 516 CURVE SMOOTH",
"551 619 OFFCURVE",
"481 696 OFFCURVE",
"360 696 CURVE SMOOTH",
"225 696 OFFCURVE",
"117 598 OFFCURVE",
"103 454 CURVE",
"157 454 LINE",
"170 561 OFFCURVE",
"242 648 OFFCURVE",
"354 648 CURVE SMOOTH",
"446 648 OFFCURVE",
"496 592 OFFCURVE",
"496 512 CURVE SMOOTH",
"496 419 OFFCURVE",
"438 360 OFFCURVE",
"382 327 CURVE SMOOTH",
"161 196 LINE SMOOTH",
"87 152 OFFCURVE",
"46 110 OFFCURVE",
"34 23 CURVE SMOOTH"
);
}
);
width = 615;
}
);
unicode = 0032;
},
{
glyphname = three;
lastChange = "2014-09-05 18:36:16 +0000";
layers = (
{
background = {
paths = (
{
closed = 1;
nodes = (
"114 199 LINE",
"61 199 LINE",
"59 182 LINE",
"57 172 OFFCURVE",
"57 163 OFFCURVE",
"57 153 CURVE SMOOTH",
"57 53 OFFCURVE",
"140 -10 OFFCURVE",
"261 -10 CURVE SMOOTH",
"406 -10 OFFCURVE",
"520 73 OFFCURVE",
"520 212 CURVE SMOOTH",
"520 288 OFFCURVE",
"476 332 OFFCURVE",
"415 351 CURVE",
"415 355 LINE",
"489 389 OFFCURVE",
"552 431 OFFCURVE",
"552 540 CURVE SMOOTH",
"552 641 OFFCURVE",
"469 696 OFFCURVE",
"360 696 CURVE SMOOTH",
"241 696 OFFCURVE",
"136 629 OFFCURVE",
"119 511 CURVE SMOOTH",
"117 497 LINE",
"170 497 LINE",
"172 511 LINE SMOOTH",
"184 599 OFFCURVE",
"262 648 OFFCURVE",
"353 648 CURVE SMOOTH",
"434 648 OFFCURVE",
"497 612 OFFCURVE",
"497 533 CURVE SMOOTH",
"497 426 OFFCURVE",
"405 375 OFFCURVE",
"310 375 CURVE SMOOTH",
"238 375 LINE",
"231 327 LINE",
"308 327 LINE SMOOTH",
"396 327 OFFCURVE",
"467 288 OFFCURVE",
"467 204 CURVE SMOOTH",
"467 97 OFFCURVE",
"375 36 OFFCURVE",
"267 36 CURVE SMOOTH",
"172 36 OFFCURVE",
"110 81 OFFCURVE",
"110 158 CURVE SMOOTH",
"110 165 OFFCURVE",
"111 173 OFFCURVE",
"112 181 CURVE SMOOTH"
);
}
);
};
layerId = "65EC8A7C-8A8B-4926-A170-31F830B4F708";
paths = (
{
closed = 1;
nodes = (
"114 199 LINE",
"61 199 LINE",
"59 182 LINE",
"57 172 OFFCURVE",
"57 163 OFFCURVE",
"57 153 CURVE SMOOTH",
"57 53 OFFCURVE",
"140 -10 OFFCURVE",
"261 -10 CURVE SMOOTH",
"406 -10 OFFCURVE",
"520 73 OFFCURVE",
"520 212 CURVE SMOOTH",
"520 288 OFFCURVE",
"476 332 OFFCURVE",
"415 351 CURVE",
"415 355 LINE",
"489 389 OFFCURVE",
"552 431 OFFCURVE",
"552 540 CURVE SMOOTH",
"552 641 OFFCURVE",
"469 696 OFFCURVE",
"360 696 CURVE SMOOTH",
"241 696 OFFCURVE",
"136 629 OFFCURVE",
"119 511 CURVE SMOOTH",
"117 497 LINE",
"170 497 LINE",
"172 511 LINE SMOOTH",
"184 599 OFFCURVE",
"262 648 OFFCURVE",
"353 648 CURVE SMOOTH",
"434 648 OFFCURVE",
"497 612 OFFCURVE",
"497 533 CURVE SMOOTH",
"497 426 OFFCURVE",
"405 375 OFFCURVE",
"310 375 CURVE SMOOTH",
"238 375 LINE",
"231 327 LINE",
"308 327 LINE SMOOTH",
"396 327 OFFCURVE",
"467 288 OFFCURVE",
"467 204 CURVE SMOOTH",
"467 97 OFFCURVE",
"375 36 OFFCURVE",
"267 36 CURVE SMOOTH",
"172 36 OFFCURVE",
"110 81 OFFCURVE",
"110 158 CURVE SMOOTH",
"110 165 OFFCURVE",
"111 173 OFFCURVE",
"112 181 CURVE SMOOTH"
);
}
);
width = 615;
}
);
unicode = 0033;
},
{
glyphname = four;
lastChange = "2014-09-05 18:36:16 +0000";
layers = (
{
background = {
paths = (
{
closed = 1;
nodes = (
"386 235 LINE",
"97 235 LINE",
"166 301 OFFCURVE",
"315 521 OFFCURVE",
"396 696 CURVE",
"340 696 LINE",
"257 532 OFFCURVE",
"87 284 OFFCURVE",
"40 235 CURVE",
"33 187 LINE",
"379 187 LINE",
"353 0 LINE",
"409 0 LINE",
"435 187 LINE",
"517 187 LINE",
"524 235 LINE",
"442 235 LINE",
"489 573 LINE",
"470 573 LINE",
"458 550 OFFCURVE",
"435 512 OFFCURVE",
"422 492 CURVE"
);
}
);
};
layerId = "65EC8A7C-8A8B-4926-A170-31F830B4F708";
paths = (
{
closed = 1;
nodes = (
"386 235 LINE",
"97 235 LINE",
"166 301 OFFCURVE",
"315 521 OFFCURVE",
"396 696 CURVE",
"340 696 LINE",
"257 532 OFFCURVE",
"87 284 OFFCURVE",
"40 235 CURVE",
"33 187 LINE",
"379 187 LINE",
"353 0 LINE",
"409 0 LINE",
"435 187 LINE",
"517 187 LINE",
"524 235 LINE",
"442 235 LINE",
"489 573 LINE",
"470 573 LINE",
"458 550 OFFCURVE",
"435 512 OFFCURVE",
"422 492 CURVE"
);
}
);
width = 615;
}
);
unicode = 0034;
},
{
glyphname = five;
lastChange = "2014-09-05 18:36:16 +0000";
layers = (
{
background = {
paths = (
{
closed = 1;
nodes = (
"74 211 LINE",
"72 199 OFFCURVE",
"71 187 OFFCURVE",
"71 175 CURVE SMOOTH",
"71 70 OFFCURVE",
"143 -10 OFFCURVE",
"272 -10 CURVE SMOOTH",
"425 -10 OFFCURVE",
"519 117 OFFCURVE",
"519 255 CURVE SMOOTH",
"519 367 OFFCURVE",
"447 441 OFFCURVE",
"334 441 CURVE SMOOTH",
"281 441 OFFCURVE",
"225 421 OFFCURVE",
"178 382 CURVE",
"232 632 LINE",
"545 632 LINE",
"552 686 LINE",
"189 686 LINE",
"109 310 LINE",
"156 303 LINE",
"192 356 OFFCURVE",
"257 392 OFFCURVE",
"320 392 CURVE SMOOTH",
"403 392 OFFCURVE",
"464 329 OFFCURVE",
"464 242 CURVE SMOOTH",
"464 136 OFFCURVE",
"386 38 OFFCURVE",
"278 38 CURVE SMOOTH",
"181 38 OFFCURVE",
"126 100 OFFCURVE",
"126 181 CURVE SMOOTH",
"126 191 OFFCURVE",
"126 201 OFFCURVE",
"128 211 CURVE"
);
}
);
};
layerId = "65EC8A7C-8A8B-4926-A170-31F830B4F708";
paths = (
{
closed = 1;
nodes = (
"74 211 LINE",
"72 199 OFFCURVE",
"71 187 OFFCURVE",
"71 175 CURVE SMOOTH",
"71 70 OFFCURVE",
"143 -10 OFFCURVE",
"272 -10 CURVE SMOOTH",
"425 -10 OFFCURVE",
"519 117 OFFCURVE",
"519 255 CURVE SMOOTH",
"519 367 OFFCURVE",
"447 441 OFFCURVE",
"334 441 CURVE SMOOTH",
"281 441 OFFCURVE",
"225 421 OFFCURVE",
"178 382 CURVE",
"232 632 LINE",
"545 632 LINE",
"552 686 LINE",
"189 686 LINE",
"109 310 LINE",
"156 303 LINE",
"192 356 OFFCURVE",
"257 392 OFFCURVE",
"320 392 CURVE SMOOTH",
"403 392 OFFCURVE",
"464 329 OFFCURVE",
"464 242 CURVE SMOOTH",
"464 136 OFFCURVE",
"386 38 OFFCURVE",
"278 38 CURVE SMOOTH",
"181 38 OFFCURVE",
"126 100 OFFCURVE",
"126 181 CURVE SMOOTH",
"126 191 OFFCURVE",
"126 201 OFFCURVE",
"128 211 CURVE"
);
}
);
width = 615;
}
);
unicode = 0035;
},
{
glyphname = six;
lastChange = "2014-09-05 18:36:16 +0000";
layers = (
{
background = {
paths = (
{
closed = 1;
nodes = (
"177 481 LINE SMOOTH",
"191 577 OFFCURVE",
"266 648 OFFCURVE",
"363 648 CURVE SMOOTH",
"450 648 OFFCURVE",
"503 590 OFFCURVE",
"503 508 CURVE SMOOTH",
"503 499 OFFCURVE",
"502 490 OFFCURVE",
"500 475 CURVE",
"552 475 LINE",
"554 489 OFFCURVE",
"555 502 OFFCURVE",
"555 515 CURVE SMOOTH",
"555 626 OFFCURVE",
"484 696 OFFCURVE",
"370 696 CURVE SMOOTH",
"243 696 OFFCURVE",
"141 609 OFFCURVE",
"122 475 CURVE SMOOTH",
"85 211 LINE SMOOTH",
"83 198 OFFCURVE",
"82 185 OFFCURVE",
"82 173 CURVE SMOOTH",
"82 61 OFFCURVE",
"160 -10 OFFCURVE",
"275 -10 CURVE SMOOTH",
"415 -10 OFFCURVE",
"529 92 OFFCURVE",
"529 246 CURVE SMOOTH",
"529 354 OFFCURVE",
"454 429 OFFCURVE",
"345 429 CURVE SMOOTH",
"275 429 OFFCURVE",
"203 396 OFFCURVE",
"157 341 CURVE"
);
},
{
closed = 1;
nodes = (
"417 381 OFFCURVE",
"475 323 OFFCURVE",
"475 241 CURVE SMOOTH",
"475 125 OFFCURVE",
"389 38 OFFCURVE",
"282 38 CURVE SMOOTH",
"195 38 OFFCURVE",
"136 97 OFFCURVE",
"136 180 CURVE SMOOTH",
"136 295 OFFCURVE",
"225 381 OFFCURVE",
"330 381 CURVE SMOOTH"
);
}
);
};
layerId = "65EC8A7C-8A8B-4926-A170-31F830B4F708";
paths = (
{
closed = 1;
nodes = (
"177 481 LINE SMOOTH",
"191 577 OFFCURVE",
"266 648 OFFCURVE",
"363 648 CURVE SMOOTH",
"450 648 OFFCURVE",
"503 590 OFFCURVE",
"503 508 CURVE SMOOTH",
"503 499 OFFCURVE",
"502 490 OFFCURVE",
"500 475 CURVE",
"552 475 LINE",
"554 489 OFFCURVE",
"555 502 OFFCURVE",
"555 515 CURVE SMOOTH",
"555 626 OFFCURVE",
"484 696 OFFCURVE",
"370 696 CURVE SMOOTH",
"243 696 OFFCURVE",
"141 609 OFFCURVE",
"122 475 CURVE SMOOTH",
"85 211 LINE SMOOTH",
"83 198 OFFCURVE",
"82 185 OFFCURVE",
"82 173 CURVE SMOOTH",
"82 61 OFFCURVE",
"160 -10 OFFCURVE",
"275 -10 CURVE SMOOTH",
"415 -10 OFFCURVE",
"529 92 OFFCURVE",
"529 246 CURVE SMOOTH",
"529 354 OFFCURVE",
"454 429 OFFCURVE",
"345 429 CURVE SMOOTH",
"275 429 OFFCURVE",
"203 396 OFFCURVE",
"157 341 CURVE"
);
},
{
closed = 1;
nodes = (
"417 381 OFFCURVE",
"475 323 OFFCURVE",
"475 241 CURVE SMOOTH",
"475 125 OFFCURVE",
"389 38 OFFCURVE",
"282 38 CURVE SMOOTH",
"195 38 OFFCURVE",
"136 97 OFFCURVE",
"136 180 CURVE SMOOTH",
"136 295 OFFCURVE",
"225 381 OFFCURVE",
"330 381 CURVE SMOOTH"
);
}
);
width = 615;
}
);
unicode = 0036;
},
{
glyphname = seven;
lastChange = "2014-09-05 18:36:16 +0000";
layers = (
{
background = {
paths = (
{
closed = 1;
nodes = (
"594 686 LINE",
"123 686 LINE",
"115 632 LINE",
"504 632 LINE",
"368 491 OFFCURVE",
"194 263 OFFCURVE",
"157 0 CURVE",
"219 0 LINE",
"235 247 OFFCURVE",
"419 489 OFFCURVE",
"589 656 CURVE"
);
}
);
};
layerId = "65EC8A7C-8A8B-4926-A170-31F830B4F708";
paths = (
{
closed = 1;
nodes = (
"594 686 LINE",
"123 686 LINE",
"115 632 LINE",
"504 632 LINE",
"368 491 OFFCURVE",
"194 263 OFFCURVE",
"157 0 CURVE",
"219 0 LINE",
"235 247 OFFCURVE",
"419 489 OFFCURVE",
"589 656 CURVE"
);
}
);
width = 615;
}
);
unicode = 0037;
},
{
glyphname = eight;
lastChange = "2014-09-05 18:36:16 +0000";
layers = (
{
background = {
paths = (
{
closed = 1;
nodes = (
"168 38 OFFCURVE",
"120 84 OFFCURVE",
"120 157 CURVE SMOOTH",
"120 259 OFFCURVE",
"197 328 OFFCURVE",
"316 328 CURVE SMOOTH",
"415 328 OFFCURVE",
"472 282 OFFCURVE",
"472 207 CURVE SMOOTH",
"472 93 OFFCURVE",
"384 38 OFFCURVE",
"276 38 CURVE SMOOTH"
);
},
{
closed = 1;
nodes = (
"443 648 OFFCURVE",
"494 609 OFFCURVE",
"494 537 CURVE SMOOTH",
"494 432 OFFCURVE",
"412 376 OFFCURVE",
"322 376 CURVE SMOOTH",
"246 376 OFFCURVE",
"189 417 OFFCURVE",
"189 490 CURVE SMOOTH",
"189 592 OFFCURVE",
"270 648 OFFCURVE",
"360 648 CURVE SMOOTH"
);
},
{
closed = 1;
nodes = (
"425 356 LINE",
"491 387 OFFCURVE",
"549 435 OFFCURVE",
"549 543 CURVE SMOOTH",
"549 639 OFFCURVE",
"479 696 OFFCURVE",
"368 696 CURVE SMOOTH",
"235 696 OFFCURVE",
"135 614 OFFCURVE",
"135 480 CURVE SMOOTH",
"135 414 OFFCURVE",
"167 381 OFFCURVE",
"214 356 CURVE",
"214 352 LINE",
"131 326 OFFCURVE",
"65 262 OFFCURVE",
"65 150 CURVE SMOOTH",
"65 44 OFFCURVE",
"146 -10 OFFCURVE",
"269 -10 CURVE SMOOTH",
"430 -10 OFFCURVE",
"526 81 OFFCURVE",
"526 215 CURVE SMOOTH",
"526 288 OFFCURVE",
"486 326 OFFCURVE",
"425 352 CURVE"
);
}
);
};
layerId = "65EC8A7C-8A8B-4926-A170-31F830B4F708";
paths = (
{
closed = 1;
nodes = (
"168 38 OFFCURVE",
"120 84 OFFCURVE",
"120 157 CURVE SMOOTH",
"120 259 OFFCURVE",
"197 328 OFFCURVE",
"316 328 CURVE SMOOTH",
"415 328 OFFCURVE",
"472 282 OFFCURVE",
"472 207 CURVE SMOOTH",
"472 93 OFFCURVE",
"384 38 OFFCURVE",
"276 38 CURVE SMOOTH"
);
},
{
closed = 1;
nodes = (
"443 648 OFFCURVE",
"494 609 OFFCURVE",
"494 537 CURVE SMOOTH",
"494 432 OFFCURVE",
"412 376 OFFCURVE",
"322 376 CURVE SMOOTH",
"246 376 OFFCURVE",
"189 417 OFFCURVE",
"189 490 CURVE SMOOTH",
"189 592 OFFCURVE",
"270 648 OFFCURVE",
"360 648 CURVE SMOOTH"
);
},
{
closed = 1;
nodes = (
"425 356 LINE",
"491 387 OFFCURVE",
"549 435 OFFCURVE",
"549 543 CURVE SMOOTH",
"549 639 OFFCURVE",
"479 696 OFFCURVE",
"368 696 CURVE SMOOTH",
"235 696 OFFCURVE",
"135 614 OFFCURVE",
"135 480 CURVE SMOOTH",
"135 414 OFFCURVE",
"167 381 OFFCURVE",
"214 356 CURVE",
"214 352 LINE",
"131 326 OFFCURVE",
"65 262 OFFCURVE",
"65 150 CURVE SMOOTH",
"65 44 OFFCURVE",
"146 -10 OFFCURVE",
"269 -10 CURVE SMOOTH",
"430 -10 OFFCURVE",
"526 81 OFFCURVE",
"526 215 CURVE SMOOTH",
"526 288 OFFCURVE",
"486 326 OFFCURVE",
"425 352 CURVE"
);
}
);
width = 615;
}
);
unicode = 0038;
},
{
glyphname = nine;
lastChange = "2014-09-05 18:36:16 +0000";
layers = (
{
background = {
paths = (
{
closed = 1;
nodes = (
"457 205 LINE SMOOTH",
"443 109 OFFCURVE",
"365 38 OFFCURVE",
"269 38 CURVE SMOOTH",
"182 38 OFFCURVE",
"127 96 OFFCURVE",
"127 178 CURVE SMOOTH",
"127 187 OFFCURVE",
"128 196 OFFCURVE",
"130 211 CURVE",
"78 211 LINE",
"76 197 OFFCURVE",
"75 184 OFFCURVE",
"75 171 CURVE SMOOTH",
"75 60 OFFCURVE",
"148 -10 OFFCURVE",
"262 -10 CURVE SMOOTH",
"397 -10 OFFCURVE",
"493 77 OFFCURVE",
"512 211 CURVE SMOOTH",
"551 488 OFFCURVE",
"552 500 OFFCURVE",
"552 512 CURVE SMOOTH",
"552 625 OFFCURVE",
"474 696 OFFCURVE",
"359 696 CURVE SMOOTH",
"224 696 OFFCURVE",
"104 593 OFFCURVE",
"104 440 CURVE SMOOTH",
"104 331 OFFCURVE",
"180 257 OFFCURVE",
"289 257 CURVE SMOOTH",
"359 257 OFFCURVE",
"431 291 OFFCURVE",
"477 346 CURVE"
);
},
{
closed = 1;
nodes = (
"217 305 OFFCURVE",
"159 363 OFFCURVE",
"159 445 CURVE SMOOTH",
"159 560 OFFCURVE",
"243 648 OFFCURVE",
"352 648 CURVE SMOOTH",
"439 648 OFFCURVE",
"498 589 OFFCURVE",
"498 506 CURVE SMOOTH",
"498 397 OFFCURVE",
"411 305 OFFCURVE",
"304 305 CURVE SMOOTH"
);
}
);
};
layerId = "65EC8A7C-8A8B-4926-A170-31F830B4F708";
paths = (
{
closed = 1;
nodes = (
"457 205 LINE SMOOTH",
"443 109 OFFCURVE",
"365 38 OFFCURVE",
"269 38 CURVE SMOOTH",
"182 38 OFFCURVE",
"127 96 OFFCURVE",
"127 178 CURVE SMOOTH",
"127 187 OFFCURVE",
"128 196 OFFCURVE",
"130 211 CURVE",
"78 211 LINE",
"76 197 OFFCURVE",
"75 184 OFFCURVE",
"75 171 CURVE SMOOTH",
"75 60 OFFCURVE",
"148 -10 OFFCURVE",
"262 -10 CURVE SMOOTH",
"397 -10 OFFCURVE",
"493 77 OFFCURVE",
"512 211 CURVE SMOOTH",
"551 488 OFFCURVE",
"552 500 OFFCURVE",
"552 512 CURVE SMOOTH",
"552 625 OFFCURVE",
"474 696 OFFCURVE",
"359 696 CURVE SMOOTH",
"224 696 OFFCURVE",
"104 593 OFFCURVE",
"104 440 CURVE SMOOTH",
"104 331 OFFCURVE",
"180 257 OFFCURVE",
"289 257 CURVE SMOOTH",
"359 257 OFFCURVE",
"431 291 OFFCURVE",
"477 346 CURVE"
);
},
{
closed = 1;
nodes = (
"217 305 OFFCURVE",
"159 363 OFFCURVE",
"159 445 CURVE SMOOTH",
"159 560 OFFCURVE",
"243 648 OFFCURVE",
"352 648 CURVE SMOOTH",
"439 648 OFFCURVE",
"498 589 OFFCURVE",
"498 506 CURVE SMOOTH",
"498 397 OFFCURVE",
"411 305 OFFCURVE",
"304 305 CURVE SMOOTH"
);
}
);
width = 615;
}
);
unicode = 0039;
},
{
glyphname = colon;
lastChange = "2014-09-05 18:36:16 +0000";
layers = (
{
background = {
paths = (
{
closed = 1;
nodes = (
"28 0 LINE",
"93 0 LINE",
"102 69 LINE",
"37 69 LINE"
);
},
{
closed = 1;
nodes = (
"90 442 LINE",
"155 442 LINE",
"164 511 LINE",
"99 511 LINE"
);
}
);
};
layerId = "65EC8A7C-8A8B-4926-A170-31F830B4F708";
paths = (
{
closed = 1;
nodes = (
"28 0 LINE",
"93 0 LINE",
"102 69 LINE",
"37 69 LINE"
);
},
{
closed = 1;
nodes = (
"90 442 LINE",
"155 442 LINE",
"164 511 LINE",
"99 511 LINE"
);
}
);
width = 238;
}
);
unicode = 003A;
},
{
glyphname = semicolon;
lastChange = "2014-09-05 18:36:16 +0000";
layers = (
{
background = {
paths = (
{
closed = 1;
nodes = (
"100 442 LINE",
"165 442 LINE",
"175 511 LINE",
"110 511 LINE"
);
},
{
closed = 1;
nodes = (
"58 -101 LINE",
"104 11 LINE",
"112 69 LINE",
"47 69 LINE",
"38 0 LINE",
"62 0 LINE",
"62 0 OFFCURVE",
"25 -101 OFFCURVE",
"24 -101 CURVE"
);
}
);
};
layerId = "65EC8A7C-8A8B-4926-A170-31F830B4F708";
paths = (
{
closed = 1;
nodes = (
"100 442 LINE",
"165 442 LINE",
"175 511 LINE",
"110 511 LINE"
);
},
{
closed = 1;
nodes = (
"58 -101 LINE",
"104 11 LINE",
"112 69 LINE",
"47 69 LINE",
"38 0 LINE",
"62 0 LINE",
"62 0 OFFCURVE",
"25 -101 OFFCURVE",
"24 -101 CURVE"
);
}
);
width = 238;
}
);
unicode = 003B;
},
{
glyphname = less;
lastChange = "2014-09-05 18:36:16 +0000";
layers = (
{
background = {
paths = (
{
closed = 1;
nodes = (
"31 210 LINE",
"513 13 LINE",
"521 75 LINE",
"85 254 LINE",
"572 433 LINE",
"580 495 LINE",
"44 298 LINE"
);
}
);
};
layerId = "65EC8A7C-8A8B-4926-A170-31F830B4F708";
paths = (
{
closed = 1;
nodes = (
"31 210 LINE",
"513 13 LINE",
"521 75 LINE",
"85 254 LINE",
"572 433 LINE",
"580 495 LINE",
"44 298 LINE"
);
}
);
width = 615;
}
);
unicode = 003C;
},
{
glyphname = equal;
lastChange = "2014-09-05 18:36:16 +0000";
layers = (
{
background = {
paths = (
{
closed = 1;
nodes = (
"559 328 LINE",
"567 386 LINE",
"67 386 LINE",
"59 328 LINE"
);
},
{
closed = 1;
nodes = (
"530 120 LINE",
"538 178 LINE",
"38 178 LINE",
"30 120 LINE"
);
}
);
};
layerId = "65EC8A7C-8A8B-4926-A170-31F830B4F708";
paths = (
{
closed = 1;
nodes = (
"559 328 LINE",
"567 386 LINE",
"67 386 LINE",
"59 328 LINE"
);
},
{
closed = 1;
nodes = (
"530 120 LINE",
"538 178 LINE",
"38 178 LINE",
"30 120 LINE"
);
}
);
width = 615;
}
);
unicode = 003D;
},
{
glyphname = greater;
lastChange = "2014-09-05 18:36:16 +0000";
layers = (
{
background = {
paths = (
{
closed = 1;
nodes = (
"570 298 LINE",
"88 495 LINE",
"80 433 LINE",
"517 254 LINE",
"29 75 LINE",
"21 13 LINE",
"557 210 LINE"
);
}
);
};
layerId = "65EC8A7C-8A8B-4926-A170-31F830B4F708";
paths = (
{
closed = 1;
nodes = (
"570 298 LINE",
"88 495 LINE",
"80 433 LINE",
"517 254 LINE",
"29 75 LINE",
"21 13 LINE",
"557 210 LINE"
);
}
);
width = 615;
}
);
unicode = 003E;
},
{
glyphname = question;
lastChange = "2014-09-05 18:36:16 +0000";
layers = (
{
background = {
paths = (
{
closed = 1;
nodes = (
"167 0 LINE",
"232 0 LINE",
"241 69 LINE",
"176 69 LINE"
);
},
{
closed = 1;
nodes = (
"259 231 LINE SMOOTH",
"275 346 OFFCURVE",
"458 351 OFFCURVE",
"458 539 CURVE SMOOTH",
"458 590 OFFCURVE",
"441 697 OFFCURVE",
"289 697 CURVE SMOOTH",
"94 697 OFFCURVE",
"61 529 OFFCURVE",
"57 498 CURVE",
"56 492 OFFCURVE",
"55 476 OFFCURVE",
"55 465 CURVE",
"109 465 LINE",
"109 465 OFFCURVE",
"109 484 OFFCURVE",
"110 494 CURVE",
"115 529 OFFCURVE",
"145 648 OFFCURVE",
"284 648 CURVE SMOOTH",
"386 648 OFFCURVE",
"404 580 OFFCURVE",
"404 534 CURVE SMOOTH",
"404 373 OFFCURVE",
"224 369 OFFCURVE",
"207 244 CURVE SMOOTH",
"196 166 LINE",
"250 166 LINE"
);
}
);
};
layerId = "65EC8A7C-8A8B-4926-A170-31F830B4F708";
paths = (
{
closed = 1;
nodes = (
"167 0 LINE",
"232 0 LINE",
"241 69 LINE",
"176 69 LINE"
);
},
{
closed = 1;
nodes = (
"259 231 LINE SMOOTH",
"275 346 OFFCURVE",
"458 351 OFFCURVE",
"458 539 CURVE SMOOTH",
"458 590 OFFCURVE",
"441 697 OFFCURVE",
"289 697 CURVE SMOOTH",
"94 697 OFFCURVE",
"61 529 OFFCURVE",
"57 498 CURVE",
"56 492 OFFCURVE",
"55 476 OFFCURVE",
"55 465 CURVE",
"109 465 LINE",
"109 465 OFFCURVE",
"109 484 OFFCURVE",
"110 494 CURVE",
"115 529 OFFCURVE",
"145 648 OFFCURVE",
"284 648 CURVE SMOOTH",
"386 648 OFFCURVE",
"404 580 OFFCURVE",
"404 534 CURVE SMOOTH",
"404 373 OFFCURVE",
"224 369 OFFCURVE",
"207 244 CURVE SMOOTH",
"196 166 LINE",
"250 166 LINE"
);
}
);
width = 502;
}
);
unicode = 003F;
},
{
glyphname = at;
lastChange = "2014-09-05 18:36:16 +0000";
layers = (
{
background = {
paths = (
{
closed = 1;
nodes = (
"605 234 LINE SMOOTH",
"587 117 OFFCURVE",
"494 65 OFFCURVE",
"410 65 CURVE SMOOTH",
"342 65 OFFCURVE",
"307 87 OFFCURVE",
"307 137 CURVE SMOOTH",
"307 259 OFFCURVE",
"429 267 OFFCURVE",
"610 267 CURVE"
);
},
{
closed = 1;
nodes = (
"646 66 OFFCURVE",
"635 77 OFFCURVE",
"635 94 CURVE SMOOTH",
"635 109 OFFCURVE",
"677 377 OFFCURVE",
"677 406 CURVE SMOOTH",
"677 484 OFFCURVE",
"624 521 OFFCURVE",
"516 521 CURVE SMOOTH",
"398 521 OFFCURVE",
"307 465 OFFCURVE",
"307 365 CURVE",
"355 365 LINE",
"357 380 LINE SMOOTH",
"367 451 OFFCURVE",
"431 478 OFFCURVE",
"510 478 CURVE SMOOTH",
"590 478 OFFCURVE",
"626 458 OFFCURVE",
"626 399 CURVE SMOOTH",
"626 390 OFFCURVE",
"625 380 OFFCURVE",
"624 370 CURVE SMOOTH",
"616 309 LINE",
"414 309 OFFCURVE",
"256 295 OFFCURVE",
"256 130 CURVE SMOOTH",
"256 45 OFFCURVE",
"325 22 OFFCURVE",
"394 22 CURVE SMOOTH",
"473 22 OFFCURVE",
"538 49 OFFCURVE",
"588 115 CURVE",
"587 106 OFFCURVE",
"586 97 OFFCURVE",
"586 90 CURVE SMOOTH",
"586 49 OFFCURVE",
"604 23 OFFCURVE",
"666 23 CURVE SMOOTH",
"794 23 OFFCURVE",
"879 175 OFFCURVE",
"879 398 CURVE SMOOTH",
"879 609 OFFCURVE",
"739 697 OFFCURVE",
"544 697 CURVE SMOOTH",
"223 697 OFFCURVE",
"60 466 OFFCURVE",
"60 162 CURVE SMOOTH",
"60 -57 OFFCURVE",
"184 -153 OFFCURVE",
"390 -153 CURVE SMOOTH",
"433 -153 OFFCURVE",
"514 -142 OFFCURVE",
"559 -126 CURVE",
"566 -74 LINE",
"528 -92 OFFCURVE",
"443 -106 OFFCURVE",
"397 -106 CURVE SMOOTH",
"202 -106 OFFCURVE",
"110 -15 OFFCURVE",
"110 167 CURVE SMOOTH",
"110 493 OFFCURVE",
"293 650 OFFCURVE",
"536 650 CURVE SMOOTH",
"711 650 OFFCURVE",
"829 581 OFFCURVE",
"829 390 CURVE SMOOTH",
"829 279 OFFCURVE",
"792 66 OFFCURVE",
"670 66 CURVE SMOOTH"
);
}
);
};
layerId = "65EC8A7C-8A8B-4926-A170-31F830B4F708";
paths = (
{
closed = 1;
nodes = (
"605 234 LINE SMOOTH",
"587 117 OFFCURVE",
"494 65 OFFCURVE",
"410 65 CURVE SMOOTH",
"342 65 OFFCURVE",
"307 87 OFFCURVE",
"307 137 CURVE SMOOTH",
"307 259 OFFCURVE",
"429 267 OFFCURVE",
"610 267 CURVE"
);
},
{
closed = 1;
nodes = (
"646 66 OFFCURVE",
"635 77 OFFCURVE",
"635 94 CURVE SMOOTH",
"635 109 OFFCURVE",
"677 377 OFFCURVE",
"677 406 CURVE SMOOTH",
"677 484 OFFCURVE",
"624 521 OFFCURVE",
"516 521 CURVE SMOOTH",
"398 521 OFFCURVE",
"307 465 OFFCURVE",
"307 365 CURVE",
"355 365 LINE",
"357 380 LINE SMOOTH",
"367 451 OFFCURVE",
"431 478 OFFCURVE",
"510 478 CURVE SMOOTH",
"590 478 OFFCURVE",
"626 458 OFFCURVE",
"626 399 CURVE SMOOTH",
"626 390 OFFCURVE",
"625 380 OFFCURVE",
"624 370 CURVE SMOOTH",
"616 309 LINE",
"414 309 OFFCURVE",
"256 295 OFFCURVE",
"256 130 CURVE SMOOTH",
"256 45 OFFCURVE",
"325 22 OFFCURVE",
"394 22 CURVE SMOOTH",
"473 22 OFFCURVE",
"538 49 OFFCURVE",
"588 115 CURVE",
"587 106 OFFCURVE",
"586 97 OFFCURVE",
"586 90 CURVE SMOOTH",
"586 49 OFFCURVE",
"604 23 OFFCURVE",
"666 23 CURVE SMOOTH",
"794 23 OFFCURVE",
"879 175 OFFCURVE",
"879 398 CURVE SMOOTH",
"879 609 OFFCURVE",
"739 697 OFFCURVE",
"544 697 CURVE SMOOTH",
"223 697 OFFCURVE",
"60 466 OFFCURVE",
"60 162 CURVE SMOOTH",
"60 -57 OFFCURVE",
"184 -153 OFFCURVE",
"390 -153 CURVE SMOOTH",
"433 -153 OFFCURVE",
"514 -142 OFFCURVE",
"559 -126 CURVE",
"566 -74 LINE",
"528 -92 OFFCURVE",
"443 -106 OFFCURVE",
"397 -106 CURVE SMOOTH",
"202 -106 OFFCURVE",
"110 -15 OFFCURVE",
"110 167 CURVE SMOOTH",
"110 493 OFFCURVE",
"293 650 OFFCURVE",
"536 650 CURVE SMOOTH",
"711 650 OFFCURVE",
"829 581 OFFCURVE",
"829 390 CURVE SMOOTH",
"829 279 OFFCURVE",
"792 66 OFFCURVE",
"670 66 CURVE SMOOTH"
);
}
);
width = 887;
}
);
unicode = 0040;
},
{
glyphname = A;
lastChange = "2014-09-09 18:08:28 +0000";
layers = (
{
anchors = (
{
name = ogonek;
position = "{578, 10}";
},
{
name = top;
position = "{369, 686}";
}
);
background = {
anchors = (
{
name = ogonek;
position = "{549, 10}";
},
{
name = top;
position = "{386, 686}";
}
);
paths = (
{
closed = 1;
nodes = (
"522 0 LINE",
"581 0 LINE",
"394 686 LINE",
"344 686 LINE",
"-36 0 LINE",
"19 0 LINE",
"113 170 LINE",
"475 170 LINE"
);
},
{
closed = 1;
nodes = (
"354 612 LINE",
"358 612 LINE",
"462 219 LINE",
"140 219 LINE"
);
}
);
};
layerId = "65EC8A7C-8A8B-4926-A170-31F830B4F708";
paths = (
{
closed = 1;
nodes = (
"522 0 LINE",
"581 0 LINE",
"394 686 LINE",
"344 686 LINE",
"-36 0 LINE",
"19 0 LINE",
"113 170 LINE",
"475 170 LINE"
);
},
{
closed = 1;
nodes = (
"354 612 LINE",
"358 612 LINE",
"462 219 LINE",
"140 219 LINE"
);
}
);
width = 650;
}
);
unicode = 0041;
},
{
glyphname = B;
lastChange = "2014-09-05 18:36:16 +0000";
layers = (
{
background = {
paths = (
{
closed = 1;
nodes = (
"51 0 LINE",
"331 0 LINE SMOOTH",
"450 0 OFFCURVE",
"549 100 OFFCURVE",
"549 216 CURVE SMOOTH",
"549 322 OFFCURVE",
"466 348 OFFCURVE",
"434 353 CURVE",
"435 359 LINE",
"490 372 OFFCURVE",
"579 423 OFFCURVE",
"579 540 CURVE SMOOTH",
"579 622 OFFCURVE",
"513 686 OFFCURVE",
"422 686 CURVE SMOOTH",
"148 686 LINE"
);
},
{
closed = 1;
nodes = (
"158 374 LINE",
"195 638 LINE",
"405 638 LINE SMOOTH",
"473 638 OFFCURVE",
"522 591 OFFCURVE",
"522 526 CURVE SMOOTH",
"522 441 OFFCURVE",
"449 374 OFFCURVE",
"368 374 CURVE SMOOTH"
);
},
{
closed = 1;
nodes = (
"112 48 LINE",
"151 326 LINE",
"371 326 LINE SMOOTH",
"442 326 OFFCURVE",
"494 274 OFFCURVE",
"494 206 CURVE SMOOTH",
"494 118 OFFCURVE",
"416 48 OFFCURVE",
"332 48 CURVE SMOOTH"
);
}
);
};
layerId = "65EC8A7C-8A8B-4926-A170-31F830B4F708";
paths = (
{
closed = 1;
nodes = (
"51 0 LINE",
"331 0 LINE SMOOTH",
"450 0 OFFCURVE",
"549 100 OFFCURVE",
"549 216 CURVE SMOOTH",
"549 322 OFFCURVE",
"466 348 OFFCURVE",
"434 353 CURVE",
"435 359 LINE",
"490 372 OFFCURVE",
"579 423 OFFCURVE",
"579 540 CURVE SMOOTH",
"579 622 OFFCURVE",
"513 686 OFFCURVE",
"422 686 CURVE SMOOTH",
"148 686 LINE"
);
},
{
closed = 1;
nodes = (
"158 374 LINE",
"195 638 LINE",
"405 638 LINE SMOOTH",
"473 638 OFFCURVE",
"522 591 OFFCURVE",
"522 526 CURVE SMOOTH",
"522 441 OFFCURVE",
"449 374 OFFCURVE",
"368 374 CURVE SMOOTH"
);
},
{
closed = 1;
nodes = (
"112 48 LINE",
"151 326 LINE",
"371 326 LINE SMOOTH",
"442 326 OFFCURVE",
"494 274 OFFCURVE",
"494 206 CURVE SMOOTH",
"494 118 OFFCURVE",
"416 48 OFFCURVE",
"332 48 CURVE SMOOTH"
);
}
);
width = 652;
}
);
unicode = 0042;
},
{
glyphname = C;
lastChange = "2014-09-05 18:36:16 +0000";
layers = (
{
anchors = (
{
name = bottom;
position = "{295, 0}";
},
{
name = top;
position = "{392, 686}";
}
);
background = {
anchors = (
{
name = bottom;
position = "{295, 0}";
},
{
name = top;
position = "{392, 686}";
}
);
paths = (
{
closed = 1;
nodes = (
"513 251 LINE",
"489 81 OFFCURVE",
"387 38 OFFCURVE",
"282 38 CURVE SMOOTH",
"182 38 OFFCURVE",
"110 76 OFFCURVE",
"110 227 CURVE SMOOTH",
"110 254 OFFCURVE",
"111 284 OFFCURVE",
"123 368 CURVE SMOOTH",
"155 595 OFFCURVE",
"250 648 OFFCURVE",
"367 648 CURVE SMOOTH",
"460 648 OFFCURVE",
"542 615 OFFCURVE",
"542 486 CURVE SMOOTH",
"542 470 OFFCURVE",
"541 453 OFFCURVE",
"538 434 CURVE",
"591 434 LINE",
"594 456 OFFCURVE",
"596 477 OFFCURVE",
"596 496 CURVE SMOOTH",
"596 653 OFFCURVE",
"492 696 OFFCURVE",
"374 696 CURVE SMOOTH",
"227 696 OFFCURVE",
"104 631 OFFCURVE",
"68 356 CURVE SMOOTH",
"59 289 OFFCURVE",
"57 254 OFFCURVE",
"57 223 CURVE SMOOTH",
"57 37 OFFCURVE",
"149 -10 OFFCURVE",
"275 -10 CURVE SMOOTH",
"407 -10 OFFCURVE",
"537 48 OFFCURVE",
"566 251 CURVE"
);
}
);
};
layerId = "65EC8A7C-8A8B-4926-A170-31F830B4F708";
paths = (
{
closed = 1;
nodes = (
"513 251 LINE",
"489 81 OFFCURVE",
"387 38 OFFCURVE",
"282 38 CURVE SMOOTH",
"182 38 OFFCURVE",
"110 76 OFFCURVE",
"110 227 CURVE SMOOTH",
"110 254 OFFCURVE",
"111 284 OFFCURVE",
"123 368 CURVE SMOOTH",
"155 595 OFFCURVE",
"250 648 OFFCURVE",
"367 648 CURVE SMOOTH",
"460 648 OFFCURVE",
"542 615 OFFCURVE",
"542 486 CURVE SMOOTH",
"542 470 OFFCURVE",
"541 453 OFFCURVE",
"538 434 CURVE",
"591 434 LINE",
"594 456 OFFCURVE",
"596 477 OFFCURVE",
"596 496 CURVE SMOOTH",
"596 653 OFFCURVE",
"492 696 OFFCURVE",
"374 696 CURVE SMOOTH",
"227 696 OFFCURVE",
"104 631 OFFCURVE",
"68 356 CURVE SMOOTH",
"59 289 OFFCURVE",
"57 254 OFFCURVE",
"57 223 CURVE SMOOTH",
"57 37 OFFCURVE",
"149 -10 OFFCURVE",
"275 -10 CURVE SMOOTH",
"407 -10 OFFCURVE",
"537 48 OFFCURVE",
"566 251 CURVE"
);
}
);
width = 662;
}
);
unicode = 0043;
},
{
glyphname = D;
lastChange = "2014-09-05 19:12:19 +0000";
layers = (
{
anchors = (
{
name = center;
position = "{363, 343}";
},
{
name = top;
position = "{350, 686}";
}
);
background = {
anchors = (
{
name = center;
position = "{363, 343}";
},
{
name = top;
position = "{400, 686}";
}
);
paths = (
{
closed = 1;
nodes = (
"112 48 LINE",
"195 638 LINE",
"361 638 LINE SMOOTH",
"468 638 OFFCURVE",
"541 592 OFFCURVE",
"541 441 CURVE SMOOTH",
"541 418 OFFCURVE",
"539 393 OFFCURVE",
"529 322 CURVE SMOOTH",
"498 104 OFFCURVE",
"395 48 OFFCURVE",
"278 48 CURVE SMOOTH"
);
},
{
closed = 1;
nodes = (
"271 0 LINE SMOOTH",
"425 0 OFFCURVE",
"551 74 OFFCURVE",
"584 331 CURVE SMOOTH",
"592 391 OFFCURVE",
"594 421 OFFCURVE",
"594 450 CURVE SMOOTH",
"594 632 OFFCURVE",
"495 686 OFFCURVE",
"368 686 CURVE SMOOTH",
"148 686 LINE",
"51 0 LINE"
);
}
);
};
layerId = "65EC8A7C-8A8B-4926-A170-31F830B4F708";
paths = (
{
closed = 1;
nodes = (
"112 48 LINE",
"195 638 LINE",
"361 638 LINE SMOOTH",
"468 638 OFFCURVE",
"541 592 OFFCURVE",
"541 441 CURVE SMOOTH",
"541 418 OFFCURVE",
"539 393 OFFCURVE",
"529 322 CURVE SMOOTH",
"498 104 OFFCURVE",
"395 48 OFFCURVE",
"278 48 CURVE SMOOTH"
);
},
{
closed = 1;
nodes = (
"271 0 LINE SMOOTH",
"425 0 OFFCURVE",
"551 74 OFFCURVE",
"584 331 CURVE SMOOTH",
"592 391 OFFCURVE",
"594 421 OFFCURVE",
"594 450 CURVE SMOOTH",
"594 632 OFFCURVE",
"495 686 OFFCURVE",
"368 686 CURVE SMOOTH",
"148 686 LINE",
"51 0 LINE"
);
}
);
width = 677;
}
);
unicode = 0044;
},
{
glyphname = E;
lastChange = "2014-09-05 19:12:23 +0000";
layers = (
{
anchors = (
{
name = bottom;
position = "{260, 0}";
},
{
name = ogonek;
position = "{457, 10}";
},
{
name = top;
position = "{357, 686}";
}
);
background = {
anchors = (
{
name = bottom;
position = "{260, 0}";
},
{
name = ogonek;
position = "{497, 10}";
},
{
name = top;
position = "{357, 686}";
}
);
paths = (
{
closed = 1;
nodes = (
"481 0 LINE",
"481 48 LINE",
"112 48 LINE",
"151 326 LINE",
"470 326 LINE",
"477 374 LINE",
"158 374 LINE",
"195 638 LINE",
"559 638 LINE",
"572 686 LINE",
"148 686 LINE",
"51 0 LINE"
);
}
);
};
layerId = "65EC8A7C-8A8B-4926-A170-31F830B4F708";
paths = (
{
closed = 1;
nodes = (
"481 0 LINE",
"481 48 LINE",
"112 48 LINE",
"151 326 LINE",
"470 326 LINE",
"477 374 LINE",
"158 374 LINE",
"195 638 LINE",
"559 638 LINE",
"572 686 LINE",
"148 686 LINE",
"51 0 LINE"
);
}
);
width = 592;
}
);
unicode = 0045;
},
{
glyphname = F;
lastChange = "2014-09-05 18:36:16 +0000";
layers = (
{
background = {
paths = (
{
closed = 1;
nodes = (
"554 686 LINE",
"148 686 LINE",
"51 0 LINE",
"105 0 LINE",
"151 326 LINE",
"444 326 LINE",
"451 374 LINE",
"158 374 LINE",
"195 638 LINE",
"541 638 LINE"
);
}
);
};
layerId = "65EC8A7C-8A8B-4926-A170-31F830B4F708";
paths = (
{
closed = 1;
nodes = (
"554 686 LINE",
"148 686 LINE",
"51 0 LINE",
"105 0 LINE",
"151 326 LINE",
"444 326 LINE",
"451 374 LINE",
"158 374 LINE",
"195 638 LINE",
"541 638 LINE"
);
}
);
width = 552;
}
);
unicode = 0046;
},
{
glyphname = G;
lastChange = "2014-09-05 19:12:30 +0000";
layers = (
{
anchors = (
{
name = bottom;
position = "{302, 0}";
},
{
name = top;
position = "{359, 686}";
}
);
background = {
anchors = (
{
name = bottom;
position = "{302, 0}";
},
{
name = top;
position = "{399, 686}";
}
);
paths = (
{
closed = 1;
nodes = (
"516 251 LINE SMOOTH",
"494 79 OFFCURVE",
"384 38 OFFCURVE",
"292 38 CURVE SMOOTH",
"186 38 OFFCURVE",
"110 76 OFFCURVE",
"110 227 CURVE SMOOTH",
"110 254 OFFCURVE",
"111 284 OFFCURVE",
"123 368 CURVE SMOOTH",
"155 595 OFFCURVE",
"250 648 OFFCURVE",
"367 648 CURVE SMOOTH",
"458 648 OFFCURVE",
"543 616 OFFCURVE",
"543 494 CURVE SMOOTH",
"543 480 OFFCURVE",
"542 465 OFFCURVE",
"540 449 CURVE",
"593 449 LINE",
"596 469 OFFCURVE",
"597 487 OFFCURVE",
"597 504 CURVE SMOOTH",
"597 655 OFFCURVE",
"490 696 OFFCURVE",
"374 696 CURVE SMOOTH",
"227 696 OFFCURVE",
"104 631 OFFCURVE",
"68 356 CURVE SMOOTH",
"59 289 OFFCURVE",
"57 254 OFFCURVE",
"57 223 CURVE SMOOTH",
"57 37 OFFCURVE",
"153 -10 OFFCURVE",
"285 -10 CURVE SMOOTH",
"362 -10 OFFCURVE",
"446 18 OFFCURVE",
"496 92 CURVE",
"496 30 OFFCURVE",
"499 0 OFFCURVE",
"499 0 CURVE",
"536 0 LINE",
"536 0 OFFCURVE",
"537 48 OFFCURVE",
"547 119 CURVE SMOOTH",
"579 350 LINE",
"297 350 LINE",
"291 303 LINE",
"523 303 LINE"
);
}
);
};
layerId = "65EC8A7C-8A8B-4926-A170-31F830B4F708";
paths = (
{
closed = 1;
nodes = (
"516 251 LINE SMOOTH",
"494 79 OFFCURVE",
"384 38 OFFCURVE",
"292 38 CURVE SMOOTH",
"186 38 OFFCURVE",
"110 76 OFFCURVE",
"110 227 CURVE SMOOTH",
"110 254 OFFCURVE",
"111 284 OFFCURVE",
"123 368 CURVE SMOOTH",
"155 595 OFFCURVE",
"250 648 OFFCURVE",
"367 648 CURVE SMOOTH",
"458 648 OFFCURVE",
"543 616 OFFCURVE",
"543 494 CURVE SMOOTH",
"543 480 OFFCURVE",
"542 465 OFFCURVE",
"540 449 CURVE",
"593 449 LINE",
"596 469 OFFCURVE",
"597 487 OFFCURVE",
"597 504 CURVE SMOOTH",
"597 655 OFFCURVE",
"490 696 OFFCURVE",
"374 696 CURVE SMOOTH",
"227 696 OFFCURVE",
"104 631 OFFCURVE",
"68 356 CURVE SMOOTH",
"59 289 OFFCURVE",
"57 254 OFFCURVE",
"57 223 CURVE SMOOTH",
"57 37 OFFCURVE",
"153 -10 OFFCURVE",
"285 -10 CURVE SMOOTH",
"362 -10 OFFCURVE",
"446 18 OFFCURVE",
"496 92 CURVE",
"496 30 OFFCURVE",
"499 0 OFFCURVE",
"499 0 CURVE",
"536 0 LINE",
"536 0 OFFCURVE",
"537 48 OFFCURVE",
"547 119 CURVE SMOOTH",
"579 350 LINE",
"297 350 LINE",
"291 303 LINE",
"523 303 LINE"
);
}
);
width = 675;
}
);
unicode = 0047;
},
{
glyphname = H;
lastChange = "2014-09-05 19:12:41 +0000";
layers = (
{
anchors = (
{
name = center;
position = "{339, 343}";
},
{
name = top;
position = "{388, 686}";
}
);
background = {
anchors = (
{
name = center;
position = "{371, 343}";
},
{
name = top;
position = "{408, 686}";
}
);
paths = (
{
closed = 1;
nodes = (
"530 0 LINE",
"627 686 LINE",
"573 686 LINE",
"529 374 LINE",
"158 374 LINE",
"202 686 LINE",
"148 686 LINE",
"51 0 LINE",
"105 0 LINE",
"151 326 LINE",
"522 326 LINE",
"476 0 LINE"
);
}
);
};
layerId = "65EC8A7C-8A8B-4926-A170-31F830B4F708";
paths = (
{
closed = 1;
nodes = (
"530 0 LINE",
"627 686 LINE",
"573 686 LINE",
"529 374 LINE",
"158 374 LINE",
"202 686 LINE",
"148 686 LINE",
"51 0 LINE",
"105 0 LINE",
"151 326 LINE",
"522 326 LINE",
"476 0 LINE"
);
}
);
width = 693;
}
);
unicode = 0048;
},
{
glyphname = I;
lastChange = "2014-09-05 19:12:53 +0000";
layers = (
{
anchors = (
{
name = ogonek;
position = "{222, 10}";
},
{
name = top;
position = "{215, 686}";
}
);
background = {
anchors = (
{
name = ogonek;
position = "{292, 10}";
},
{
name = top;
position = "{244, 686}";
}
);
paths = (
{
closed = 1;
nodes = (
"102 637 LINE",
"181 637 LINE",
"98 49 LINE",
"19 49 LINE",
"12 0 LINE",
"224 0 LINE",
"231 49 LINE",
"152 49 LINE",
"235 637 LINE",
"314 637 LINE",
"321 686 LINE",
"109 686 LINE"
);
}
);
};
layerId = "65EC8A7C-8A8B-4926-A170-31F830B4F708";
paths = (
{
closed = 1;
nodes = (
"102 637 LINE",
"181 637 LINE",
"98 49 LINE",
"19 49 LINE",
"12 0 LINE",
"224 0 LINE",
"231 49 LINE",
"152 49 LINE",
"235 637 LINE",
"314 637 LINE",
"321 686 LINE",
"109 686 LINE"
);
}
);
width = 365;
}
);
unicode = 0049;
},
{
glyphname = J;
lastChange = "2014-09-05 19:13:07 +0000";
layers = (
{
anchors = (
{
name = top;
position = "{410, 686}";
}
);
background = {
anchors = (
{
name = top;
position = "{324, 686}";
}
);
paths = (
{
closed = 1;
nodes = (
"15 185 LINE",
"10 155 OFFCURVE",
"10 145 OFFCURVE",
"10 135 CURVE SMOOTH",
"10 39 OFFCURVE",
"80 -10 OFFCURVE",
"177 -10 CURVE SMOOTH",
"293 -10 OFFCURVE",
"378 50 OFFCURVE",
"394 166 CURVE SMOOTH",
"467 686 LINE",
"413 686 LINE",
"341 172 LINE SMOOTH",
"328 78 OFFCURVE",
"260 38 OFFCURVE",
"183 38 CURVE SMOOTH",
"113 38 OFFCURVE",
"61 70 OFFCURVE",
"61 146 CURVE SMOOTH",
"61 154 OFFCURVE",
"61 163 OFFCURVE",
"65 185 CURVE"
);
}
);
};
layerId = "65EC8A7C-8A8B-4926-A170-31F830B4F708";
paths = (
{
closed = 1;
nodes = (
"15 185 LINE",
"10 155 OFFCURVE",
"10 145 OFFCURVE",
"10 135 CURVE SMOOTH",
"10 39 OFFCURVE",
"80 -10 OFFCURVE",
"177 -10 CURVE SMOOTH",
"293 -10 OFFCURVE",
"378 50 OFFCURVE",
"394 166 CURVE SMOOTH",
"467 686 LINE",
"413 686 LINE",
"341 172 LINE SMOOTH",
"328 78 OFFCURVE",
"260 38 OFFCURVE",
"183 38 CURVE SMOOTH",
"113 38 OFFCURVE",
"61 70 OFFCURVE",
"61 146 CURVE SMOOTH",
"61 154 OFFCURVE",
"61 163 OFFCURVE",
"65 185 CURVE"
);
}
);
width = 525;
}
);
unicode = 004A;
},
{
glyphname = K;
lastChange = "2014-09-05 18:36:16 +0000";
layers = (
{
anchors = (
{
name = bottom;
position = "{275, 0}";
},
{
name = top;
position = "{372, 686}";
}
);
background = {
anchors = (
{
name = bottom;
position = "{275, 0}";
},
{
name = top;
position = "{372, 686}";
}
);
paths = (
{
closed = 1;
nodes = (
"51 0 LINE",
"105 0 LINE",
"135 208 LINE",
"277 346 LINE",
"472 0 LINE",
"540 0 LINE",
"320 387 LINE",
"629 686 LINE",
"565 686 LINE",
"145 279 LINE",
"202 686 LINE",
"148 686 LINE"
);
}
);
};
layerId = "65EC8A7C-8A8B-4926-A170-31F830B4F708";
paths = (
{
closed = 1;
nodes = (
"51 0 LINE",
"105 0 LINE",
"135 208 LINE",
"277 346 LINE",
"472 0 LINE",
"540 0 LINE",
"320 387 LINE",
"629 686 LINE",
"565 686 LINE",
"145 279 LINE",
"202 686 LINE",
"148 686 LINE"
);
}
);
width = 621;
}
);
unicode = 004B;
},
{
glyphname = L;
lastChange = "2014-09-05 19:13:12 +0000";
layers = (
{
anchors = (
{
name = bottom;
position = "{230, 0}";
},
{
name = top;
position = "{175, 686}";
},
{
name = topright;
position = "{573, 686}";
}
);
background = {
anchors = (
{
name = bottom;
position = "{230, 0}";
},
{
name = top;
position = "{327, 686}";
},
{
name = topright;
position = "{573, 686}";
}
);
paths = (
{
closed = 1;
nodes = (
"454 0 LINE",
"454 48 LINE",
"112 48 LINE",
"202 686 LINE",
"148 686 LINE",
"51 0 LINE"
);
}
);
};
layerId = "65EC8A7C-8A8B-4926-A170-31F830B4F708";
paths = (
{
closed = 1;
nodes = (
"454 0 LINE",
"454 48 LINE",
"112 48 LINE",
"202 686 LINE",
"148 686 LINE",
"51 0 LINE"
);
}
);
width = 532;
}
);
unicode = 004C;
},
{
glyphname = M;
lastChange = "2014-09-05 18:36:16 +0000";
layers = (
{
background = {
paths = (
{
closed = 1;
nodes = (
"762 0 LINE",
"859 686 LINE",
"774 686 LINE",
"418 70 LINE",
"414 70 LINE",
"234 686 LINE",
"148 686 LINE",
"51 0 LINE",
"99 0 LINE",
"187 625 LINE",
"192 625 LINE",
"377 0 LINE",
"428 0 LINE",
"791 625 LINE",
"796 625 LINE",
"708 0 LINE"
);
}
);
};
layerId = "65EC8A7C-8A8B-4926-A170-31F830B4F708";
paths = (
{
closed = 1;
nodes = (
"762 0 LINE",
"859 686 LINE",
"774 686 LINE",
"418 70 LINE",
"414 70 LINE",
"234 686 LINE",
"148 686 LINE",
"51 0 LINE",
"99 0 LINE",
"187 625 LINE",
"192 625 LINE",
"377 0 LINE",
"428 0 LINE",
"791 625 LINE",
"796 625 LINE",
"708 0 LINE"
);
}
);
width = 938;
}
);
unicode = 004D;
},
{
glyphname = N;
lastChange = "2014-09-05 19:13:18 +0000";
layers = (
{
anchors = (
{
name = bottom;
position = "{311, 0}";
},
{
name = top;
position = "{378, 686}";
}
);
background = {
anchors = (
{
name = bottom;
position = "{311, 0}";
},
{
name = top;
position = "{408, 686}";
}
);
paths = (
{
closed = 1;
nodes = (
"530 0 LINE",
"627 686 LINE",
"579 686 LINE",
"497 103 LINE",
"493 103 LINE",
"194 686 LINE",
"148 686 LINE",
"51 0 LINE",
"99 0 LINE",
"181 583 LINE",
"185 583 LINE",
"482 0 LINE"
);
}
);
};
layerId = "65EC8A7C-8A8B-4926-A170-31F830B4F708";
paths = (
{
closed = 1;
nodes = (
"530 0 LINE",
"627 686 LINE",
"579 686 LINE",
"497 103 LINE",
"493 103 LINE",
"194 686 LINE",
"148 686 LINE",
"51 0 LINE",
"99 0 LINE",
"181 583 LINE",
"185 583 LINE",
"482 0 LINE"
);
}
);
width = 694;
}
);
unicode = 004E;
},
{
glyphname = O;
lastChange = "2014-09-05 19:13:24 +0000";
layers = (
{
anchors = (
{
name = top;
position = "{376, 686}";
}
);
background = {
anchors = (
{
name = top;
position = "{406, 686}";
}
);
paths = (
{
closed = 1;
nodes = (
"430 -10 OFFCURVE",
"562 54 OFFCURVE",
"597 330 CURVE SMOOTH",
"605 394 OFFCURVE",
"608 428 OFFCURVE",
"608 458 CURVE SMOOTH",
"608 648 OFFCURVE",
"509 696 OFFCURVE",
"382 696 CURVE SMOOTH",
"235 696 OFFCURVE",
"104 631 OFFCURVE",
"68 356 CURVE SMOOTH",
"59 291 OFFCURVE",
"57 258 OFFCURVE",
"57 228 CURVE SMOOTH",
"57 38 OFFCURVE",
"156 -10 OFFCURVE",
"283 -10 CURVE SMOOTH"
);
},
{
closed = 1;
nodes = (
"189 38 OFFCURVE",
"110 77 OFFCURVE",
"110 232 CURVE SMOOTH",
"110 257 OFFCURVE",
"111 286 OFFCURVE",
"123 368 CURVE SMOOTH",
"156 595 OFFCURVE",
"258 648 OFFCURVE",
"375 648 CURVE SMOOTH",
"475 648 OFFCURVE",
"555 609 OFFCURVE",
"555 454 CURVE SMOOTH",
"555 428 OFFCURVE",
"553 400 OFFCURVE",
"542 318 CURVE SMOOTH",
"511 91 OFFCURVE",
"407 38 OFFCURVE",
"290 38 CURVE SMOOTH"
);
}
);
};
layerId = "65EC8A7C-8A8B-4926-A170-31F830B4F708";
paths = (
{
closed = 1;
nodes = (
"430 -10 OFFCURVE",
"562 54 OFFCURVE",
"597 330 CURVE SMOOTH",
"605 394 OFFCURVE",
"608 428 OFFCURVE",
"608 458 CURVE SMOOTH",
"608 648 OFFCURVE",
"509 696 OFFCURVE",
"382 696 CURVE SMOOTH",
"235 696 OFFCURVE",
"104 631 OFFCURVE",
"68 356 CURVE SMOOTH",
"59 291 OFFCURVE",
"57 258 OFFCURVE",
"57 228 CURVE SMOOTH",
"57 38 OFFCURVE",
"156 -10 OFFCURVE",
"283 -10 CURVE SMOOTH"
);
},
{
closed = 1;
nodes = (
"189 38 OFFCURVE",
"110 77 OFFCURVE",
"110 232 CURVE SMOOTH",
"110 257 OFFCURVE",
"111 286 OFFCURVE",
"123 368 CURVE SMOOTH",
"156 595 OFFCURVE",
"258 648 OFFCURVE",
"375 648 CURVE SMOOTH",
"475 648 OFFCURVE",
"555 609 OFFCURVE",
"555 454 CURVE SMOOTH",
"555 428 OFFCURVE",
"553 400 OFFCURVE",
"542 318 CURVE SMOOTH",
"511 91 OFFCURVE",
"407 38 OFFCURVE",
"290 38 CURVE SMOOTH"
);
}
);
width = 690;
}
);
unicode = 004F;
},
{
glyphname = P;
lastChange = "2014-09-05 18:36:16 +0000";
layers = (
{
background = {
paths = (
{
closed = 1;
nodes = (
"105 0 LINE",
"149 312 LINE",
"376 312 LINE SMOOTH",
"500 312 OFFCURVE",
"591 411 OFFCURVE",
"591 526 CURVE SMOOTH",
"591 616 OFFCURVE",
"523 686 OFFCURVE",
"429 686 CURVE SMOOTH",
"148 686 LINE",
"51 0 LINE"
);
},
{
closed = 1;
nodes = (
"156 359 LINE",
"195 638 LINE",
"415 638 LINE SMOOTH",
"486 638 OFFCURVE",
"538 587 OFFCURVE",
"538 519 CURVE SMOOTH",
"538 432 OFFCURVE",
"470 359 OFFCURVE",
"376 359 CURVE SMOOTH"
);
}
);
};
layerId = "65EC8A7C-8A8B-4926-A170-31F830B4F708";
paths = (
{
closed = 1;
nodes = (
"105 0 LINE",
"149 312 LINE",
"376 312 LINE SMOOTH",
"500 312 OFFCURVE",
"591 411 OFFCURVE",
"591 526 CURVE SMOOTH",
"591 616 OFFCURVE",
"523 686 OFFCURVE",
"429 686 CURVE SMOOTH",
"148 686 LINE",
"51 0 LINE"
);
},
{
closed = 1;
nodes = (
"156 359 LINE",
"195 638 LINE",
"415 638 LINE SMOOTH",
"486 638 OFFCURVE",
"538 587 OFFCURVE",
"538 519 CURVE SMOOTH",
"538 432 OFFCURVE",
"470 359 OFFCURVE",
"376 359 CURVE SMOOTH"
);
}
);
width = 626;
}
);
unicode = 0050;
},
{
glyphname = Q;
lastChange = "2014-09-05 18:36:16 +0000";
layers = (
{
background = {
paths = (
{
closed = 1;
nodes = (
"465 -137 OFFCURVE",
"519 -110 OFFCURVE",
"519 -110 CURVE",
"526 -61 LINE",
"526 -62 OFFCURVE",
"455 -90 OFFCURVE",
"408 -90 CURVE SMOOTH",
"333 -90 OFFCURVE",
"313 -46 OFFCURVE",
"311 -9 CURVE",
"446 -1 OFFCURVE",
"564 71 OFFCURVE",
"597 330 CURVE SMOOTH",
"605 394 OFFCURVE",
"608 428 OFFCURVE",
"608 458 CURVE SMOOTH",
"608 648 OFFCURVE",
"509 696 OFFCURVE",
"382 696 CURVE SMOOTH",
"235 696 OFFCURVE",
"104 631 OFFCURVE",
"68 356 CURVE SMOOTH",
"59 291 OFFCURVE",
"57 258 OFFCURVE",
"57 228 CURVE SMOOTH",
"57 49 OFFCURVE",
"144 -4 OFFCURVE",
"261 -9 CURVE",
"261 -66 OFFCURVE",
"283 -137 OFFCURVE",
"402 -137 CURVE SMOOTH"
);
},
{
closed = 1;
nodes = (
"189 38 OFFCURVE",
"110 77 OFFCURVE",
"110 232 CURVE SMOOTH",
"110 257 OFFCURVE",
"111 286 OFFCURVE",
"123 368 CURVE SMOOTH",
"156 595 OFFCURVE",
"258 648 OFFCURVE",
"375 648 CURVE SMOOTH",
"475 648 OFFCURVE",
"555 609 OFFCURVE",
"555 454 CURVE SMOOTH",
"555 428 OFFCURVE",
"553 400 OFFCURVE",
"542 318 CURVE SMOOTH",
"511 91 OFFCURVE",
"407 38 OFFCURVE",
"290 38 CURVE SMOOTH"
);
}
);
};
layerId = "65EC8A7C-8A8B-4926-A170-31F830B4F708";
paths = (
{
closed = 1;
nodes = (
"465 -137 OFFCURVE",
"519 -110 OFFCURVE",
"519 -110 CURVE",
"526 -61 LINE",
"526 -62 OFFCURVE",
"455 -90 OFFCURVE",
"408 -90 CURVE SMOOTH",
"333 -90 OFFCURVE",
"313 -46 OFFCURVE",
"311 -9 CURVE",
"446 -1 OFFCURVE",
"564 71 OFFCURVE",
"597 330 CURVE SMOOTH",
"605 394 OFFCURVE",
"608 428 OFFCURVE",
"608 458 CURVE SMOOTH",
"608 648 OFFCURVE",
"509 696 OFFCURVE",
"382 696 CURVE SMOOTH",
"235 696 OFFCURVE",
"104 631 OFFCURVE",
"68 356 CURVE SMOOTH",
"59 291 OFFCURVE",
"57 258 OFFCURVE",
"57 228 CURVE SMOOTH",
"57 49 OFFCURVE",
"144 -4 OFFCURVE",
"261 -9 CURVE",
"261 -66 OFFCURVE",
"283 -137 OFFCURVE",
"402 -137 CURVE SMOOTH"
);
},
{
closed = 1;
nodes = (
"189 38 OFFCURVE",
"110 77 OFFCURVE",
"110 232 CURVE SMOOTH",
"110 257 OFFCURVE",
"111 286 OFFCURVE",
"123 368 CURVE SMOOTH",
"156 595 OFFCURVE",
"258 648 OFFCURVE",
"375 648 CURVE SMOOTH",
"475 648 OFFCURVE",
"555 609 OFFCURVE",
"555 454 CURVE SMOOTH",
"555 428 OFFCURVE",
"553 400 OFFCURVE",
"542 318 CURVE SMOOTH",
"511 91 OFFCURVE",
"407 38 OFFCURVE",
"290 38 CURVE SMOOTH"
);
}
);
width = 690;
}
);
unicode = 0051;
},
{
glyphname = R;
lastChange = "2014-09-05 19:13:32 +0000";
layers = (
{
anchors = (
{
name = bottom;
position = "{299, 0}";
},
{
name = top;
position = "{336, 686}";
}
);
background = {
anchors = (
{
name = bottom;
position = "{299, 0}";
},
{
name = top;
position = "{396, 686}";
}
);
paths = (
{
closed = 1;
nodes = (
"560 20 LINE",
"542 29 OFFCURVE",
"522 30 OFFCURVE",
"522 87 CURVE SMOOTH",
"522 112 OFFCURVE",
"532 168 OFFCURVE",
"532 204 CURVE SMOOTH",
"532 335 OFFCURVE",
"446 349 OFFCURVE",
"446 349 CURVE",
"446 354 LINE",
"527 368 OFFCURVE",
"594 449 OFFCURVE",
"594 531 CURVE SMOOTH",
"594 626 OFFCURVE",
"526 686 OFFCURVE",
"426 686 CURVE SMOOTH",
"147 686 LINE",
"51 0 LINE",
"105 0 LINE",
"150 326 LINE",
"371 326 LINE SMOOTH",
"399 326 OFFCURVE",
"476 316 OFFCURVE",
"476 186 CURVE SMOOTH",
"476 158 OFFCURVE",
"469 115 OFFCURVE",
"469 85 CURVE SMOOTH",
"469 10 OFFCURVE",
"505 -3 OFFCURVE",
"532 -3 CURVE SMOOTH",
"546 -3 OFFCURVE",
"558 1 OFFCURVE",
"558 1 CURVE"
);
},
{
closed = 1;
nodes = (
"157 374 LINE",
"194 638 LINE",
"422 638 LINE SMOOTH",
"494 638 OFFCURVE",
"539 594 OFFCURVE",
"539 521 CURVE SMOOTH",
"539 441 OFFCURVE",
"460 374 OFFCURVE",
"377 374 CURVE SMOOTH"
);
}
);
};
layerId = "65EC8A7C-8A8B-4926-A170-31F830B4F708";
paths = (
{
closed = 1;
nodes = (
"560 20 LINE",
"542 29 OFFCURVE",
"522 30 OFFCURVE",
"522 87 CURVE SMOOTH",
"522 112 OFFCURVE",
"532 168 OFFCURVE",
"532 204 CURVE SMOOTH",
"532 335 OFFCURVE",
"446 349 OFFCURVE",
"446 349 CURVE",
"446 354 LINE",
"527 368 OFFCURVE",
"594 449 OFFCURVE",
"594 531 CURVE SMOOTH",
"594 626 OFFCURVE",
"526 686 OFFCURVE",
"426 686 CURVE SMOOTH",
"147 686 LINE",
"51 0 LINE",
"105 0 LINE",
"150 326 LINE",
"371 326 LINE SMOOTH",
"399 326 OFFCURVE",
"476 316 OFFCURVE",
"476 186 CURVE SMOOTH",
"476 158 OFFCURVE",
"469 115 OFFCURVE",
"469 85 CURVE SMOOTH",
"469 10 OFFCURVE",
"505 -3 OFFCURVE",
"532 -3 CURVE SMOOTH",
"546 -3 OFFCURVE",
"558 1 OFFCURVE",
"558 1 CURVE"
);
},
{
closed = 1;
nodes = (
"157 374 LINE",
"194 638 LINE",
"422 638 LINE SMOOTH",
"494 638 OFFCURVE",
"539 594 OFFCURVE",
"539 521 CURVE SMOOTH",
"539 441 OFFCURVE",
"460 374 OFFCURVE",
"377 374 CURVE SMOOTH"
);
}
);
width = 670;
}
);
unicode = 0052;
},
{
glyphname = S;
lastChange = "2014-09-05 19:13:35 +0000";
layers = (
{
anchors = (
{
name = bottom;
position = "{279, 0}";
},
{
name = top;
position = "{346, 686}";
}
);
background = {
anchors = (
{
name = bottom;
position = "{279, 0}";
},
{
name = top;
position = "{376, 686}";
}
);
paths = (
{
closed = 1;
nodes = (
"554 503 LINE",
"558 527 OFFCURVE",
"558 537 OFFCURVE",
"558 546 CURVE SMOOTH",
"558 654 OFFCURVE",
"469 696 OFFCURVE",
"354 696 CURVE SMOOTH",
"224 696 OFFCURVE",
"102 638 OFFCURVE",
"102 500 CURVE SMOOTH",
"102 293 OFFCURVE",
"477 381 OFFCURVE",
"477 205 CURVE SMOOTH",
"477 76 OFFCURVE",
"369 38 OFFCURVE",
"262 38 CURVE SMOOTH",
"163 38 OFFCURVE",
"86 69 OFFCURVE",
"86 155 CURVE SMOOTH",
"86 169 OFFCURVE",
"90 197 OFFCURVE",
"93 205 CURVE",
"42 205 LINE",
"39 195 OFFCURVE",
"36 167 OFFCURVE",
"36 151 CURVE SMOOTH",
"36 31 OFFCURVE",
"135 -10 OFFCURVE",
"259 -10 CURVE SMOOTH",
"393 -10 OFFCURVE",
"532 49 OFFCURVE",
"532 217 CURVE SMOOTH",
"532 431 OFFCURVE",
"155 345 OFFCURVE",
"155 508 CURVE SMOOTH",
"155 611 OFFCURVE",
"249 648 OFFCURVE",
"348 648 CURVE SMOOTH",
"438 648 OFFCURVE",
"508 613 OFFCURVE",
"508 542 CURVE SMOOTH",
"508 537 OFFCURVE",
"508 531 OFFCURVE",
"504 503 CURVE"
);
}
);
};
layerId = "65EC8A7C-8A8B-4926-A170-31F830B4F708";
paths = (
{
closed = 1;
nodes = (
"554 503 LINE",
"558 527 OFFCURVE",
"558 537 OFFCURVE",
"558 546 CURVE SMOOTH",
"558 654 OFFCURVE",
"469 696 OFFCURVE",
"354 696 CURVE SMOOTH",
"224 696 OFFCURVE",
"102 638 OFFCURVE",
"102 500 CURVE SMOOTH",
"102 293 OFFCURVE",
"477 381 OFFCURVE",
"477 205 CURVE SMOOTH",
"477 76 OFFCURVE",
"369 38 OFFCURVE",
"262 38 CURVE SMOOTH",
"163 38 OFFCURVE",
"86 69 OFFCURVE",
"86 155 CURVE SMOOTH",
"86 169 OFFCURVE",
"90 197 OFFCURVE",
"93 205 CURVE",
"42 205 LINE",
"39 195 OFFCURVE",
"36 167 OFFCURVE",
"36 151 CURVE SMOOTH",
"36 31 OFFCURVE",
"135 -10 OFFCURVE",
"259 -10 CURVE SMOOTH",
"393 -10 OFFCURVE",
"532 49 OFFCURVE",
"532 217 CURVE SMOOTH",
"532 431 OFFCURVE",
"155 345 OFFCURVE",
"155 508 CURVE SMOOTH",
"155 611 OFFCURVE",
"249 648 OFFCURVE",
"348 648 CURVE SMOOTH",
"438 648 OFFCURVE",
"508 613 OFFCURVE",
"508 542 CURVE SMOOTH",
"508 537 OFFCURVE",
"508 531 OFFCURVE",
"504 503 CURVE"
);
}
);
width = 629;
}
);
unicode = 0053;
},
{
glyphname = T;
lastChange = "2014-09-05 19:13:56 +0000";
layers = (
{
anchors = (
{
name = bottom;
position = "{241, 0}";
},
{
name = center;
position = "{285, 343}";
},
{
name = top;
position = "{332, 686}";
}
);
background = {
anchors = (
{
name = bottom;
position = "{252, 0}";
},
{
name = center;
position = "{312, 343}";
},
{
name = top;
position = "{349, 686}";
}
);
paths = (
{
closed = 1;
nodes = (
"583 638 LINE",
"590 686 LINE",
"74 686 LINE",
"67 638 LINE",
"299 638 LINE",
"209 0 LINE",
"261 0 LINE",
"351 638 LINE"
);
}
);
};
layerId = "65EC8A7C-8A8B-4926-A170-31F830B4F708";
paths = (
{
closed = 1;
nodes = (
"583 638 LINE",
"590 686 LINE",
"74 686 LINE",
"67 638 LINE",
"299 638 LINE",
"209 0 LINE",
"261 0 LINE",
"351 638 LINE"
);
}
);
width = 575;
}
);
unicode = 0054;
},
{
glyphname = U;
lastChange = "2014-09-05 19:14:05 +0000";
layers = (
{
anchors = (
{
name = ogonek;
position = "{358, 10}";
},
{
name = top;
position = "{381, 686}";
}
);
background = {
anchors = (
{
name = ogonek;
position = "{578, 10}";
},
{
name = top;
position = "{402, 686}";
}
);
paths = (
{
closed = 1;
nodes = (
"565 686 LINE",
"500 222 LINE SMOOTH",
"485 114 OFFCURVE",
"408 38 OFFCURVE",
"289 38 CURVE SMOOTH",
"184 38 OFFCURVE",
"128 96 OFFCURVE",
"128 187 CURVE SMOOTH",
"128 214 OFFCURVE",
"129 210 OFFCURVE",
"196 686 CURVE",
"142 686 LINE SMOOTH",
"142 686 OFFCURVE",
"74 233 OFFCURVE",
"74 180 CURVE SMOOTH",
"74 64 OFFCURVE",
"153 -10 OFFCURVE",
"283 -10 CURVE SMOOTH",
"427 -10 OFFCURVE",
"534 81 OFFCURVE",
"554 220 CURVE",
"554 221 OFFCURVE",
"619 686 OFFCURVE",
"619 686 CURVE SMOOTH"
);
}
);
};
layerId = "65EC8A7C-8A8B-4926-A170-31F830B4F708";
paths = (
{
closed = 1;
nodes = (
"565 686 LINE",
"500 222 LINE SMOOTH",
"485 114 OFFCURVE",
"408 38 OFFCURVE",
"289 38 CURVE SMOOTH",
"184 38 OFFCURVE",
"128 96 OFFCURVE",
"128 187 CURVE SMOOTH",
"128 214 OFFCURVE",
"129 210 OFFCURVE",
"196 686 CURVE",
"142 686 LINE SMOOTH",
"142 686 OFFCURVE",
"74 233 OFFCURVE",
"74 180 CURVE SMOOTH",
"74 64 OFFCURVE",
"153 -10 OFFCURVE",
"283 -10 CURVE SMOOTH",
"427 -10 OFFCURVE",
"534 81 OFFCURVE",
"554 220 CURVE",
"554 221 OFFCURVE",
"619 686 OFFCURVE",
"619 686 CURVE SMOOTH"
);
}
);
width = 682;
}
);
unicode = 0055;
},
{
glyphname = V;
lastChange = "2014-09-05 18:36:16 +0000";
layers = (
{
background = {
paths = (
{
closed = 1;
nodes = (
"263 86 LINE",
"258 86 LINE",
"118 686 LINE",
"59 686 LINE",
"222 0 LINE",
"270 0 LINE",
"626 686 LINE",
"573 686 LINE"
);
}
);
};
layerId = "65EC8A7C-8A8B-4926-A170-31F830B4F708";
paths = (
{
closed = 1;
nodes = (
"263 86 LINE",
"258 86 LINE",
"118 686 LINE",
"59 686 LINE",
"222 0 LINE",
"270 0 LINE",
"626 686 LINE",
"573 686 LINE"
);
}
);
width = 602;
}
);
unicode = 0056;
},
{
glyphname = W;
lastChange = "2014-09-05 19:14:13 +0000";
layers = (
{
anchors = (
{
name = top;
position = "{488, 686}";
}
);
background = {
anchors = (
{
name = top;
position = "{518, 686}";
}
);
paths = (
{
closed = 1;
nodes = (
"602 107 LINE",
"598 107 LINE",
"513 686 LINE",
"463 686 LINE",
"214 107 LINE",
"210 107 LINE",
"125 686 LINE",
"67 686 LINE",
"170 0 LINE",
"216 0 LINE",
"467 581 LINE",
"471 581 LINE",
"558 0 LINE",
"604 0 LINE",
"901 686 LINE",
"851 686 LINE"
);
}
);
};
layerId = "65EC8A7C-8A8B-4926-A170-31F830B4F708";
paths = (
{
closed = 1;
nodes = (
"602 107 LINE",
"598 107 LINE",
"513 686 LINE",
"463 686 LINE",
"214 107 LINE",
"210 107 LINE",
"125 686 LINE",
"67 686 LINE",
"170 0 LINE",
"216 0 LINE",
"467 581 LINE",
"471 581 LINE",
"558 0 LINE",
"604 0 LINE",
"901 686 LINE",
"851 686 LINE"
);
}
);
width = 914;
}
);
unicode = 0057;
},
{
glyphname = X;
lastChange = "2014-09-05 18:36:16 +0000";
layers = (
{
background = {
paths = (
{
closed = 1;
nodes = (
"614 686 LINE",
"555 686 LINE",
"314 402 LINE",
"310 402 LINE",
"152 686 LINE",
"87 686 LINE",
"273 359 LINE",
"-32 0 LINE",
"26 0 LINE",
"294 315 LINE",
"298 315 LINE",
"474 0 LINE",
"539 0 LINE",
"335 359 LINE"
);
}
);
};
layerId = "65EC8A7C-8A8B-4926-A170-31F830B4F708";
paths = (
{
closed = 1;
nodes = (
"614 686 LINE",
"555 686 LINE",
"314 402 LINE",
"310 402 LINE",
"152 686 LINE",
"87 686 LINE",
"273 359 LINE",
"-32 0 LINE",
"26 0 LINE",
"294 315 LINE",
"298 315 LINE",
"474 0 LINE",
"539 0 LINE",
"335 359 LINE"
);
}
);
width = 628;
}
);
unicode = 0058;
},
{
glyphname = Y;
lastChange = "2014-09-05 19:14:20 +0000";
layers = (
{
anchors = (
{
name = top;
position = "{326, 686}";
}
);
background = {
anchors = (
{
name = top;
position = "{346, 686}";
}
);
paths = (
{
closed = 1;
nodes = (
"595 686 LINE",
"540 686 LINE",
"275 321 LINE",
"270 321 LINE",
"112 686 LINE",
"49 686 LINE",
"236 266 LINE",
"198 0 LINE",
"252 0 LINE",
"290 266 LINE"
);
}
);
};
layerId = "65EC8A7C-8A8B-4926-A170-31F830B4F708";
paths = (
{
closed = 1;
nodes = (
"595 686 LINE",
"540 686 LINE",
"275 321 LINE",
"270 321 LINE",
"112 686 LINE",
"49 686 LINE",
"236 266 LINE",
"198 0 LINE",
"252 0 LINE",
"290 266 LINE"
);
}
);
width = 570;
}
);
unicode = 0059;
},
{
glyphname = Z;
lastChange = "2014-09-05 18:36:16 +0000";
layers = (
{
anchors = (
{
name = top;
position = "{359, 686}";
}
);
background = {
anchors = (
{
name = top;
position = "{359, 686}";
}
);
paths = (
{
closed = 1;
nodes = (
"494 0 LINE",
"501 48 LINE",
"79 48 LINE",
"579 662 LINE",
"583 686 LINE",
"112 686 LINE",
"105 638 LINE",
"494 638 LINE",
"-5 25 LINE",
"-9 0 LINE"
);
}
);
};
layerId = "65EC8A7C-8A8B-4926-A170-31F830B4F708";
paths = (
{
closed = 1;
nodes = (
"494 0 LINE",
"501 48 LINE",
"79 48 LINE",
"579 662 LINE",
"583 686 LINE",
"112 686 LINE",
"105 638 LINE",
"494 638 LINE",
"-5 25 LINE",
"-9 0 LINE"
);
}
);
width = 595;
}
);
unicode = 005A;
},
{
glyphname = bracketleft;
lastChange = "2014-09-05 18:36:16 +0000";
layers = (
{
background = {
paths = (
{
closed = 1;
nodes = (
"163 -161 LINE",
"168 -123 LINE",
"80 -123 LINE",
"189 648 LINE",
"277 648 LINE",
"282 686 LINE",
"141 686 LINE",
"22 -161 LINE"
);
}
);
};
layerId = "65EC8A7C-8A8B-4926-A170-31F830B4F708";
paths = (
{
closed = 1;
nodes = (
"163 -161 LINE",
"168 -123 LINE",
"80 -123 LINE",
"189 648 LINE",
"277 648 LINE",
"282 686 LINE",
"141 686 LINE",
"22 -161 LINE"
);
}
);
width = 294;
}
);
unicode = 005B;
},
{
glyphname = backslash;
lastChange = "2014-09-05 18:36:16 +0000";
layers = (
{
background = {
paths = (
{
closed = 1;
nodes = (
"423 0 LINE",
"128 686 LINE",
"68 686 LINE",
"363 0 LINE"
);
}
);
};
layerId = "65EC8A7C-8A8B-4926-A170-31F830B4F708";
paths = (
{
closed = 1;
nodes = (
"423 0 LINE",
"128 686 LINE",
"68 686 LINE",
"363 0 LINE"
);
}
);
width = 593;
}
);
unicode = 005C;
},
{
glyphname = bracketright;
lastChange = "2014-09-05 18:36:16 +0000";
layers = (
{
background = {
paths = (
{
closed = 1;
nodes = (
"117 -161 LINE",
"236 686 LINE",
"95 686 LINE",
"90 648 LINE",
"178 648 LINE",
"69 -123 LINE",
"-19 -123 LINE",
"-24 -161 LINE"
);
}
);
};
layerId = "65EC8A7C-8A8B-4926-A170-31F830B4F708";
paths = (
{
closed = 1;
nodes = (
"117 -161 LINE",
"236 686 LINE",
"95 686 LINE",
"90 648 LINE",
"178 648 LINE",
"69 -123 LINE",
"-19 -123 LINE",
"-24 -161 LINE"
);
}
);
width = 294;
}
);
unicode = 005D;
},
{
glyphname = asciicircum;
lastChange = "2014-09-05 18:36:16 +0000";
layers = (
{
background = {
paths = (
{
closed = 1;
nodes = (
"280 511 LINE",
"12 0 LINE",
"74 0 LINE",
"318 464 LINE",
"432 0 LINE",
"494 0 LINE",
"368 511 LINE"
);
}
);
};
layerId = "65EC8A7C-8A8B-4926-A170-31F830B4F708";
paths = (
{
closed = 1;
nodes = (
"280 511 LINE",
"12 0 LINE",
"74 0 LINE",
"318 464 LINE",
"432 0 LINE",
"494 0 LINE",
"368 511 LINE"
);
}
);
width = 596;
}
);
unicode = 005E;
},
{
glyphname = underscore;
lastChange = "2014-09-05 18:36:16 +0000";
layers = (
{
background = {
paths = (
{
closed = 1;
nodes = (
"534 -122 LINE",
"543 -64 LINE",
"43 -64 LINE",
"35 -122 LINE"
);
}
);
};
layerId = "65EC8A7C-8A8B-4926-A170-31F830B4F708";
paths = (
{
closed = 1;
nodes = (
"534 -122 LINE",
"543 -64 LINE",
"43 -64 LINE",
"35 -122 LINE"
);
}
);
width = 687;
}
);
unicode = 005F;
},
{
glyphname = grave;
lastChange = "2014-09-05 19:11:47 +0000";
layers = (
{
anchors = (
{
name = _top;
position = "{187, 511}";
}
);
background = {
anchors = (
{
name = _top;
position = "{127, 511}";
}
);
paths = (
{
closed = 1;
nodes = (
"217 575 LINE",
"142 720 LINE",
"77 720 LINE",
"76 717 LINE",
"167 575 LINE"
);
}
);
};
layerId = "65EC8A7C-8A8B-4926-A170-31F830B4F708";
paths = (
{
closed = 1;
nodes = (
"217 575 LINE",
"142 720 LINE",
"77 720 LINE",
"76 717 LINE",
"167 575 LINE"
);
}
);
width = 333;
}
);
unicode = 0060;
},
{
glyphname = a;
lastChange = "2014-09-05 19:14:31 +0000";
layers = (
{
anchors = (
{
name = ogonek;
position = "{500, 10}";
},
{
name = top;
position = "{280, 511}";
}
);
background = {
anchors = (
{
name = ogonek;
position = "{510, 10}";
},
{
name = top;
position = "{340, 511}";
}
);
paths = (
{
closed = 1;
nodes = (
"386 21 OFFCURVE",
"400 -10 OFFCURVE",
"444 -10 CURVE SMOOTH",
"467 -10 OFFCURVE",
"488 -3 OFFCURVE",
"507 9 CURVE",
"513 52 LINE",
"496 43 OFFCURVE",
"475 36 OFFCURVE",
"460 36 CURVE SMOOTH",
"447 36 OFFCURVE",
"437 43 OFFCURVE",
"437 61 CURVE SMOOTH",
"437 73 OFFCURVE",
"499 511 OFFCURVE",
"499 511 CURVE SMOOTH",
"466 511 LINE",
"442 440 LINE",
"438 440 LINE",
"412 490 OFFCURVE",
"359 521 OFFCURVE",
"287 521 CURVE SMOOTH",
"112 521 OFFCURVE",
"42 344 OFFCURVE",
"42 190 CURVE SMOOTH",
"42 50 OFFCURVE",
"115 -10 OFFCURVE",
"212 -10 CURVE SMOOTH",
"284 -10 OFFCURVE",
"342 15 OFFCURVE",
"387 69 CURVE",
"386 64 OFFCURVE",
"386 60 OFFCURVE",
"386 55 CURVE SMOOTH"
);
},
{
closed = 1;
nodes = (
"149 36 OFFCURVE",
"93 77 OFFCURVE",
"93 193 CURVE SMOOTH",
"93 316 OFFCURVE",
"142 475 OFFCURVE",
"285 475 CURVE SMOOTH",
"361 475 OFFCURVE",
"418 428 OFFCURVE",
"418 321 CURVE SMOOTH",
"418 187 OFFCURVE",
"368 36 OFFCURVE",
"224 36 CURVE SMOOTH"
);
}
);
};
layerId = "65EC8A7C-8A8B-4926-A170-31F830B4F708";
paths = (
{
closed = 1;
nodes = (
"386 21 OFFCURVE",
"400 -10 OFFCURVE",
"444 -10 CURVE SMOOTH",
"467 -10 OFFCURVE",
"488 -3 OFFCURVE",
"507 9 CURVE",
"513 52 LINE",
"496 43 OFFCURVE",
"475 36 OFFCURVE",
"460 36 CURVE SMOOTH",
"447 36 OFFCURVE",
"437 43 OFFCURVE",
"437 61 CURVE SMOOTH",
"437 73 OFFCURVE",
"499 511 OFFCURVE",
"499 511 CURVE SMOOTH",
"466 511 LINE",
"442 440 LINE",
"438 440 LINE",
"412 490 OFFCURVE",
"359 521 OFFCURVE",
"287 521 CURVE SMOOTH",
"112 521 OFFCURVE",
"42 344 OFFCURVE",
"42 190 CURVE SMOOTH",
"42 50 OFFCURVE",
"115 -10 OFFCURVE",
"212 -10 CURVE SMOOTH",
"284 -10 OFFCURVE",
"342 15 OFFCURVE",
"387 69 CURVE",
"386 64 OFFCURVE",
"386 60 OFFCURVE",
"386 55 CURVE SMOOTH"
);
},
{
closed = 1;
nodes = (
"149 36 OFFCURVE",
"93 77 OFFCURVE",
"93 193 CURVE SMOOTH",
"93 316 OFFCURVE",
"142 475 OFFCURVE",
"285 475 CURVE SMOOTH",
"361 475 OFFCURVE",
"418 428 OFFCURVE",
"418 321 CURVE SMOOTH",
"418 187 OFFCURVE",
"368 36 OFFCURVE",
"224 36 CURVE SMOOTH"
);
}
);
width = 607;
}
);
unicode = 0061;
},
{
glyphname = b;
lastChange = "2014-09-05 18:36:16 +0000";
layers = (
{
background = {
paths = (
{
closed = 1;
nodes = (
"194 720 LINE",
"143 720 LINE",
"42 0 LINE",
"63 0 LINE",
"94 85 LINE",
"123 21 OFFCURVE",
"176 -10 OFFCURVE",
"254 -10 CURVE SMOOTH",
"437 -10 OFFCURVE",
"501 190 OFFCURVE",
"501 324 CURVE SMOOTH",
"501 452 OFFCURVE",
"428 521 OFFCURVE",
"329 521 CURVE SMOOTH",
"257 521 OFFCURVE",
"194 490 OFFCURVE",
"154 440 CURVE"
);
},
{
closed = 1;
nodes = (
"392 475 OFFCURVE",
"449 428 OFFCURVE",
"449 322 CURVE SMOOTH",
"449 130 OFFCURVE",
"356 36 OFFCURVE",
"256 36 CURVE SMOOTH",
"182 36 OFFCURVE",
"123 74 OFFCURVE",
"123 192 CURVE SMOOTH",
"123 327 OFFCURVE",
"176 475 OFFCURVE",
"317 475 CURVE SMOOTH"
);
}
);
};
layerId = "65EC8A7C-8A8B-4926-A170-31F830B4F708";
paths = (
{
closed = 1;
nodes = (
"194 720 LINE",
"143 720 LINE",
"42 0 LINE",
"63 0 LINE",
"94 85 LINE",
"123 21 OFFCURVE",
"176 -10 OFFCURVE",
"254 -10 CURVE SMOOTH",
"437 -10 OFFCURVE",
"501 190 OFFCURVE",
"501 324 CURVE SMOOTH",
"501 452 OFFCURVE",
"428 521 OFFCURVE",
"329 521 CURVE SMOOTH",
"257 521 OFFCURVE",
"194 490 OFFCURVE",
"154 440 CURVE"
);
},
{
closed = 1;
nodes = (
"392 475 OFFCURVE",
"449 428 OFFCURVE",
"449 322 CURVE SMOOTH",
"449 130 OFFCURVE",
"356 36 OFFCURVE",
"256 36 CURVE SMOOTH",
"182 36 OFFCURVE",
"123 74 OFFCURVE",
"123 192 CURVE SMOOTH",
"123 327 OFFCURVE",
"176 475 OFFCURVE",
"317 475 CURVE SMOOTH"
);
}
);
width = 582;
}
);
unicode = 0062;
},
{
glyphname = c;
lastChange = "2014-09-05 19:14:37 +0000";
layers = (
{
anchors = (
{
name = bottom;
position = "{237, 0}";
},
{
name = top;
position = "{289, 511}";
}
);
background = {
anchors = (
{
name = bottom;
position = "{237, 0}";
},
{
name = top;
position = "{309, 511}";
}
);
paths = (
{
closed = 1;
nodes = (
"402 197 LINE",
"387 86 OFFCURVE",
"312 36 OFFCURVE",
"231 36 CURVE SMOOTH",
"151 36 OFFCURVE",
"93 87 OFFCURVE",
"93 192 CURVE SMOOTH",
"93 323 OFFCURVE",
"146 475 OFFCURVE",
"291 475 CURVE SMOOTH",
"364 475 OFFCURVE",
"421 433 OFFCURVE",
"421 346 CURVE SMOOTH",
"421 336 OFFCURVE",
"420 325 OFFCURVE",
"419 314 CURVE",
"469 314 LINE",
"471 327 OFFCURVE",
"471 339 OFFCURVE",
"471 351 CURVE SMOOTH",
"471 461 OFFCURVE",
"399 521 OFFCURVE",
"298 521 CURVE SMOOTH",
"121 521 OFFCURVE",
"42 350 OFFCURVE",
"42 191 CURVE SMOOTH",
"42 62 OFFCURVE",
"113 -10 OFFCURVE",
"224 -10 CURVE SMOOTH",
"336 -10 OFFCURVE",
"434 64 OFFCURVE",
"452 197 CURVE"
);
}
);
};
layerId = "65EC8A7C-8A8B-4926-A170-31F830B4F708";
paths = (
{
closed = 1;
nodes = (
"402 197 LINE",
"387 86 OFFCURVE",
"312 36 OFFCURVE",
"231 36 CURVE SMOOTH",
"151 36 OFFCURVE",
"93 87 OFFCURVE",
"93 192 CURVE SMOOTH",
"93 323 OFFCURVE",
"146 475 OFFCURVE",
"291 475 CURVE SMOOTH",
"364 475 OFFCURVE",
"421 433 OFFCURVE",
"421 346 CURVE SMOOTH",
"421 336 OFFCURVE",
"420 325 OFFCURVE",
"419 314 CURVE",
"469 314 LINE",
"471 327 OFFCURVE",
"471 339 OFFCURVE",
"471 351 CURVE SMOOTH",
"471 461 OFFCURVE",
"399 521 OFFCURVE",
"298 521 CURVE SMOOTH",
"121 521 OFFCURVE",
"42 350 OFFCURVE",
"42 191 CURVE SMOOTH",
"42 62 OFFCURVE",
"113 -10 OFFCURVE",
"224 -10 CURVE SMOOTH",
"336 -10 OFFCURVE",
"434 64 OFFCURVE",
"452 197 CURVE"
);
}
);
width = 546;
}
);
unicode = 0063;
},
{
glyphname = d;
lastChange = "2014-09-08 21:29:45 +0000";
layers = (
{
anchors = (
{
name = center;
position = "{342, 256}";
},
{
name = topright;
position = "{642, 686}";
}
);
background = {
anchors = (
{
name = center;
position = "{342, 256}";
},
{
name = topright;
position = "{628, 511}";
}
);
paths = (
{
closed = 1;
nodes = (
"386 21 OFFCURVE",
"400 -10 OFFCURVE",
"444 -10 CURVE SMOOTH",
"467 -10 OFFCURVE",
"488 -3 OFFCURVE",
"507 9 CURVE",
"513 52 LINE",
"496 43 OFFCURVE",
"475 36 OFFCURVE",
"460 36 CURVE SMOOTH",
"447 36 OFFCURVE",
"437 43 OFFCURVE",
"437 61 CURVE SMOOTH",
"437 73 OFFCURVE",
"529 720 OFFCURVE",
"529 720 CURVE SMOOTH",
"478 720 LINE",
"438 440 LINE",
"412 490 OFFCURVE",
"359 521 OFFCURVE",
"287 521 CURVE SMOOTH",
"112 521 OFFCURVE",
"42 344 OFFCURVE",
"42 190 CURVE SMOOTH",
"42 50 OFFCURVE",
"115 -10 OFFCURVE",
"212 -10 CURVE SMOOTH",
"284 -10 OFFCURVE",
"342 15 OFFCURVE",
"387 69 CURVE",
"386 64 OFFCURVE",
"386 60 OFFCURVE",
"386 55 CURVE SMOOTH"
);
},
{
closed = 1;
nodes = (
"149 36 OFFCURVE",
"93 77 OFFCURVE",
"93 193 CURVE SMOOTH",
"93 316 OFFCURVE",
"142 475 OFFCURVE",
"285 475 CURVE SMOOTH",
"361 475 OFFCURVE",
"418 428 OFFCURVE",
"418 321 CURVE SMOOTH",
"418 187 OFFCURVE",
"368 36 OFFCURVE",
"224 36 CURVE SMOOTH"
);
}
);
};
layerId = "65EC8A7C-8A8B-4926-A170-31F830B4F708";
paths = (
{
closed = 1;
nodes = (
"386 21 OFFCURVE",
"400 -10 OFFCURVE",
"444 -10 CURVE SMOOTH",
"467 -10 OFFCURVE",
"488 -3 OFFCURVE",
"507 9 CURVE",
"513 52 LINE",
"496 43 OFFCURVE",
"475 36 OFFCURVE",
"460 36 CURVE SMOOTH",
"447 36 OFFCURVE",
"437 43 OFFCURVE",
"437 61 CURVE SMOOTH",
"437 73 OFFCURVE",
"529 720 OFFCURVE",
"529 720 CURVE SMOOTH",
"478 720 LINE",
"438 440 LINE",
"412 490 OFFCURVE",
"359 521 OFFCURVE",
"287 521 CURVE SMOOTH",
"112 521 OFFCURVE",
"42 344 OFFCURVE",
"42 190 CURVE SMOOTH",
"42 50 OFFCURVE",
"115 -10 OFFCURVE",
"212 -10 CURVE SMOOTH",
"284 -10 OFFCURVE",
"342 15 OFFCURVE",
"387 69 CURVE",
"386 64 OFFCURVE",
"386 60 OFFCURVE",
"386 55 CURVE SMOOTH"
);
},
{
closed = 1;
nodes = (
"149 36 OFFCURVE",
"93 77 OFFCURVE",
"93 193 CURVE SMOOTH",
"93 316 OFFCURVE",
"142 475 OFFCURVE",
"285 475 CURVE SMOOTH",
"361 475 OFFCURVE",
"418 428 OFFCURVE",
"418 321 CURVE SMOOTH",
"418 187 OFFCURVE",
"368 36 OFFCURVE",
"224 36 CURVE SMOOTH"
);
}
);
width = 612;
}
);
unicode = 0064;
},
{
glyphname = e;
lastChange = "2014-09-05 19:14:47 +0000";
layers = (
{
anchors = (
{
name = bottom;
position = "{242, 0}";
},
{
name = ogonek;
position = "{304, 10}";
},
{
name = top;
position = "{284, 511}";
}
);
background = {
anchors = (
{
name = bottom;
position = "{242, 0}";
},
{
name = ogonek;
position = "{464, 10}";
},
{
name = top;
position = "{314, 511}";
}
);
paths = (
{
closed = 1;
nodes = (
"400 189 LINE",
"385 84 OFFCURVE",
"316 36 OFFCURVE",
"230 36 CURVE SMOOTH",
"150 36 OFFCURVE",
"92 87 OFFCURVE",
"92 192 CURVE SMOOTH",
"92 208 OFFCURVE",
"93 224 OFFCURVE",
"97 250 CURVE",
"459 250 LINE",
"466 280 OFFCURVE",
"470 339 OFFCURVE",
"470 351 CURVE SMOOTH",
"470 461 OFFCURVE",
"398 521 OFFCURVE",
"297 521 CURVE SMOOTH",
"118 521 OFFCURVE",
"41 348 OFFCURVE",
"41 191 CURVE SMOOTH",
"41 62 OFFCURVE",
"112 -10 OFFCURVE",
"223 -10 CURVE SMOOTH",
"342 -10 OFFCURVE",
"432 61 OFFCURVE",
"450 189 CURVE"
);
},
{
closed = 1;
nodes = (
"363 475 OFFCURVE",
"420 433 OFFCURVE",
"420 346 CURVE SMOOTH",
"420 336 OFFCURVE",
"420 325 OFFCURVE",
"415 296 CURVE",
"104 296 LINE",
"129 416 OFFCURVE",
"204 475 OFFCURVE",
"290 475 CURVE SMOOTH"
);
}
);
};
layerId = "65EC8A7C-8A8B-4926-A170-31F830B4F708";
paths = (
{
closed = 1;
nodes = (
"400 189 LINE",
"385 84 OFFCURVE",
"316 36 OFFCURVE",
"230 36 CURVE SMOOTH",
"150 36 OFFCURVE",
"92 87 OFFCURVE",
"92 192 CURVE SMOOTH",
"92 208 OFFCURVE",
"93 224 OFFCURVE",
"97 250 CURVE",
"459 250 LINE",
"466 280 OFFCURVE",
"470 339 OFFCURVE",
"470 351 CURVE SMOOTH",
"470 461 OFFCURVE",
"398 521 OFFCURVE",
"297 521 CURVE SMOOTH",
"118 521 OFFCURVE",
"41 348 OFFCURVE",
"41 191 CURVE SMOOTH",
"41 62 OFFCURVE",
"112 -10 OFFCURVE",
"223 -10 CURVE SMOOTH",
"342 -10 OFFCURVE",
"432 61 OFFCURVE",
"450 189 CURVE"
);
},
{
closed = 1;
nodes = (
"363 475 OFFCURVE",
"420 433 OFFCURVE",
"420 346 CURVE SMOOTH",
"420 336 OFFCURVE",
"420 325 OFFCURVE",
"415 296 CURVE",
"104 296 LINE",
"129 416 OFFCURVE",
"204 475 OFFCURVE",
"290 475 CURVE SMOOTH"
);
}
);
width = 556;
}
);
unicode = 0065;
},
{
glyphname = f;
lastChange = "2014-09-05 18:36:16 +0000";
layers = (
{
background = {
paths = (
{
closed = 1;
nodes = (
"52 -73 LINE SMOOTH",
"44 -132 OFFCURVE",
"14 -140 OFFCURVE",
"-14 -140 CURVE SMOOTH",
"-29 -140 OFFCURVE",
"-59 -131 OFFCURVE",
"-74 -124 CURVE",
"-80 -169 LINE",
"-65 -179 OFFCURVE",
"-40 -186 OFFCURVE",
"-15 -186 CURVE SMOOTH",
"51 -186 OFFCURVE",
"92 -152 OFFCURVE",
"103 -75 CURVE SMOOTH",
"179 465 LINE",
"298 465 LINE",
"304 511 LINE",
"185 511 LINE",
"200 615 LINE SMOOTH",
"208 674 OFFCURVE",
"238 682 OFFCURVE",
"266 682 CURVE SMOOTH",
"281 682 OFFCURVE",
"311 673 OFFCURVE",
"326 666 CURVE",
"332 711 LINE",
"317 721 OFFCURVE",
"292 728 OFFCURVE",
"267 728 CURVE SMOOTH",
"208 728 OFFCURVE",
"160 694 OFFCURVE",
"149 617 CURVE SMOOTH",
"134 511 LINE",
"78 511 LINE",
"72 465 LINE",
"128 465 LINE"
);
}
);
};
layerId = "65EC8A7C-8A8B-4926-A170-31F830B4F708";
paths = (
{
closed = 1;
nodes = (
"52 -73 LINE SMOOTH",
"44 -132 OFFCURVE",
"14 -140 OFFCURVE",
"-14 -140 CURVE SMOOTH",
"-29 -140 OFFCURVE",
"-59 -131 OFFCURVE",
"-74 -124 CURVE",
"-80 -169 LINE",
"-65 -179 OFFCURVE",
"-40 -186 OFFCURVE",
"-15 -186 CURVE SMOOTH",
"51 -186 OFFCURVE",
"92 -152 OFFCURVE",
"103 -75 CURVE SMOOTH",
"179 465 LINE",
"298 465 LINE",
"304 511 LINE",
"185 511 LINE",
"200 615 LINE SMOOTH",
"208 674 OFFCURVE",
"238 682 OFFCURVE",
"266 682 CURVE SMOOTH",
"281 682 OFFCURVE",
"311 673 OFFCURVE",
"326 666 CURVE",
"332 711 LINE",
"317 721 OFFCURVE",
"292 728 OFFCURVE",
"267 728 CURVE SMOOTH",
"208 728 OFFCURVE",
"160 694 OFFCURVE",
"149 617 CURVE SMOOTH",
"134 511 LINE",
"78 511 LINE",
"72 465 LINE",
"128 465 LINE"
);
}
);
width = 340;
}
);
unicode = 0066;
},
{
glyphname = g;
lastChange = "2014-09-05 19:14:55 +0000";
layers = (
{
anchors = (
{
name = top;
position = "{298, 511}";
}
);
background = {
anchors = (
{
name = top;
position = "{328, 511}";
}
);
paths = (
{
closed = 1;
nodes = (
"154 56 OFFCURVE",
"98 101 OFFCURVE",
"98 199 CURVE SMOOTH",
"98 328 OFFCURVE",
"150 475 OFFCURVE",
"291 475 CURVE SMOOTH",
"365 475 OFFCURVE",
"424 437 OFFCURVE",
"424 319 CURVE SMOOTH",
"424 195 OFFCURVE",
"374 56 OFFCURVE",
"230 56 CURVE SMOOTH"
);
},
{
closed = 1;
nodes = (
"21 -22 LINE",
"21 -96 OFFCURVE",
"72 -186 OFFCURVE",
"208 -186 CURVE SMOOTH",
"349 -186 OFFCURVE",
"418 -103 OFFCURVE",
"435 17 CURVE SMOOTH",
"505 511 LINE",
"484 511 LINE",
"453 426 LINE",
"424 490 OFFCURVE",
"371 521 OFFCURVE",
"293 521 CURVE SMOOTH",
"119 521 OFFCURVE",
"46 349 OFFCURVE",
"46 196 CURVE SMOOTH",
"46 77 OFFCURVE",
"119 10 OFFCURVE",
"218 10 CURVE SMOOTH",
"290 10 OFFCURVE",
"355 41 OFFCURVE",
"396 91 CURVE",
"384 8 LINE SMOOTH",
"370 -91 OFFCURVE",
"297 -139 OFFCURVE",
"215 -139 CURVE SMOOTH",
"146 -139 OFFCURVE",
"73 -106 OFFCURVE",
"73 -22 CURVE"
);
}
);
};
layerId = "65EC8A7C-8A8B-4926-A170-31F830B4F708";
paths = (
{
closed = 1;
nodes = (
"154 56 OFFCURVE",
"98 101 OFFCURVE",
"98 199 CURVE SMOOTH",
"98 328 OFFCURVE",
"150 475 OFFCURVE",
"291 475 CURVE SMOOTH",
"365 475 OFFCURVE",
"424 437 OFFCURVE",
"424 319 CURVE SMOOTH",
"424 195 OFFCURVE",
"374 56 OFFCURVE",
"230 56 CURVE SMOOTH"
);
},
{
closed = 1;
nodes = (
"21 -22 LINE",
"21 -96 OFFCURVE",
"72 -186 OFFCURVE",
"208 -186 CURVE SMOOTH",
"349 -186 OFFCURVE",
"418 -103 OFFCURVE",
"435 17 CURVE SMOOTH",
"505 511 LINE",
"484 511 LINE",
"453 426 LINE",
"424 490 OFFCURVE",
"371 521 OFFCURVE",
"293 521 CURVE SMOOTH",
"119 521 OFFCURVE",
"46 349 OFFCURVE",
"46 196 CURVE SMOOTH",
"46 77 OFFCURVE",
"119 10 OFFCURVE",
"218 10 CURVE SMOOTH",
"290 10 OFFCURVE",
"355 41 OFFCURVE",
"396 91 CURVE",
"384 8 LINE SMOOTH",
"370 -91 OFFCURVE",
"297 -139 OFFCURVE",
"215 -139 CURVE SMOOTH",
"146 -139 OFFCURVE",
"73 -106 OFFCURVE",
"73 -22 CURVE"
);
}
);
width = 583;
}
);
unicode = 0067;
},
{
glyphname = h;
lastChange = "2014-09-05 19:15:02 +0000";
layers = (
{
anchors = (
{
name = center;
position = "{293, 256}";
},
{
name = top;
position = "{168, 686}";
}
);
background = {
anchors = (
{
name = center;
position = "{333, 256}";
},
{
name = top;
position = "{333, 511}";
}
);
paths = (
{
closed = 1;
nodes = (
"445 0 LINE",
"493 343 OFFCURVE",
"494 335 OFFCURVE",
"494 368 CURVE SMOOTH",
"494 473 OFFCURVE",
"423 521 OFFCURVE",
"328 521 CURVE SMOOTH",
"269 521 OFFCURVE",
"197 493 OFFCURVE",
"155 439 CURVE",
"194 720 LINE",
"143 720 LINE",
"42 0 LINE",
"93 0 LINE",
"137 314 LINE SMOOTH",
"150 406 OFFCURVE",
"227 475 OFFCURVE",
"317 475 CURVE SMOOTH",
"395 475 OFFCURVE",
"441 437 OFFCURVE",
"441 354 CURVE SMOOTH",
"441 329 OFFCURVE",
"440 328 OFFCURVE",
"394 0 CURVE"
);
}
);
};
layerId = "65EC8A7C-8A8B-4926-A170-31F830B4F708";
paths = (
{
closed = 1;
nodes = (
"445 0 LINE",
"493 343 OFFCURVE",
"494 335 OFFCURVE",
"494 368 CURVE SMOOTH",
"494 473 OFFCURVE",
"423 521 OFFCURVE",
"328 521 CURVE SMOOTH",
"269 521 OFFCURVE",
"197 493 OFFCURVE",
"155 439 CURVE",
"194 720 LINE",
"143 720 LINE",
"42 0 LINE",
"93 0 LINE",
"137 314 LINE SMOOTH",
"150 406 OFFCURVE",
"227 475 OFFCURVE",
"317 475 CURVE SMOOTH",
"395 475 OFFCURVE",
"441 437 OFFCURVE",
"441 354 CURVE SMOOTH",
"441 329 OFFCURVE",
"440 328 OFFCURVE",
"394 0 CURVE"
);
}
);
width = 593;
}
);
unicode = 0068;
},
{
glyphname = i;
lastChange = "2014-09-05 18:36:16 +0000";
layers = (
{
background = {
paths = (
{
closed = 1;
nodes = (
"93 0 LINE",
"165 511 LINE",
"114 511 LINE",
"42 0 LINE"
);
},
{
closed = 1;
nodes = (
"132 666 LINE",
"191 666 LINE",
"198 720 LINE",
"139 720 LINE"
);
}
);
};
layerId = "65EC8A7C-8A8B-4926-A170-31F830B4F708";
paths = (
{
closed = 1;
nodes = (
"93 0 LINE",
"165 511 LINE",
"114 511 LINE",
"42 0 LINE"
);
},
{
closed = 1;
nodes = (
"132 666 LINE",
"191 666 LINE",
"198 720 LINE",
"139 720 LINE"
);
}
);
width = 260;
}
);
unicode = 0069;
},
{
glyphname = j;
lastChange = "2014-09-05 18:36:16 +0000";
layers = (
{
background = {
paths = (
{
closed = 1;
nodes = (
"136 666 LINE",
"195 666 LINE",
"202 720 LINE",
"143 720 LINE"
);
},
{
closed = 1;
nodes = (
"36 -73 LINE SMOOTH",
"28 -132 OFFCURVE",
"-4 -140 OFFCURVE",
"-30 -140 CURVE SMOOTH",
"-45 -140 OFFCURVE",
"-74 -131 OFFCURVE",
"-89 -124 CURVE",
"-96 -169 LINE",
"-80 -179 OFFCURVE",
"-55 -186 OFFCURVE",
"-30 -186 CURVE SMOOTH",
"29 -186 OFFCURVE",
"75 -152 OFFCURVE",
"86 -75 CURVE SMOOTH",
"169 511 LINE",
"118 511 LINE"
);
}
);
};
layerId = "65EC8A7C-8A8B-4926-A170-31F830B4F708";
paths = (
{
closed = 1;
nodes = (
"136 666 LINE",
"195 666 LINE",
"202 720 LINE",
"143 720 LINE"
);
},
{
closed = 1;
nodes = (
"36 -73 LINE SMOOTH",
"28 -132 OFFCURVE",
"-4 -140 OFFCURVE",
"-30 -140 CURVE SMOOTH",
"-45 -140 OFFCURVE",
"-74 -131 OFFCURVE",
"-89 -124 CURVE",
"-96 -169 LINE",
"-80 -179 OFFCURVE",
"-55 -186 OFFCURVE",
"-30 -186 CURVE SMOOTH",
"29 -186 OFFCURVE",
"75 -152 OFFCURVE",
"86 -75 CURVE SMOOTH",
"169 511 LINE",
"118 511 LINE"
);
}
);
width = 260;
}
);
unicode = 006A;
},
{
glyphname = k;
lastChange = "2014-09-05 18:36:16 +0000";
layers = (
{
anchors = (
{
name = bottom;
position = "{231, 0}";
}
);
background = {
anchors = (
{
name = bottom;
position = "{231, 0}";
}
);
paths = (
{
closed = 1;
nodes = (
"397 0 LINE",
"463 0 LINE",
"269 270 LINE",
"518 511 LINE",
"455 511 LINE",
"119 186 LINE",
"194 720 LINE",
"143 720 LINE",
"42 0 LINE",
"93 0 LINE",
"111 127 LINE",
"230 232 LINE"
);
}
);
};
layerId = "65EC8A7C-8A8B-4926-A170-31F830B4F708";
paths = (
{
closed = 1;
nodes = (
"397 0 LINE",
"463 0 LINE",
"269 270 LINE",
"518 511 LINE",
"455 511 LINE",
"119 186 LINE",
"194 720 LINE",
"143 720 LINE",
"42 0 LINE",
"93 0 LINE",
"111 127 LINE",
"230 232 LINE"
);
}
);
width = 534;
}
);
unicode = 006B;
},
{
glyphname = l;
lastChange = "2014-09-08 21:34:07 +0000";
layers = (
{
anchors = (
{
name = bottom;
position = "{72, 0}";
},
{
name = top;
position = "{170, 686}";
},
{
name = topright;
position = "{296, 686}";
}
);
background = {
anchors = (
{
name = bottom;
position = "{98, 0}";
},
{
name = top;
position = "{170, 511}";
},
{
name = topright;
position = "{284, 511}";
}
);
paths = (
{
closed = 1;
nodes = (
"97 0 LINE",
"198 720 LINE",
"147 720 LINE",
"46 0 LINE"
);
}
);
};
layerId = "65EC8A7C-8A8B-4926-A170-31F830B4F708";
paths = (
{
closed = 1;
nodes = (
"97 0 LINE",
"198 720 LINE",
"147 720 LINE",
"46 0 LINE"
);
}
);
width = 268;
}
);
unicode = 006C;
},
{
glyphname = m;
lastChange = "2014-09-05 18:36:16 +0000";
layers = (
{
background = {
paths = (
{
closed = 1;
nodes = (
"542 521 OFFCURVE",
"481 479 OFFCURVE",
"448 434 CURVE",
"426 493 OFFCURVE",
"372 521 OFFCURVE",
"306 521 CURVE SMOOTH",
"246 521 OFFCURVE",
"187 489 OFFCURVE",
"149 435 CURVE",
"149 511 LINE",
"114 511 LINE",
"42 0 LINE",
"93 0 LINE",
"137 314 LINE SMOOTH",
"150 406 OFFCURVE",
"216 475 OFFCURVE",
"296 475 CURVE SMOOTH",
"364 475 OFFCURVE",
"402 439 OFFCURVE",
"402 361 CURVE SMOOTH",
"402 329 OFFCURVE",
"400 331 OFFCURVE",
"354 0 CURVE",
"405 0 LINE",
"449 314 LINE SMOOTH",
"462 406 OFFCURVE",
"528 475 OFFCURVE",
"608 475 CURVE SMOOTH",
"676 475 OFFCURVE",
"714 439 OFFCURVE",
"714 361 CURVE SMOOTH",
"714 325 OFFCURVE",
"712 331 OFFCURVE",
"666 0 CURVE",
"717 0 LINE",
"765 344 OFFCURVE",
"766 334 OFFCURVE",
"766 371 CURVE SMOOTH",
"766 474 OFFCURVE",
"702 521 OFFCURVE",
"618 521 CURVE SMOOTH"
);
}
);
};
layerId = "65EC8A7C-8A8B-4926-A170-31F830B4F708";
paths = (
{
closed = 1;
nodes = (
"542 521 OFFCURVE",
"481 479 OFFCURVE",
"448 434 CURVE",
"426 493 OFFCURVE",
"372 521 OFFCURVE",
"306 521 CURVE SMOOTH",
"246 521 OFFCURVE",
"187 489 OFFCURVE",
"149 435 CURVE",
"149 511 LINE",
"114 511 LINE",
"42 0 LINE",
"93 0 LINE",
"137 314 LINE SMOOTH",
"150 406 OFFCURVE",
"216 475 OFFCURVE",
"296 475 CURVE SMOOTH",
"364 475 OFFCURVE",
"402 439 OFFCURVE",
"402 361 CURVE SMOOTH",
"402 329 OFFCURVE",
"400 331 OFFCURVE",
"354 0 CURVE",
"405 0 LINE",
"449 314 LINE SMOOTH",
"462 406 OFFCURVE",
"528 475 OFFCURVE",
"608 475 CURVE SMOOTH",
"676 475 OFFCURVE",
"714 439 OFFCURVE",
"714 361 CURVE SMOOTH",
"714 325 OFFCURVE",
"712 331 OFFCURVE",
"666 0 CURVE",
"717 0 LINE",
"765 344 OFFCURVE",
"766 334 OFFCURVE",
"766 371 CURVE SMOOTH",
"766 474 OFFCURVE",
"702 521 OFFCURVE",
"618 521 CURVE SMOOTH"
);
}
);
width = 867;
}
);
unicode = 006D;
},
{
glyphname = n;
lastChange = "2014-09-05 19:15:38 +0000";
layers = (
{
anchors = (
{
name = bottom;
position = "{244, 0}";
},
{
name = top;
position = "{323, 511}";
}
);
background = {
anchors = (
{
name = bottom;
position = "{261, 0}";
},
{
name = top;
position = "{333, 511}";
}
);
paths = (
{
closed = 1;
nodes = (
"444 0 LINE",
"492 343 OFFCURVE",
"493 345 OFFCURVE",
"493 368 CURVE SMOOTH",
"493 473 OFFCURVE",
"423 521 OFFCURVE",
"328 521 CURVE SMOOTH",
"261 521 OFFCURVE",
"191 489 OFFCURVE",
"148 435 CURVE",
"148 511 LINE",
"114 511 LINE",
"42 0 LINE",
"93 0 LINE",
"137 314 LINE SMOOTH",
"150 406 OFFCURVE",
"227 475 OFFCURVE",
"317 475 CURVE SMOOTH",
"395 475 OFFCURVE",
"441 437 OFFCURVE",
"441 354 CURVE SMOOTH",
"441 342 OFFCURVE",
"440 328 OFFCURVE",
"394 0 CURVE"
);
}
);
};
layerId = "65EC8A7C-8A8B-4926-A170-31F830B4F708";
paths = (
{
closed = 1;
nodes = (
"444 0 LINE",
"492 343 OFFCURVE",
"493 345 OFFCURVE",
"493 368 CURVE SMOOTH",
"493 473 OFFCURVE",
"423 521 OFFCURVE",
"328 521 CURVE SMOOTH",
"261 521 OFFCURVE",
"191 489 OFFCURVE",
"148 435 CURVE",
"148 511 LINE",
"114 511 LINE",
"42 0 LINE",
"93 0 LINE",
"137 314 LINE SMOOTH",
"150 406 OFFCURVE",
"227 475 OFFCURVE",
"317 475 CURVE SMOOTH",
"395 475 OFFCURVE",
"441 437 OFFCURVE",
"441 354 CURVE SMOOTH",
"441 342 OFFCURVE",
"440 328 OFFCURVE",
"394 0 CURVE"
);
}
);
width = 593;
}
);
unicode = 006E;
},
{
glyphname = o;
lastChange = "2014-09-05 19:15:30 +0000";
layers = (
{
anchors = (
{
name = top;
position = "{304, 511}";
}
);
background = {
anchors = (
{
name = top;
position = "{324, 511}";
}
);
paths = (
{
closed = 1;
nodes = (
"404 -10 OFFCURVE",
"484 159 OFFCURVE",
"484 319 CURVE SMOOTH",
"484 449 OFFCURVE",
"411 521 OFFCURVE",
"300 521 CURVE SMOOTH",
"121 521 OFFCURVE",
"41 352 OFFCURVE",
"41 192 CURVE SMOOTH",
"41 62 OFFCURVE",
"114 -10 OFFCURVE",
"225 -10 CURVE SMOOTH"
);
},
{
closed = 1;
nodes = (
"151 36 OFFCURVE",
"92 87 OFFCURVE",
"92 193 CURVE SMOOTH",
"92 324 OFFCURVE",
"148 475 OFFCURVE",
"293 475 CURVE SMOOTH",
"373 475 OFFCURVE",
"433 424 OFFCURVE",
"433 317 CURVE SMOOTH",
"433 183 OFFCURVE",
"376 36 OFFCURVE",
"232 36 CURVE SMOOTH"
);
}
);
};
layerId = "65EC8A7C-8A8B-4926-A170-31F830B4F708";
paths = (
{
closed = 1;
nodes = (
"404 -10 OFFCURVE",
"484 159 OFFCURVE",
"484 319 CURVE SMOOTH",
"484 449 OFFCURVE",
"411 521 OFFCURVE",
"300 521 CURVE SMOOTH",
"121 521 OFFCURVE",
"41 352 OFFCURVE",
"41 192 CURVE SMOOTH",
"41 62 OFFCURVE",
"114 -10 OFFCURVE",
"225 -10 CURVE SMOOTH"
);
},
{
closed = 1;
nodes = (
"151 36 OFFCURVE",
"92 87 OFFCURVE",
"92 193 CURVE SMOOTH",
"92 324 OFFCURVE",
"148 475 OFFCURVE",
"293 475 CURVE SMOOTH",
"373 475 OFFCURVE",
"433 424 OFFCURVE",
"433 317 CURVE SMOOTH",
"433 183 OFFCURVE",
"376 36 OFFCURVE",
"232 36 CURVE SMOOTH"
);
}
);
width = 576;
}
);
unicode = 006F;
},
{
glyphname = p;
lastChange = "2014-09-05 18:36:16 +0000";
layers = (
{
background = {
paths = (
{
closed = 1;
nodes = (
"148 511 LINE",
"114 511 LINE",
"17 -181 LINE",
"68 -181 LINE",
"104 71 LINE",
"130 21 OFFCURVE",
"183 -10 OFFCURVE",
"255 -10 CURVE SMOOTH",
"432 -10 OFFCURVE",
"500 166 OFFCURVE",
"500 321 CURVE SMOOTH",
"500 461 OFFCURVE",
"427 521 OFFCURVE",
"330 521 CURVE SMOOTH",
"255 521 OFFCURVE",
"195 493 OFFCURVE",
"149 434 CURVE"
);
},
{
closed = 1;
nodes = (
"392 475 OFFCURVE",
"449 434 OFFCURVE",
"449 317 CURVE SMOOTH",
"449 186 OFFCURVE",
"398 36 OFFCURVE",
"257 36 CURVE SMOOTH",
"181 36 OFFCURVE",
"123 83 OFFCURVE",
"123 190 CURVE SMOOTH",
"123 316 OFFCURVE",
"172 475 OFFCURVE",
"318 475 CURVE SMOOTH"
);
}
);
};
layerId = "65EC8A7C-8A8B-4926-A170-31F830B4F708";
paths = (
{
closed = 1;
nodes = (
"148 511 LINE",
"114 511 LINE",
"17 -181 LINE",
"68 -181 LINE",
"104 71 LINE",
"130 21 OFFCURVE",
"183 -10 OFFCURVE",
"255 -10 CURVE SMOOTH",
"432 -10 OFFCURVE",
"500 166 OFFCURVE",
"500 321 CURVE SMOOTH",
"500 461 OFFCURVE",
"427 521 OFFCURVE",
"330 521 CURVE SMOOTH",
"255 521 OFFCURVE",
"195 493 OFFCURVE",
"149 434 CURVE"
);
},
{
closed = 1;
nodes = (
"392 475 OFFCURVE",
"449 434 OFFCURVE",
"449 317 CURVE SMOOTH",
"449 186 OFFCURVE",
"398 36 OFFCURVE",
"257 36 CURVE SMOOTH",
"181 36 OFFCURVE",
"123 83 OFFCURVE",
"123 190 CURVE SMOOTH",
"123 316 OFFCURVE",
"172 475 OFFCURVE",
"318 475 CURVE SMOOTH"
);
}
);
width = 583;
}
);
unicode = 0070;
},
{
glyphname = q;
lastChange = "2014-09-05 18:36:16 +0000";
layers = (
{
background = {
paths = (
{
closed = 1;
nodes = (
"351 -180 LINE",
"402 -180 LINE",
"499 511 LINE",
"478 511 LINE",
"447 426 LINE",
"418 490 OFFCURVE",
"365 521 OFFCURVE",
"287 521 CURVE SMOOTH",
"113 521 OFFCURVE",
"40 335 OFFCURVE",
"40 186 CURVE SMOOTH",
"40 58 OFFCURVE",
"113 -10 OFFCURVE",
"212 -10 CURVE SMOOTH",
"284 -10 OFFCURVE",
"346 21 OFFCURVE",
"387 71 CURVE"
);
},
{
closed = 1;
nodes = (
"148 36 OFFCURVE",
"92 83 OFFCURVE",
"92 189 CURVE SMOOTH",
"92 322 OFFCURVE",
"144 475 OFFCURVE",
"285 475 CURVE SMOOTH",
"359 475 OFFCURVE",
"418 437 OFFCURVE",
"418 319 CURVE SMOOTH",
"418 185 OFFCURVE",
"368 36 OFFCURVE",
"224 36 CURVE SMOOTH"
);
}
);
};
layerId = "65EC8A7C-8A8B-4926-A170-31F830B4F708";
paths = (
{
closed = 1;
nodes = (
"351 -180 LINE",
"402 -180 LINE",
"499 511 LINE",
"478 511 LINE",
"447 426 LINE",
"418 490 OFFCURVE",
"365 521 OFFCURVE",
"287 521 CURVE SMOOTH",
"113 521 OFFCURVE",
"40 335 OFFCURVE",
"40 186 CURVE SMOOTH",
"40 58 OFFCURVE",
"113 -10 OFFCURVE",
"212 -10 CURVE SMOOTH",
"284 -10 OFFCURVE",
"346 21 OFFCURVE",
"387 71 CURVE"
);
},
{
closed = 1;
nodes = (
"148 36 OFFCURVE",
"92 83 OFFCURVE",
"92 189 CURVE SMOOTH",
"92 322 OFFCURVE",
"144 475 OFFCURVE",
"285 475 CURVE SMOOTH",
"359 475 OFFCURVE",
"418 437 OFFCURVE",
"418 319 CURVE SMOOTH",
"418 185 OFFCURVE",
"368 36 OFFCURVE",
"224 36 CURVE SMOOTH"
);
}
);
width = 582;
}
);
unicode = 0071;
},
{
glyphname = r;
lastChange = "2014-09-05 19:16:01 +0000";
layers = (
{
anchors = (
{
name = bottom;
position = "{68, 0}";
},
{
name = top;
position = "{148, 511}";
}
);
background = {
anchors = (
{
name = bottom;
position = "{209, 0}";
},
{
name = top;
position = "{281, 511}";
}
);
paths = (
{
closed = 1;
nodes = (
"440 328 LINE",
"441 327 OFFCURVE",
"447 361 OFFCURVE",
"447 383 CURVE SMOOTH",
"447 459 OFFCURVE",
"403 521 OFFCURVE",
"305 521 CURVE SMOOTH",
"194 521 OFFCURVE",
"148 435 OFFCURVE",
"148 435 CURVE",
"148 511 LINE",
"114 511 LINE",
"42 0 LINE",
"93 0 LINE",
"138 324 LINE SMOOTH",
"146 379 OFFCURVE",
"190 475 OFFCURVE",
"289 475 CURVE SMOOTH",
"373 475 OFFCURVE",
"397 418 OFFCURVE",
"397 368 CURVE SMOOTH",
"397 360 OFFCURVE",
"397 352 OFFCURVE",
"393 328 CURVE"
);
}
);
};
layerId = "65EC8A7C-8A8B-4926-A170-31F830B4F708";
paths = (
{
closed = 1;
nodes = (
"440 328 LINE",
"441 327 OFFCURVE",
"447 361 OFFCURVE",
"447 383 CURVE SMOOTH",
"447 459 OFFCURVE",
"403 521 OFFCURVE",
"305 521 CURVE SMOOTH",
"194 521 OFFCURVE",
"148 435 OFFCURVE",
"148 435 CURVE",
"148 511 LINE",
"114 511 LINE",
"42 0 LINE",
"93 0 LINE",
"138 324 LINE SMOOTH",
"146 379 OFFCURVE",
"190 475 OFFCURVE",
"289 475 CURVE SMOOTH",
"373 475 OFFCURVE",
"397 418 OFFCURVE",
"397 368 CURVE SMOOTH",
"397 360 OFFCURVE",
"397 352 OFFCURVE",
"393 328 CURVE"
);
}
);
width = 489;
}
);
unicode = 0072;
},
{
glyphname = s;
lastChange = "2014-09-05 19:16:07 +0000";
layers = (
{
anchors = (
{
name = bottom;
position = "{232, 0}";
},
{
name = top;
position = "{274, 511}";
}
);
background = {
anchors = (
{
name = bottom;
position = "{232, 0}";
},
{
name = top;
position = "{304, 511}";
}
);
paths = (
{
closed = 1;
nodes = (
"29 157 LINE",
"25 144 OFFCURVE",
"23 131 OFFCURVE",
"23 118 CURVE SMOOTH",
"23 66 OFFCURVE",
"64 -10 OFFCURVE",
"217 -10 CURVE SMOOTH",
"332 -10 OFFCURVE",
"439 31 OFFCURVE",
"439 155 CURVE SMOOTH",
"439 332 OFFCURVE",
"124 248 OFFCURVE",
"124 376 CURVE SMOOTH",
"124 393 OFFCURVE",
"132 475 OFFCURVE",
"276 475 CURVE SMOOTH",
"392 475 OFFCURVE",
"409 424 OFFCURVE",
"409 395 CURVE SMOOTH",
"409 382 OFFCURVE",
"406 371 OFFCURVE",
"406 369 CURVE",
"456 369 LINE",
"458 371 OFFCURVE",
"460 388 OFFCURVE",
"460 399 CURVE SMOOTH",
"460 456 OFFCURVE",
"413 521 OFFCURVE",
"282 521 CURVE SMOOTH",
"141 521 OFFCURVE",
"72 452 OFFCURVE",
"72 371 CURVE SMOOTH",
"72 193 OFFCURVE",
"387 288 OFFCURVE",
"387 149 CURVE SMOOTH",
"387 84 OFFCURVE",
"327 36 OFFCURVE",
"227 36 CURVE SMOOTH",
"132 36 OFFCURVE",
"75 68 OFFCURVE",
"75 128 CURVE SMOOTH",
"75 137 OFFCURVE",
"76 148 OFFCURVE",
"79 157 CURVE"
);
}
);
};
layerId = "65EC8A7C-8A8B-4926-A170-31F830B4F708";
paths = (
{
closed = 1;
nodes = (
"29 157 LINE",
"25 144 OFFCURVE",
"23 131 OFFCURVE",
"23 118 CURVE SMOOTH",
"23 66 OFFCURVE",
"64 -10 OFFCURVE",
"217 -10 CURVE SMOOTH",
"332 -10 OFFCURVE",
"439 31 OFFCURVE",
"439 155 CURVE SMOOTH",
"439 332 OFFCURVE",
"124 248 OFFCURVE",
"124 376 CURVE SMOOTH",
"124 393 OFFCURVE",
"132 475 OFFCURVE",
"276 475 CURVE SMOOTH",
"392 475 OFFCURVE",
"409 424 OFFCURVE",
"409 395 CURVE SMOOTH",
"409 382 OFFCURVE",
"406 371 OFFCURVE",
"406 369 CURVE",
"456 369 LINE",
"458 371 OFFCURVE",
"460 388 OFFCURVE",
"460 399 CURVE SMOOTH",
"460 456 OFFCURVE",
"413 521 OFFCURVE",
"282 521 CURVE SMOOTH",
"141 521 OFFCURVE",
"72 452 OFFCURVE",
"72 371 CURVE SMOOTH",
"72 193 OFFCURVE",
"387 288 OFFCURVE",
"387 149 CURVE SMOOTH",
"387 84 OFFCURVE",
"327 36 OFFCURVE",
"227 36 CURVE SMOOTH",
"132 36 OFFCURVE",
"75 68 OFFCURVE",
"75 128 CURVE SMOOTH",
"75 137 OFFCURVE",
"76 148 OFFCURVE",
"79 157 CURVE"
);
}
);
width = 536;
}
);
unicode = 0073;
},
{
glyphname = t;
lastChange = "2014-09-09 03:33:01 +0000";
layers = (
{
anchors = (
{
name = bottom;
position = "{136, 0}";
},
{
name = center;
position = "{115, 256}";
},
{
name = topright;
position = "{404, 686}";
}
);
background = {
anchors = (
{
name = bottom;
position = "{136, 0}";
},
{
name = center;
position = "{208, 256}";
},
{
name = topright;
position = "{360, 511}";
}
);
paths = (
{
closed = 1;
nodes = (
"230 52 LINE",
"213 45 OFFCURVE",
"181 36 OFFCURVE",
"166 36 CURVE SMOOTH",
"141 36 OFFCURVE",
"116 42 OFFCURVE",
"116 84 CURVE SMOOTH",
"116 90 OFFCURVE",
"117 96 OFFCURVE",
"118 103 CURVE SMOOTH",
"169 465 LINE",
"288 465 LINE",
"295 511 LINE",
"176 511 LINE",
"199 674 LINE",
"166 674 LINE",
"125 511 LINE",
"69 511 LINE",
"62 465 LINE",
"118 465 LINE",
"67 101 LINE SMOOTH",
"66 92 OFFCURVE",
"65 84 OFFCURVE",
"65 76 CURVE SMOOTH",
"65 17 OFFCURVE",
"101 -10 OFFCURVE",
"153 -10 CURVE SMOOTH",
"178 -10 OFFCURVE",
"205 -3 OFFCURVE",
"224 7 CURVE"
);
}
);
};
layerId = "65EC8A7C-8A8B-4926-A170-31F830B4F708";
paths = (
{
closed = 1;
nodes = (
"230 52 LINE",
"213 45 OFFCURVE",
"181 36 OFFCURVE",
"166 36 CURVE SMOOTH",
"141 36 OFFCURVE",
"116 42 OFFCURVE",
"116 84 CURVE SMOOTH",
"116 90 OFFCURVE",
"117 96 OFFCURVE",
"118 103 CURVE SMOOTH",
"169 465 LINE",
"288 465 LINE",
"295 511 LINE",
"176 511 LINE",
"199 674 LINE",
"166 674 LINE",
"125 511 LINE",
"69 511 LINE",
"62 465 LINE",
"118 465 LINE",
"67 101 LINE SMOOTH",
"66 92 OFFCURVE",
"65 84 OFFCURVE",
"65 76 CURVE SMOOTH",
"65 17 OFFCURVE",
"101 -10 OFFCURVE",
"153 -10 CURVE SMOOTH",
"178 -10 OFFCURVE",
"205 -3 OFFCURVE",
"224 7 CURVE"
);
}
);
width = 344;
}
);
unicode = 0074;
},
{
glyphname = u;
lastChange = "2014-09-05 19:16:50 +0000";
layers = (
{
anchors = (
{
name = ogonek;
position = "{519, 10}";
},
{
name = top;
position = "{309, 511}";
}
);
background = {
anchors = (
{
name = ogonek;
position = "{519, 10}";
},
{
name = top;
position = "{345, 511}";
}
);
paths = (
{
closed = 1;
nodes = (
"397 69 OFFCURVE",
"396 62 OFFCURVE",
"396 55 CURVE SMOOTH",
"396 21 OFFCURVE",
"410 -10 OFFCURVE",
"454 -10 CURVE SMOOTH",
"477 -10 OFFCURVE",
"498 -3 OFFCURVE",
"517 9 CURVE",
"523 52 LINE",
"506 43 OFFCURVE",
"485 36 OFFCURVE",
"470 36 CURVE SMOOTH",
"457 36 OFFCURVE",
"447 43 OFFCURVE",
"447 61 CURVE SMOOTH",
"447 73 OFFCURVE",
"510 511 OFFCURVE",
"510 511 CURVE SMOOTH",
"459 511 LINE",
"415 197 LINE SMOOTH",
"402 105 OFFCURVE",
"325 36 OFFCURVE",
"235 36 CURVE SMOOTH",
"157 36 OFFCURVE",
"111 68 OFFCURVE",
"111 157 CURVE SMOOTH",
"111 197 OFFCURVE",
"158 511 OFFCURVE",
"158 511 CURVE SMOOTH",
"107 511 LINE SMOOTH",
"107 511 OFFCURVE",
"58 188 OFFCURVE",
"58 142 CURVE SMOOTH",
"58 37 OFFCURVE",
"126 -10 OFFCURVE",
"221 -10 CURVE SMOOTH",
"288 -10 OFFCURVE",
"355 22 OFFCURVE",
"398 76 CURVE"
);
}
);
};
layerId = "65EC8A7C-8A8B-4926-A170-31F830B4F708";
paths = (
{
closed = 1;
nodes = (
"397 69 OFFCURVE",
"396 62 OFFCURVE",
"396 55 CURVE SMOOTH",
"396 21 OFFCURVE",
"410 -10 OFFCURVE",
"454 -10 CURVE SMOOTH",
"477 -10 OFFCURVE",
"498 -3 OFFCURVE",
"517 9 CURVE",
"523 52 LINE",
"506 43 OFFCURVE",
"485 36 OFFCURVE",
"470 36 CURVE SMOOTH",
"457 36 OFFCURVE",
"447 43 OFFCURVE",
"447 61 CURVE SMOOTH",
"447 73 OFFCURVE",
"510 511 OFFCURVE",
"510 511 CURVE SMOOTH",
"459 511 LINE",
"415 197 LINE SMOOTH",
"402 105 OFFCURVE",
"325 36 OFFCURVE",
"235 36 CURVE SMOOTH",
"157 36 OFFCURVE",
"111 68 OFFCURVE",
"111 157 CURVE SMOOTH",
"111 197 OFFCURVE",
"150 457 OFFCURVE",
"158 511 CURVE",
"107 511 LINE SMOOTH",
"107 511 OFFCURVE",
"58 188 OFFCURVE",
"58 142 CURVE SMOOTH",
"58 37 OFFCURVE",
"126 -10 OFFCURVE",
"221 -10 CURVE SMOOTH",
"288 -10 OFFCURVE",
"355 22 OFFCURVE",
"398 76 CURVE"
);
}
);
width = 617;
}
);
unicode = 0075;
},
{
glyphname = v;
lastChange = "2014-09-05 18:36:16 +0000";
layers = (
{
background = {
paths = (
{
closed = 1;
nodes = (
"501 511 LINE",
"451 511 LINE",
"215 74 LINE",
"211 74 LINE",
"98 511 LINE",
"43 511 LINE",
"178 0 LINE",
"223 0 LINE"
);
}
);
};
layerId = "65EC8A7C-8A8B-4926-A170-31F830B4F708";
paths = (
{
closed = 1;
nodes = (
"501 511 LINE",
"451 511 LINE",
"215 74 LINE",
"211 74 LINE",
"98 511 LINE",
"43 511 LINE",
"178 0 LINE",
"223 0 LINE"
);
}
);
width = 512;
}
);
unicode = 0076;
},
{
glyphname = w;
lastChange = "2014-09-05 19:17:01 +0000";
layers = (
{
anchors = (
{
name = top;
position = "{426, 511}";
}
);
background = {
anchors = (
{
name = top;
position = "{441, 511}";
}
);
paths = (
{
closed = 1;
nodes = (
"412 446 LINE",
"416 446 LINE",
"508 0 LINE",
"548 0 LINE",
"797 511 LINE",
"748 511 LINE",
"545 93 LINE",
"541 93 LINE",
"455 511 LINE",
"396 511 LINE",
"193 93 LINE",
"189 93 LINE",
"103 511 LINE",
"50 511 LINE",
"156 0 LINE",
"196 0 LINE"
);
}
);
};
layerId = "65EC8A7C-8A8B-4926-A170-31F830B4F708";
paths = (
{
closed = 1;
nodes = (
"412 446 LINE",
"416 446 LINE",
"508 0 LINE",
"548 0 LINE",
"797 511 LINE",
"748 511 LINE",
"545 93 LINE",
"541 93 LINE",
"455 511 LINE",
"396 511 LINE",
"193 93 LINE",
"189 93 LINE",
"103 511 LINE",
"50 511 LINE",
"156 0 LINE",
"196 0 LINE"
);
}
);
width = 809;
}
);
unicode = 0077;
},
{
glyphname = x;
lastChange = "2014-09-05 18:36:16 +0000";
layers = (
{
background = {
paths = (
{
closed = 1;
nodes = (
"414 0 LINE",
"260 262 LINE",
"476 511 LINE",
"418 511 LINE",
"242 303 LINE",
"238 303 LINE",
"119 511 LINE",
"55 511 LINE",
"202 262 LINE",
"-23 0 LINE",
"34 0 LINE",
"223 221 LINE",
"227 221 LINE",
"351 0 LINE"
);
}
);
};
layerId = "65EC8A7C-8A8B-4926-A170-31F830B4F708";
paths = (
{
closed = 1;
nodes = (
"414 0 LINE",
"260 262 LINE",
"476 511 LINE",
"418 511 LINE",
"242 303 LINE",
"238 303 LINE",
"119 511 LINE",
"55 511 LINE",
"202 262 LINE",
"-23 0 LINE",
"34 0 LINE",
"223 221 LINE",
"227 221 LINE",
"351 0 LINE"
);
}
);
width = 517;
}
);
unicode = 0078;
},
{
glyphname = y;
lastChange = "2014-09-05 19:17:07 +0000";
layers = (
{
anchors = (
{
name = top;
position = "{274, 511}";
}
);
background = {
anchors = (
{
name = top;
position = "{291, 511}";
}
);
paths = (
{
closed = 1;
nodes = (
"500 511 LINE",
"450 511 LINE",
"214 76 LINE",
"210 76 LINE",
"97 511 LINE",
"42 511 LINE",
"175 8 LINE",
"144 -48 LINE SMOOTH",
"122 -88 OFFCURVE",
"94 -140 OFFCURVE",
"40 -140 CURVE SMOOTH",
"22 -140 OFFCURVE",
"1 -132 OFFCURVE",
"-12 -126 CURVE",
"-19 -172 LINE",
"2 -182 OFFCURVE",
"21 -186 OFFCURVE",
"43 -186 CURVE SMOOTH",
"134 -186 OFFCURVE",
"170 -94 OFFCURVE",
"228 13 CURVE SMOOTH"
);
}
);
};
layerId = "65EC8A7C-8A8B-4926-A170-31F830B4F708";
paths = (
{
closed = 1;
nodes = (
"500 511 LINE",
"450 511 LINE",
"214 76 LINE",
"210 76 LINE",
"97 511 LINE",
"42 511 LINE",
"175 8 LINE",
"144 -48 LINE SMOOTH",
"122 -88 OFFCURVE",
"94 -140 OFFCURVE",
"40 -140 CURVE SMOOTH",
"22 -140 OFFCURVE",
"1 -132 OFFCURVE",
"-12 -126 CURVE",
"-19 -172 LINE",
"2 -182 OFFCURVE",
"21 -186 OFFCURVE",
"43 -186 CURVE SMOOTH",
"134 -186 OFFCURVE",
"170 -94 OFFCURVE",
"228 13 CURVE SMOOTH"
);
}
);
width = 510;
}
);
unicode = 0079;
},
{
glyphname = z;
lastChange = "2014-09-05 19:17:13 +0000";
layers = (
{
anchors = (
{
name = top;
position = "{258, 511}";
}
);
background = {
anchors = (
{
name = top;
position = "{268, 511}";
}
);
paths = (
{
closed = 1;
nodes = (
"356 0 LINE",
"362 46 LINE",
"76 46 LINE",
"416 487 LINE",
"419 511 LINE",
"84 511 LINE",
"78 465 LINE",
"338 465 LINE",
"-1 24 LINE",
"-4 0 LINE"
);
}
);
};
layerId = "65EC8A7C-8A8B-4926-A170-31F830B4F708";
paths = (
{
closed = 1;
nodes = (
"356 0 LINE",
"362 46 LINE",
"76 46 LINE",
"416 487 LINE",
"419 511 LINE",
"84 511 LINE",
"78 465 LINE",
"338 465 LINE",
"-1 24 LINE",
"-4 0 LINE"
);
}
);
width = 463;
}
);
unicode = 007A;
},
{
glyphname = braceleft;
lastChange = "2014-09-05 18:36:16 +0000";
layers = (
{
background = {
paths = (
{
closed = 1;
nodes = (
"76 268 LINE",
"142 268 OFFCURVE",
"163 306 OFFCURVE",
"174 371 CURVE SMOOTH",
"211 589 LINE SMOOTH",
"219 635 OFFCURVE",
"271 648 OFFCURVE",
"299 648 CURVE",
"304 686 LINE",
"246 686 OFFCURVE",
"169 669 OFFCURVE",
"156 574 CURVE SMOOTH",
"126 360 LINE SMOOTH",
"120 318 OFFCURVE",
"77 303 OFFCURVE",
"41 303 CURVE",
"30 224 LINE",
"64 224 OFFCURVE",
"99 211 OFFCURVE",
"99 175 CURVE SMOOTH",
"99 137 OFFCURVE",
"68 -14 OFFCURVE",
"68 -66 CURVE SMOOTH",
"68 -136 OFFCURVE",
"131 -159 OFFCURVE",
"185 -159 CURVE",
"190 -121 LINE",
"163 -121 OFFCURVE",
"119 -110 OFFCURVE",
"119 -70 CURVE SMOOTH",
"119 -27 OFFCURVE",
"145 131 OFFCURVE",
"145 190 CURVE SMOOTH",
"145 234 OFFCURVE",
"129 259 OFFCURVE",
"75 259 CURVE"
);
}
);
};
layerId = "65EC8A7C-8A8B-4926-A170-31F830B4F708";
paths = (
{
closed = 1;
nodes = (
"76 268 LINE",
"142 268 OFFCURVE",
"163 306 OFFCURVE",
"174 371 CURVE SMOOTH",
"211 589 LINE SMOOTH",
"219 635 OFFCURVE",
"271 648 OFFCURVE",
"299 648 CURVE",
"304 686 LINE",
"246 686 OFFCURVE",
"169 669 OFFCURVE",
"156 574 CURVE SMOOTH",
"126 360 LINE SMOOTH",
"120 318 OFFCURVE",
"77 303 OFFCURVE",
"41 303 CURVE",
"30 224 LINE",
"64 224 OFFCURVE",
"99 211 OFFCURVE",
"99 175 CURVE SMOOTH",
"99 137 OFFCURVE",
"68 -14 OFFCURVE",
"68 -66 CURVE SMOOTH",
"68 -136 OFFCURVE",
"131 -159 OFFCURVE",
"185 -159 CURVE",
"190 -121 LINE",
"163 -121 OFFCURVE",
"119 -110 OFFCURVE",
"119 -70 CURVE SMOOTH",
"119 -27 OFFCURVE",
"145 131 OFFCURVE",
"145 190 CURVE SMOOTH",
"145 234 OFFCURVE",
"129 259 OFFCURVE",
"75 259 CURVE"
);
}
);
width = 314;
}
);
unicode = 007B;
},
{
glyphname = bar;
lastChange = "2014-09-05 18:36:16 +0000";
layers = (
{
background = {
paths = (
{
closed = 1;
nodes = (
"154 -199 LINE",
"283 720 LINE",
"231 720 LINE",
"102 -199 LINE"
);
}
);
};
layerId = "65EC8A7C-8A8B-4926-A170-31F830B4F708";
paths = (
{
closed = 1;
nodes = (
"154 -199 LINE",
"283 720 LINE",
"231 720 LINE",
"102 -199 LINE"
);
}
);
width = 290;
}
);
unicode = 007C;
},
{
glyphname = braceright;
lastChange = "2014-09-05 18:36:16 +0000";
layers = (
{
background = {
paths = (
{
closed = 1;
nodes = (
"204 259 LINE",
"138 259 OFFCURVE",
"117 221 OFFCURVE",
"106 156 CURVE SMOOTH",
"69 -62 LINE SMOOTH",
"61 -108 OFFCURVE",
"9 -121 OFFCURVE",
"-19 -121 CURVE",
"-24 -159 LINE",
"34 -159 OFFCURVE",
"111 -142 OFFCURVE",
"124 -47 CURVE SMOOTH",
"154 167 LINE SMOOTH",
"160 209 OFFCURVE",
"203 224 OFFCURVE",
"239 224 CURVE",
"250 303 LINE",
"216 303 OFFCURVE",
"181 316 OFFCURVE",
"181 352 CURVE SMOOTH",
"181 390 OFFCURVE",
"212 541 OFFCURVE",
"212 593 CURVE SMOOTH",
"212 663 OFFCURVE",
"149 686 OFFCURVE",
"95 686 CURVE",
"90 648 LINE",
"117 648 OFFCURVE",
"161 637 OFFCURVE",
"161 597 CURVE SMOOTH",
"161 554 OFFCURVE",
"135 396 OFFCURVE",
"135 337 CURVE SMOOTH",
"135 293 OFFCURVE",
"151 268 OFFCURVE",
"205 268 CURVE"
);
}
);
};
layerId = "65EC8A7C-8A8B-4926-A170-31F830B4F708";
paths = (
{
closed = 1;
nodes = (
"204 259 LINE",
"138 259 OFFCURVE",
"117 221 OFFCURVE",
"106 156 CURVE SMOOTH",
"69 -62 LINE SMOOTH",
"61 -108 OFFCURVE",
"9 -121 OFFCURVE",
"-19 -121 CURVE",
"-24 -159 LINE",
"34 -159 OFFCURVE",
"111 -142 OFFCURVE",
"124 -47 CURVE SMOOTH",
"154 167 LINE SMOOTH",
"160 209 OFFCURVE",
"203 224 OFFCURVE",
"239 224 CURVE",
"250 303 LINE",
"216 303 OFFCURVE",
"181 316 OFFCURVE",
"181 352 CURVE SMOOTH",
"181 390 OFFCURVE",
"212 541 OFFCURVE",
"212 593 CURVE SMOOTH",
"212 663 OFFCURVE",
"149 686 OFFCURVE",
"95 686 CURVE",
"90 648 LINE",
"117 648 OFFCURVE",
"161 637 OFFCURVE",
"161 597 CURVE SMOOTH",
"161 554 OFFCURVE",
"135 396 OFFCURVE",
"135 337 CURVE SMOOTH",
"135 293 OFFCURVE",
"151 268 OFFCURVE",
"205 268 CURVE"
);
}
);
width = 314;
}
);
unicode = 007D;
},
{
glyphname = asciitilde;
lastChange = "2014-09-05 18:36:16 +0000";
layers = (
{
background = {
paths = (
{
closed = 1;
nodes = (
"638 374 LINE",
"638 374 OFFCURVE",
"559 296 OFFCURVE",
"464 296 CURVE SMOOTH",
"376 296 OFFCURVE",
"320 362 OFFCURVE",
"235 362 CURVE SMOOTH",
"140 362 OFFCURVE",
"61 284 OFFCURVE",
"61 284 CURVE",
"53 224 LINE",
"53 224 OFFCURVE",
"132 302 OFFCURVE",
"227 302 CURVE SMOOTH",
"315 302 OFFCURVE",
"371 236 OFFCURVE",
"456 236 CURVE SMOOTH",
"551 236 OFFCURVE",
"630 314 OFFCURVE",
"630 314 CURVE"
);
}
);
};
layerId = "65EC8A7C-8A8B-4926-A170-31F830B4F708";
paths = (
{
closed = 1;
nodes = (
"638 374 LINE",
"638 374 OFFCURVE",
"559 296 OFFCURVE",
"464 296 CURVE SMOOTH",
"376 296 OFFCURVE",
"320 362 OFFCURVE",
"235 362 CURVE SMOOTH",
"140 362 OFFCURVE",
"61 284 OFFCURVE",
"61 284 CURVE",
"53 224 LINE",
"53 224 OFFCURVE",
"132 302 OFFCURVE",
"227 302 CURVE SMOOTH",
"315 302 OFFCURVE",
"371 236 OFFCURVE",
"456 236 CURVE SMOOTH",
"551 236 OFFCURVE",
"630 314 OFFCURVE",
"630 314 CURVE"
);
}
);
width = 691;
}
);
unicode = 007E;
},
{
glyphname = exclamdown;
lastChange = "2014-09-05 18:36:16 +0000";
layers = (
{
background = {
paths = (
{
closed = 1;
nodes = (
"91 441 LINE",
"156 441 LINE",
"166 510 LINE",
"101 510 LINE"
);
},
{
closed = 1;
nodes = (
"3 -176 LINE",
"69 -176 LINE",
"135 369 LINE",
"93 369 LINE"
);
}
);
};
layerId = "65EC8A7C-8A8B-4926-A170-31F830B4F708";
paths = (
{
closed = 1;
nodes = (
"91 441 LINE",
"156 441 LINE",
"166 510 LINE",
"101 510 LINE"
);
},
{
closed = 1;
nodes = (
"3 -176 LINE",
"69 -176 LINE",
"135 369 LINE",
"93 369 LINE"
);
}
);
width = 254;
}
);
unicode = 00A1;
},
{
glyphname = cent;
lastChange = "2014-09-05 18:36:16 +0000";
layers = (
{
background = {
paths = (
{
closed = 1;
nodes = (
"428 285 LINE",
"413 174 OFFCURVE",
"338 124 OFFCURVE",
"257 124 CURVE SMOOTH",
"177 124 OFFCURVE",
"119 175 OFFCURVE",
"119 280 CURVE SMOOTH",
"119 411 OFFCURVE",
"172 563 OFFCURVE",
"317 563 CURVE SMOOTH",
"390 563 OFFCURVE",
"447 521 OFFCURVE",
"447 434 CURVE SMOOTH",
"447 424 OFFCURVE",
"446 413 OFFCURVE",
"445 402 CURVE",
"495 402 LINE",
"497 415 OFFCURVE",
"497 427 OFFCURVE",
"497 439 CURVE SMOOTH",
"497 542 OFFCURVE",
"433 602 OFFCURVE",
"341 608 CURVE",
"363 693 LINE",
"310 693 LINE",
"310 609 LINE",
"149 606 OFFCURVE",
"68 436 OFFCURVE",
"68 279 CURVE SMOOTH",
"68 156 OFFCURVE",
"132 84 OFFCURVE",
"235 78 CURVE",
"214 -6 LINE",
"266 -6 LINE",
"266 78 LINE",
"371 85 OFFCURVE",
"461 158 OFFCURVE",
"478 285 CURVE"
);
}
);
};
layerId = "65EC8A7C-8A8B-4926-A170-31F830B4F708";
paths = (
{
closed = 1;
nodes = (
"428 285 LINE",
"413 174 OFFCURVE",
"338 124 OFFCURVE",
"257 124 CURVE SMOOTH",
"177 124 OFFCURVE",
"119 175 OFFCURVE",
"119 280 CURVE SMOOTH",
"119 411 OFFCURVE",
"172 563 OFFCURVE",
"317 563 CURVE SMOOTH",
"390 563 OFFCURVE",
"447 521 OFFCURVE",
"447 434 CURVE SMOOTH",
"447 424 OFFCURVE",
"446 413 OFFCURVE",
"445 402 CURVE",
"495 402 LINE",
"497 415 OFFCURVE",
"497 427 OFFCURVE",
"497 439 CURVE SMOOTH",
"497 542 OFFCURVE",
"433 602 OFFCURVE",
"341 608 CURVE",
"363 693 LINE",
"310 693 LINE",
"310 609 LINE",
"149 606 OFFCURVE",
"68 436 OFFCURVE",
"68 279 CURVE SMOOTH",
"68 156 OFFCURVE",
"132 84 OFFCURVE",
"235 78 CURVE",
"214 -6 LINE",
"266 -6 LINE",
"266 78 LINE",
"371 85 OFFCURVE",
"461 158 OFFCURVE",
"478 285 CURVE"
);
}
);
width = 527;
}
);
unicode = 00A2;
},
{
glyphname = sterling;
lastChange = "2014-09-05 18:36:16 +0000";
layers = (
{
background = {
paths = (
{
closed = 1;
nodes = (
"32 314 LINE",
"171 314 LINE",
"134 48 LINE",
"33 48 LINE",
"26 0 LINE",
"492 0 LINE",
"499 48 LINE",
"175 48 LINE",
"220 277 LINE",
"225 314 LINE",
"453 314 LINE",
"460 362 LINE",
"232 362 LINE",
"254 518 LINE SMOOTH",
"267 612 OFFCURVE",
"335 652 OFFCURVE",
"412 652 CURVE SMOOTH",
"481 652 OFFCURVE",
"534 620 OFFCURVE",
"534 544 CURVE SMOOTH",
"534 536 OFFCURVE",
"534 527 OFFCURVE",
"530 505 CURVE",
"580 505 LINE",
"585 535 OFFCURVE",
"585 545 OFFCURVE",
"585 555 CURVE SMOOTH",
"585 650 OFFCURVE",
"516 700 OFFCURVE",
"419 700 CURVE SMOOTH",
"312 700 OFFCURVE",
"217 640 OFFCURVE",
"201 524 CURVE SMOOTH",
"178 362 LINE",
"39 362 LINE"
);
}
);
};
layerId = "65EC8A7C-8A8B-4926-A170-31F830B4F708";
paths = (
{
closed = 1;
nodes = (
"32 314 LINE",
"171 314 LINE",
"134 48 LINE",
"33 48 LINE",
"26 0 LINE",
"492 0 LINE",
"499 48 LINE",
"175 48 LINE",
"220 277 LINE",
"225 314 LINE",
"453 314 LINE",
"460 362 LINE",
"232 362 LINE",
"254 518 LINE SMOOTH",
"267 612 OFFCURVE",
"335 652 OFFCURVE",
"412 652 CURVE SMOOTH",
"481 652 OFFCURVE",
"534 620 OFFCURVE",
"534 544 CURVE SMOOTH",
"534 536 OFFCURVE",
"534 527 OFFCURVE",
"530 505 CURVE",
"580 505 LINE",
"585 535 OFFCURVE",
"585 545 OFFCURVE",
"585 555 CURVE SMOOTH",
"585 650 OFFCURVE",
"516 700 OFFCURVE",
"419 700 CURVE SMOOTH",
"312 700 OFFCURVE",
"217 640 OFFCURVE",
"201 524 CURVE SMOOTH",
"178 362 LINE",
"39 362 LINE"
);
}
);
width = 597;
}
);
unicode = 00A3;
},
{
glyphname = currency;
lastChange = "2014-09-05 18:36:16 +0000";
layers = (
{
background = {
paths = (
{
closed = 1;
nodes = (
"562 586 LINE",
"498 530 LINE",
"461 566 OFFCURVE",
"409 584 OFFCURVE",
"353 584 CURVE SMOOTH",
"297 584 OFFCURVE",
"241 566 OFFCURVE",
"194 530 CURVE",
"146 586 LINE",
"98 544 LINE",
"145 490 LINE",
"92 438 OFFCURVE",
"68 364 OFFCURVE",
"68 296 CURVE SMOOTH",
"68 254 OFFCURVE",
"78 214 OFFCURVE",
"102 182 CURVE",
"40 128 LINE",
"75 86 LINE",
"139 142 LINE",
"176 106 OFFCURVE",
"228 88 OFFCURVE",
"284 88 CURVE SMOOTH",
"340 88 OFFCURVE",
"396 106 OFFCURVE",
"443 142 CURVE",
"491 86 LINE",
"539 128 LINE",
"492 182 LINE",
"544 233 OFFCURVE",
"569 305 OFFCURVE",
"569 373 CURVE SMOOTH",
"569 416 OFFCURVE",
"559 457 OFFCURVE",
"535 490 CURVE",
"598 544 LINE"
);
},
{
closed = 1;
nodes = (
"445 535 OFFCURVE",
"520 460 OFFCURVE",
"520 363 CURVE SMOOTH",
"520 241 OFFCURVE",
"406 136 OFFCURVE",
"290 136 CURVE SMOOTH",
"191 136 OFFCURVE",
"117 211 OFFCURVE",
"117 308 CURVE SMOOTH",
"117 430 OFFCURVE",
"228 535 OFFCURVE",
"346 535 CURVE SMOOTH"
);
}
);
};
layerId = "65EC8A7C-8A8B-4926-A170-31F830B4F708";
paths = (
{
closed = 1;
nodes = (
"562 586 LINE",
"498 530 LINE",
"461 566 OFFCURVE",
"409 584 OFFCURVE",
"353 584 CURVE SMOOTH",
"297 584 OFFCURVE",
"241 566 OFFCURVE",
"194 530 CURVE",
"146 586 LINE",
"98 544 LINE",
"145 490 LINE",
"92 438 OFFCURVE",
"68 364 OFFCURVE",
"68 296 CURVE SMOOTH",
"68 254 OFFCURVE",
"78 214 OFFCURVE",
"102 182 CURVE",
"40 128 LINE",
"75 86 LINE",
"139 142 LINE",
"176 106 OFFCURVE",
"228 88 OFFCURVE",
"284 88 CURVE SMOOTH",
"340 88 OFFCURVE",
"396 106 OFFCURVE",
"443 142 CURVE",
"491 86 LINE",
"539 128 LINE",
"492 182 LINE",
"544 233 OFFCURVE",
"569 305 OFFCURVE",
"569 373 CURVE SMOOTH",
"569 416 OFFCURVE",
"559 457 OFFCURVE",
"535 490 CURVE",
"598 544 LINE"
);
},
{
closed = 1;
nodes = (
"445 535 OFFCURVE",
"520 460 OFFCURVE",
"520 363 CURVE SMOOTH",
"520 241 OFFCURVE",
"406 136 OFFCURVE",
"290 136 CURVE SMOOTH",
"191 136 OFFCURVE",
"117 211 OFFCURVE",
"117 308 CURVE SMOOTH",
"117 430 OFFCURVE",
"228 535 OFFCURVE",
"346 535 CURVE SMOOTH"
);
}
);
width = 624;
}
);
unicode = 00A4;
},
{
glyphname = yen;
lastChange = "2014-09-05 18:36:16 +0000";
layers = (
{
background = {
paths = (
{
closed = 1;
nodes = (
"69 384 LINE",
"220 384 LINE",
"260 295 LINE",
"57 295 LINE",
"50 248 LINE",
"270 248 LINE",
"235 0 LINE",
"289 0 LINE",
"324 248 LINE",
"544 248 LINE",
"551 295 LINE",
"348 295 LINE",
"412 384 LINE",
"563 384 LINE",
"570 433 LINE",
"447 433 LINE",
"632 686 LINE",
"577 686 LINE",
"312 321 LINE",
"307 321 LINE",
"149 686 LINE",
"86 686 LINE",
"198 433 LINE",
"76 433 LINE"
);
}
);
};
layerId = "65EC8A7C-8A8B-4926-A170-31F830B4F708";
paths = (
{
closed = 1;
nodes = (
"69 384 LINE",
"220 384 LINE",
"260 295 LINE",
"57 295 LINE",
"50 248 LINE",
"270 248 LINE",
"235 0 LINE",
"289 0 LINE",
"324 248 LINE",
"544 248 LINE",
"551 295 LINE",
"348 295 LINE",
"412 384 LINE",
"563 384 LINE",
"570 433 LINE",
"447 433 LINE",
"632 686 LINE",
"577 686 LINE",
"312 321 LINE",
"307 321 LINE",
"149 686 LINE",
"86 686 LINE",
"198 433 LINE",
"76 433 LINE"
);
}
);
width = 635;
}
);
unicode = 00A5;
},
{
glyphname = brokenbar;
lastChange = "2014-09-05 18:36:16 +0000";
layers = (
{
background = {
paths = (
{
closed = 1;
nodes = (
"49 0 LINE",
"114 0 LINE",
"151 262 LINE",
"86 262 LINE"
);
},
{
closed = 1;
nodes = (
"109 424 LINE",
"174 424 LINE",
"211 686 LINE",
"146 686 LINE"
);
}
);
};
layerId = "65EC8A7C-8A8B-4926-A170-31F830B4F708";
paths = (
{
closed = 1;
nodes = (
"49 0 LINE",
"114 0 LINE",
"151 262 LINE",
"86 262 LINE"
);
},
{
closed = 1;
nodes = (
"109 424 LINE",
"174 424 LINE",
"211 686 LINE",
"146 686 LINE"
);
}
);
width = 269;
}
);
unicode = 00A6;
},
{
glyphname = section;
lastChange = "2014-09-05 18:36:16 +0000";
layers = (
{
background = {
paths = (
{
closed = 1;
nodes = (
"450 398 OFFCURVE",
"145 406 OFFCURVE",
"145 535 CURVE SMOOTH",
"145 621 OFFCURVE",
"230 650 OFFCURVE",
"298 650 CURVE SMOOTH",
"416 650 OFFCURVE",
"431 597 OFFCURVE",
"431 568 CURVE SMOOTH",
"431 564 OFFCURVE",
"431 560 OFFCURVE",
"428 544 CURVE",
"478 544 LINE",
"479 546 OFFCURVE",
"482 562 OFFCURVE",
"482 573 CURVE SMOOTH",
"482 630 OFFCURVE",
"438 696 OFFCURVE",
"313 696 CURVE SMOOTH",
"167 696 OFFCURVE",
"92 616 OFFCURVE",
"92 526 CURVE SMOOTH",
"92 473 OFFCURVE",
"124 438 OFFCURVE",
"165 411 CURVE",
"88 372 OFFCURVE",
"42 327 OFFCURVE",
"42 254 CURVE SMOOTH",
"42 112 OFFCURVE",
"347 105 OFFCURVE",
"347 -25 CURVE SMOOTH",
"347 -109 OFFCURVE",
"264 -139 OFFCURVE",
"194 -139 CURVE SMOOTH",
"76 -139 OFFCURVE",
"61 -87 OFFCURVE",
"61 -58 CURVE SMOOTH",
"61 -53 OFFCURVE",
"61 -49 OFFCURVE",
"64 -33 CURVE",
"14 -33 LINE",
"13 -35 OFFCURVE",
"10 -51 OFFCURVE",
"10 -62 CURVE SMOOTH",
"10 -119 OFFCURVE",
"54 -185 OFFCURVE",
"179 -185 CURVE SMOOTH",
"325 -185 OFFCURVE",
"399 -106 OFFCURVE",
"399 -15 CURVE SMOOTH",
"399 37 OFFCURVE",
"368 72 OFFCURVE",
"326 100 CURVE",
"396 133 OFFCURVE",
"450 182 OFFCURVE",
"450 257 CURVE SMOOTH"
);
},
{
closed = 1;
nodes = (
"206 165 OFFCURVE",
"95 192 OFFCURVE",
"95 268 CURVE SMOOTH",
"95 341 OFFCURVE",
"160 376 OFFCURVE",
"197 392 CURVE",
"285 345 OFFCURVE",
"397 318 OFFCURVE",
"397 242 CURVE SMOOTH",
"397 181 OFFCURVE",
"344 140 OFFCURVE",
"294 118 CURVE"
);
}
);
};
layerId = "65EC8A7C-8A8B-4926-A170-31F830B4F708";
paths = (
{
closed = 1;
nodes = (
"450 398 OFFCURVE",
"145 406 OFFCURVE",
"145 535 CURVE SMOOTH",
"145 621 OFFCURVE",
"230 650 OFFCURVE",
"298 650 CURVE SMOOTH",
"416 650 OFFCURVE",
"431 597 OFFCURVE",
"431 568 CURVE SMOOTH",
"431 564 OFFCURVE",
"431 560 OFFCURVE",
"428 544 CURVE",
"478 544 LINE",
"479 546 OFFCURVE",
"482 562 OFFCURVE",
"482 573 CURVE SMOOTH",
"482 630 OFFCURVE",
"438 696 OFFCURVE",
"313 696 CURVE SMOOTH",
"167 696 OFFCURVE",
"92 616 OFFCURVE",
"92 526 CURVE SMOOTH",
"92 473 OFFCURVE",
"124 438 OFFCURVE",
"165 411 CURVE",
"88 372 OFFCURVE",
"42 327 OFFCURVE",
"42 254 CURVE SMOOTH",
"42 112 OFFCURVE",
"347 105 OFFCURVE",
"347 -25 CURVE SMOOTH",
"347 -109 OFFCURVE",
"264 -139 OFFCURVE",
"194 -139 CURVE SMOOTH",
"76 -139 OFFCURVE",
"61 -87 OFFCURVE",
"61 -58 CURVE SMOOTH",
"61 -53 OFFCURVE",
"61 -49 OFFCURVE",
"64 -33 CURVE",
"14 -33 LINE",
"13 -35 OFFCURVE",
"10 -51 OFFCURVE",
"10 -62 CURVE SMOOTH",
"10 -119 OFFCURVE",
"54 -185 OFFCURVE",
"179 -185 CURVE SMOOTH",
"325 -185 OFFCURVE",
"399 -106 OFFCURVE",
"399 -15 CURVE SMOOTH",
"399 37 OFFCURVE",
"368 72 OFFCURVE",
"326 100 CURVE",
"396 133 OFFCURVE",
"450 182 OFFCURVE",
"450 257 CURVE SMOOTH"
);
},
{
closed = 1;
nodes = (
"206 165 OFFCURVE",
"95 192 OFFCURVE",
"95 268 CURVE SMOOTH",
"95 341 OFFCURVE",
"160 376 OFFCURVE",
"197 392 CURVE",
"285 345 OFFCURVE",
"397 318 OFFCURVE",
"397 242 CURVE SMOOTH",
"397 181 OFFCURVE",
"344 140 OFFCURVE",
"294 118 CURVE"
);
}
);
width = 516;
}
);
unicode = 00A7;
},
{
glyphname = dieresis;
lastChange = "2014-09-05 18:36:16 +0000";
layers = (
{
anchors = (
{
name = _top;
position = "{173, 511}";
}
);
background = {
anchors = (
{
name = _top;
position = "{173, 511}";
}
);
paths = (
{
closed = 1;
nodes = (
"73 651 LINE",
"138 651 LINE",
"147 720 LINE",
"82 720 LINE"
);
},
{
closed = 1;
nodes = (
"249 651 LINE",
"314 651 LINE",
"323 720 LINE",
"258 720 LINE"
);
}
);
};
layerId = "65EC8A7C-8A8B-4926-A170-31F830B4F708";
paths = (
{
closed = 1;
nodes = (
"73 651 LINE",
"138 651 LINE",
"147 720 LINE",
"82 720 LINE"
);
},
{
closed = 1;
nodes = (
"249 651 LINE",
"314 651 LINE",
"323 720 LINE",
"258 720 LINE"
);
}
);
width = 440;
}
);
unicode = 00A8;
},
{
glyphname = copyright;
lastChange = "2014-09-05 18:36:16 +0000";
layers = (
{
background = {
paths = (
{
closed = 1;
nodes = (
"527 394 LINE",
"563 394 LINE",
"563 509 OFFCURVE",
"492 558 OFFCURVE",
"404 558 CURVE SMOOTH",
"314 558 OFFCURVE",
"241 510 OFFCURVE",
"241 393 CURVE SMOOTH",
"241 294 LINE SMOOTH",
"241 176 OFFCURVE",
"314 129 OFFCURVE",
"404 129 CURVE SMOOTH",
"492 129 OFFCURVE",
"563 177 OFFCURVE",
"563 292 CURVE",
"528 292 LINE",
"528 207 OFFCURVE",
"476 165 OFFCURVE",
"404 165 CURVE SMOOTH",
"336 165 OFFCURVE",
"281 202 OFFCURVE",
"281 287 CURVE SMOOTH",
"281 401 LINE SMOOTH",
"281 484 OFFCURVE",
"336 522 OFFCURVE",
"404 522 CURVE SMOOTH",
"471 522 OFFCURVE",
"527 484 OFFCURVE",
"527 401 CURVE SMOOTH"
);
},
{
closed = 1;
nodes = (
"754 539 OFFCURVE",
"595 696 OFFCURVE",
"400 696 CURVE SMOOTH",
"204 696 OFFCURVE",
"46 539 OFFCURVE",
"46 344 CURVE SMOOTH",
"46 147 OFFCURVE",
"204 -10 OFFCURVE",
"400 -10 CURVE SMOOTH",
"595 -10 OFFCURVE",
"754 147 OFFCURVE",
"754 344 CURVE SMOOTH"
);
},
{
closed = 1;
nodes = (
"728 162 OFFCURVE",
"580 16 OFFCURVE",
"400 16 CURVE SMOOTH",
"219 16 OFFCURVE",
"72 162 OFFCURVE",
"72 344 CURVE SMOOTH",
"72 524 OFFCURVE",
"219 670 OFFCURVE",
"400 670 CURVE SMOOTH",
"580 670 OFFCURVE",
"728 524 OFFCURVE",
"728 344 CURVE SMOOTH"
);
}
);
};
layerId = "65EC8A7C-8A8B-4926-A170-31F830B4F708";
paths = (
{
closed = 1;
nodes = (
"527 394 LINE",
"563 394 LINE",
"563 509 OFFCURVE",
"492 558 OFFCURVE",
"404 558 CURVE SMOOTH",
"314 558 OFFCURVE",
"241 510 OFFCURVE",
"241 393 CURVE SMOOTH",
"241 294 LINE SMOOTH",
"241 176 OFFCURVE",
"314 129 OFFCURVE",
"404 129 CURVE SMOOTH",
"492 129 OFFCURVE",
"563 177 OFFCURVE",
"563 292 CURVE",
"528 292 LINE",
"528 207 OFFCURVE",
"476 165 OFFCURVE",
"404 165 CURVE SMOOTH",
"336 165 OFFCURVE",
"281 202 OFFCURVE",
"281 287 CURVE SMOOTH",
"281 401 LINE SMOOTH",
"281 484 OFFCURVE",
"336 522 OFFCURVE",
"404 522 CURVE SMOOTH",
"471 522 OFFCURVE",
"527 484 OFFCURVE",
"527 401 CURVE SMOOTH"
);
},
{
closed = 1;
nodes = (
"754 539 OFFCURVE",
"595 696 OFFCURVE",
"400 696 CURVE SMOOTH",
"204 696 OFFCURVE",
"46 539 OFFCURVE",
"46 344 CURVE SMOOTH",
"46 147 OFFCURVE",
"204 -10 OFFCURVE",
"400 -10 CURVE SMOOTH",
"595 -10 OFFCURVE",
"754 147 OFFCURVE",
"754 344 CURVE SMOOTH"
);
},
{
closed = 1;
nodes = (
"728 162 OFFCURVE",
"580 16 OFFCURVE",
"400 16 CURVE SMOOTH",
"219 16 OFFCURVE",
"72 162 OFFCURVE",
"72 344 CURVE SMOOTH",
"72 524 OFFCURVE",
"219 670 OFFCURVE",
"400 670 CURVE SMOOTH",
"580 670 OFFCURVE",
"728 524 OFFCURVE",
"728 344 CURVE SMOOTH"
);
}
);
width = 785;
}
);
unicode = 00A9;
},
{
glyphname = ordfeminine;
lastChange = "2014-09-05 18:36:16 +0000";
layers = (
{
background = {
paths = (
{
closed = 1;
nodes = (
"282 412 LINE",
"282 390 OFFCURVE",
"291 370 OFFCURVE",
"320 370 CURVE SMOOTH",
"335 370 OFFCURVE",
"348 375 OFFCURVE",
"360 383 CURVE",
"364 414 LINE",
"352 408 OFFCURVE",
"337 402 OFFCURVE",
"330 402 CURVE SMOOTH",
"323 402 OFFCURVE",
"318 406 OFFCURVE",
"318 416 CURVE SMOOTH",
"318 425 OFFCURVE",
"355 693 OFFCURVE",
"355 693 CURVE SMOOTH",
"331 693 LINE",
"327 680 OFFCURVE",
"322 665 OFFCURVE",
"318 651 CURVE",
"316 648 LINE",
"300 680 OFFCURVE",
"269 699 OFFCURVE",
"224 699 CURVE SMOOTH",
"116 699 OFFCURVE",
"72 590 OFFCURVE",
"72 495 CURVE SMOOTH",
"72 408 OFFCURVE",
"118 370 OFFCURVE",
"178 370 CURVE SMOOTH",
"221 370 OFFCURVE",
"254 384 OFFCURVE",
"281 415 CURVE"
);
},
{
closed = 1;
nodes = (
"140 402 OFFCURVE",
"107 427 OFFCURVE",
"107 496 CURVE SMOOTH",
"107 571 OFFCURVE",
"136 667 OFFCURVE",
"223 667 CURVE SMOOTH",
"268 667 OFFCURVE",
"302 639 OFFCURVE",
"302 575 CURVE SMOOTH",
"302 494 OFFCURVE",
"272 402 OFFCURVE",
"185 402 CURVE SMOOTH"
);
}
);
};
layerId = "65EC8A7C-8A8B-4926-A170-31F830B4F708";
paths = (
{
closed = 1;
nodes = (
"282 412 LINE",
"282 390 OFFCURVE",
"291 370 OFFCURVE",
"320 370 CURVE SMOOTH",
"335 370 OFFCURVE",
"348 375 OFFCURVE",
"360 383 CURVE",
"364 414 LINE",
"352 408 OFFCURVE",
"337 402 OFFCURVE",
"330 402 CURVE SMOOTH",
"323 402 OFFCURVE",
"318 406 OFFCURVE",
"318 416 CURVE SMOOTH",
"318 425 OFFCURVE",
"355 693 OFFCURVE",
"355 693 CURVE SMOOTH",
"331 693 LINE",
"327 680 OFFCURVE",
"322 665 OFFCURVE",
"318 651 CURVE",
"316 648 LINE",
"300 680 OFFCURVE",
"269 699 OFFCURVE",
"224 699 CURVE SMOOTH",
"116 699 OFFCURVE",
"72 590 OFFCURVE",
"72 495 CURVE SMOOTH",
"72 408 OFFCURVE",
"118 370 OFFCURVE",
"178 370 CURVE SMOOTH",
"221 370 OFFCURVE",
"254 384 OFFCURVE",
"281 415 CURVE"
);
},
{
closed = 1;
nodes = (
"140 402 OFFCURVE",
"107 427 OFFCURVE",
"107 496 CURVE SMOOTH",
"107 571 OFFCURVE",
"136 667 OFFCURVE",
"223 667 CURVE SMOOTH",
"268 667 OFFCURVE",
"302 639 OFFCURVE",
"302 575 CURVE SMOOTH",
"302 494 OFFCURVE",
"272 402 OFFCURVE",
"185 402 CURVE SMOOTH"
);
}
);
width = 419;
}
);
unicode = 00AA;
},
{
glyphname = guillemetleft;
lastChange = "2014-09-05 18:36:16 +0000";
layers = (
{
background = {
paths = (
{
closed = 1;
nodes = (
"377 163 LINE",
"305 337 LINE",
"426 511 LINE",
"385 511 LINE",
"237 337 LINE",
"336 163 LINE"
);
},
{
closed = 1;
nodes = (
"194 163 LINE",
"122 337 LINE",
"243 511 LINE",
"202 511 LINE",
"55 337 LINE",
"153 163 LINE"
);
}
);
};
layerId = "65EC8A7C-8A8B-4926-A170-31F830B4F708";
paths = (
{
closed = 1;
nodes = (
"377 163 LINE",
"305 337 LINE",
"426 511 LINE",
"385 511 LINE",
"237 337 LINE",
"336 163 LINE"
);
},
{
closed = 1;
nodes = (
"194 163 LINE",
"122 337 LINE",
"243 511 LINE",
"202 511 LINE",
"55 337 LINE",
"153 163 LINE"
);
}
);
width = 458;
}
);
unicode = 00AB;
},
{
glyphname = logicalnot;
lastChange = "2014-09-05 18:36:16 +0000";
layers = (
{
background = {
paths = (
{
closed = 1;
nodes = (
"564 435 LINE",
"52 435 LINE",
"44 376 LINE",
"498 376 LINE",
"471 184 LINE",
"529 184 LINE"
);
}
);
};
layerId = "65EC8A7C-8A8B-4926-A170-31F830B4F708";
paths = (
{
closed = 1;
nodes = (
"564 435 LINE",
"52 435 LINE",
"44 376 LINE",
"498 376 LINE",
"471 184 LINE",
"529 184 LINE"
);
}
);
width = 615;
}
);
unicode = 00AC;
},
{
glyphname = softhyphen;
lastChange = "2014-09-05 18:36:16 +0000";
layers = (
{
background = {
paths = (
{
closed = 1;
nodes = (
"60 237 LINE",
"312 237 LINE",
"321 299 LINE",
"68 299 LINE"
);
}
);
};
layerId = "65EC8A7C-8A8B-4926-A170-31F830B4F708";
paths = (
{
closed = 1;
nodes = (
"60 237 LINE",
"312 237 LINE",
"321 299 LINE",
"68 299 LINE"
);
}
);
width = 390;
}
);
unicode = 00AD;
},
{
glyphname = registered;
lastChange = "2014-09-05 18:36:16 +0000";
layers = (
{
background = {
paths = (
{
closed = 1;
nodes = (
"572 151 LINE",
"541 163 OFFCURVE",
"541 185 OFFCURVE",
"541 229 CURVE SMOOTH",
"541 311 OFFCURVE",
"504 335 OFFCURVE",
"485 343 CURVE",
"485 347 LINE",
"516 360 OFFCURVE",
"548 395 OFFCURVE",
"548 443 CURVE SMOOTH",
"548 506 OFFCURVE",
"493 547 OFFCURVE",
"433 547 CURVE SMOOTH",
"264 547 LINE",
"264 135 LINE",
"305 135 LINE",
"305 328 LINE",
"430 328 LINE SMOOTH",
"449 328 OFFCURVE",
"503 320 OFFCURVE",
"503 215 CURVE SMOOTH",
"503 145 OFFCURVE",
"532 134 OFFCURVE",
"553 134 CURVE SMOOTH",
"561 134 OFFCURVE",
"572 137 OFFCURVE",
"572 137 CURVE"
);
},
{
closed = 1;
nodes = (
"305 363 LINE",
"305 511 LINE",
"435 511 LINE SMOOTH",
"477 511 OFFCURVE",
"511 480 OFFCURVE",
"511 438 CURVE SMOOTH",
"511 397 OFFCURVE",
"477 363 OFFCURVE",
"435 363 CURVE SMOOTH"
);
},
{
closed = 1;
nodes = (
"754 539 OFFCURVE",
"595 696 OFFCURVE",
"400 696 CURVE SMOOTH",
"204 696 OFFCURVE",
"46 539 OFFCURVE",
"46 344 CURVE SMOOTH",
"46 147 OFFCURVE",
"204 -10 OFFCURVE",
"400 -10 CURVE SMOOTH",
"595 -10 OFFCURVE",
"754 147 OFFCURVE",
"754 344 CURVE SMOOTH"
);
},
{
closed = 1;
nodes = (
"728 162 OFFCURVE",
"580 16 OFFCURVE",
"400 16 CURVE SMOOTH",
"219 16 OFFCURVE",
"72 162 OFFCURVE",
"72 344 CURVE SMOOTH",
"72 524 OFFCURVE",
"219 670 OFFCURVE",
"400 670 CURVE SMOOTH",
"580 670 OFFCURVE",
"728 524 OFFCURVE",
"728 344 CURVE SMOOTH"
);
}
);
};
layerId = "65EC8A7C-8A8B-4926-A170-31F830B4F708";
paths = (
{
closed = 1;
nodes = (
"572 151 LINE",
"541 163 OFFCURVE",
"541 185 OFFCURVE",
"541 229 CURVE SMOOTH",
"541 311 OFFCURVE",
"504 335 OFFCURVE",
"485 343 CURVE",
"485 347 LINE",
"516 360 OFFCURVE",
"548 395 OFFCURVE",
"548 443 CURVE SMOOTH",
"548 506 OFFCURVE",
"493 547 OFFCURVE",
"433 547 CURVE SMOOTH",
"264 547 LINE",
"264 135 LINE",
"305 135 LINE",
"305 328 LINE",
"430 328 LINE SMOOTH",
"449 328 OFFCURVE",
"503 320 OFFCURVE",
"503 215 CURVE SMOOTH",
"503 145 OFFCURVE",
"532 134 OFFCURVE",
"553 134 CURVE SMOOTH",
"561 134 OFFCURVE",
"572 137 OFFCURVE",
"572 137 CURVE"
);
},
{
closed = 1;
nodes = (
"305 363 LINE",
"305 511 LINE",
"435 511 LINE SMOOTH",
"477 511 OFFCURVE",
"511 480 OFFCURVE",
"511 438 CURVE SMOOTH",
"511 397 OFFCURVE",
"477 363 OFFCURVE",
"435 363 CURVE SMOOTH"
);
},
{
closed = 1;
nodes = (
"754 539 OFFCURVE",
"595 696 OFFCURVE",
"400 696 CURVE SMOOTH",
"204 696 OFFCURVE",
"46 539 OFFCURVE",
"46 344 CURVE SMOOTH",
"46 147 OFFCURVE",
"204 -10 OFFCURVE",
"400 -10 CURVE SMOOTH",
"595 -10 OFFCURVE",
"754 147 OFFCURVE",
"754 344 CURVE SMOOTH"
);
},
{
closed = 1;
nodes = (
"728 162 OFFCURVE",
"580 16 OFFCURVE",
"400 16 CURVE SMOOTH",
"219 16 OFFCURVE",
"72 162 OFFCURVE",
"72 344 CURVE SMOOTH",
"72 524 OFFCURVE",
"219 670 OFFCURVE",
"400 670 CURVE SMOOTH",
"580 670 OFFCURVE",
"728 524 OFFCURVE",
"728 344 CURVE SMOOTH"
);
}
);
width = 785;
}
);
unicode = 00AE;
},
{
glyphname = macron;
lastChange = "2014-09-09 18:08:04 +0000";
layers = (
{
anchors = (
{
name = _top;
position = "{203, 511}";
}
);
background = {
anchors = (
{
name = _top;
position = "{203, 511}";
}
);
paths = (
{
closed = 1;
nodes = (
"383 662 LINE",
"394 736 LINE",
"76 736 LINE",
"65 662 LINE"
);
}
);
};
layerId = "65EC8A7C-8A8B-4926-A170-31F830B4F708";
paths = (
{
closed = 1;
nodes = (
"386 691 LINE",
"394 736 LINE",
"76 736 LINE",
"68 691 LINE"
);
}
);
width = 460;
}
);
unicode = 00AF;
},
{
glyphname = degree;
lastChange = "2014-09-05 18:36:16 +0000";
layers = (
{
background = {
paths = (
{
closed = 1;
nodes = (
"392 633 OFFCURVE",
"331 696 OFFCURVE",
"252 696 CURVE SMOOTH",
"160 696 OFFCURVE",
"92 623 OFFCURVE",
"92 536 CURVE SMOOTH",
"92 458 OFFCURVE",
"151 396 OFFCURVE",
"231 396 CURVE SMOOTH",
"327 396 OFFCURVE",
"392 474 OFFCURVE",
"392 555 CURVE SMOOTH"
);
},
{
closed = 1;
nodes = (
"305 651 OFFCURVE",
"347 609 OFFCURVE",
"347 554 CURVE SMOOTH",
"347 491 OFFCURVE",
"296 439 OFFCURVE",
"234 439 CURVE SMOOTH",
"177 439 OFFCURVE",
"135 482 OFFCURVE",
"135 537 CURVE SMOOTH",
"135 603 OFFCURVE",
"194 651 OFFCURVE",
"249 651 CURVE SMOOTH"
);
}
);
};
layerId = "65EC8A7C-8A8B-4926-A170-31F830B4F708";
paths = (
{
closed = 1;
nodes = (
"392 633 OFFCURVE",
"331 696 OFFCURVE",
"252 696 CURVE SMOOTH",
"160 696 OFFCURVE",
"92 623 OFFCURVE",
"92 536 CURVE SMOOTH",
"92 458 OFFCURVE",
"151 396 OFFCURVE",
"231 396 CURVE SMOOTH",
"327 396 OFFCURVE",
"392 474 OFFCURVE",
"392 555 CURVE SMOOTH"
);
},
{
closed = 1;
nodes = (
"305 651 OFFCURVE",
"347 609 OFFCURVE",
"347 554 CURVE SMOOTH",
"347 491 OFFCURVE",
"296 439 OFFCURVE",
"234 439 CURVE SMOOTH",
"177 439 OFFCURVE",
"135 482 OFFCURVE",
"135 537 CURVE SMOOTH",
"135 603 OFFCURVE",
"194 651 OFFCURVE",
"249 651 CURVE SMOOTH"
);
}
);
width = 404;
}
);
unicode = 00B0;
},
{
glyphname = plusminus;
lastChange = "2014-09-05 18:36:16 +0000";
layers = (
{
background = {
paths = (
{
closed = 1;
nodes = (
"516 0 LINE",
"524 58 LINE",
"24 58 LINE",
"16 0 LINE"
);
},
{
closed = 1;
nodes = (
"366 511 LINE",
"308 511 LINE",
"285 344 LINE",
"58 344 LINE",
"50 286 LINE",
"277 286 LINE",
"253 120 LINE",
"311 120 LINE",
"335 286 LINE",
"562 286 LINE",
"570 344 LINE",
"343 344 LINE"
);
}
);
};
layerId = "65EC8A7C-8A8B-4926-A170-31F830B4F708";
paths = (
{
closed = 1;
nodes = (
"516 0 LINE",
"524 58 LINE",
"24 58 LINE",
"16 0 LINE"
);
},
{
closed = 1;
nodes = (
"366 511 LINE",
"308 511 LINE",
"285 344 LINE",
"58 344 LINE",
"50 286 LINE",
"277 286 LINE",
"253 120 LINE",
"311 120 LINE",
"335 286 LINE",
"562 286 LINE",
"570 344 LINE",
"343 344 LINE"
);
}
);
width = 615;
}
);
unicode = 00B1;
},
{
glyphname = twosuperior;
lastChange = "2014-09-05 18:36:16 +0000";
layers = (
{
background = {
paths = (
{
closed = 1;
nodes = (
"13 422 LINE",
"267 422 LINE",
"272 460 LINE",
"64 460 LINE",
"65 470 OFFCURVE",
"73 484 OFFCURVE",
"96 498 CURVE SMOOTH",
"219 573 LINE SMOOTH",
"257 596 OFFCURVE",
"303 635 OFFCURVE",
"303 705 CURVE SMOOTH",
"303 762 OFFCURVE",
"265 805 OFFCURVE",
"196 805 CURVE SMOOTH",
"114 805 OFFCURVE",
"52 738 OFFCURVE",
"52 664 CURVE",
"93 664 LINE",
"93 721 OFFCURVE",
"134 767 OFFCURVE",
"191 767 CURVE SMOOTH",
"238 767 OFFCURVE",
"262 739 OFFCURVE",
"262 699 CURVE SMOOTH",
"262 653 OFFCURVE",
"231 624 OFFCURVE",
"205 608 CURVE SMOOTH",
"88 537 LINE SMOOTH",
"49 513 OFFCURVE",
"20 486 OFFCURVE",
"15 441 CURVE SMOOTH"
);
}
);
};
layerId = "65EC8A7C-8A8B-4926-A170-31F830B4F708";
paths = (
{
closed = 1;
nodes = (
"13 422 LINE",
"267 422 LINE",
"272 460 LINE",
"64 460 LINE",
"65 470 OFFCURVE",
"73 484 OFFCURVE",
"96 498 CURVE SMOOTH",
"219 573 LINE SMOOTH",
"257 596 OFFCURVE",
"303 635 OFFCURVE",
"303 705 CURVE SMOOTH",
"303 762 OFFCURVE",
"265 805 OFFCURVE",
"196 805 CURVE SMOOTH",
"114 805 OFFCURVE",
"52 738 OFFCURVE",
"52 664 CURVE",
"93 664 LINE",
"93 721 OFFCURVE",
"134 767 OFFCURVE",
"191 767 CURVE SMOOTH",
"238 767 OFFCURVE",
"262 739 OFFCURVE",
"262 699 CURVE SMOOTH",
"262 653 OFFCURVE",
"231 624 OFFCURVE",
"205 608 CURVE SMOOTH",
"88 537 LINE SMOOTH",
"49 513 OFFCURVE",
"20 486 OFFCURVE",
"15 441 CURVE SMOOTH"
);
}
);
width = 334;
}
);
unicode = 00B2;
},
{
glyphname = threesuperior;
lastChange = "2014-09-05 18:36:16 +0000";
layers = (
{
background = {
paths = (
{
closed = 1;
nodes = (
"30 536 LINE",
"26 519 OFFCURVE",
"26 510 OFFCURVE",
"26 505 CURVE SMOOTH",
"26 448 OFFCURVE",
"75 413 OFFCURVE",
"148 413 CURVE SMOOTH",
"228 413 OFFCURVE",
"284 460 OFFCURVE",
"284 538 CURVE SMOOTH",
"284 576 OFFCURVE",
"265 601 OFFCURVE",
"237 614 CURVE",
"274 633 OFFCURVE",
"302 655 OFFCURVE",
"302 713 CURVE SMOOTH",
"302 771 OFFCURVE",
"255 801 OFFCURVE",
"195 801 CURVE SMOOTH",
"127 801 OFFCURVE",
"70 763 OFFCURVE",
"60 696 CURVE SMOOTH",
"58 683 LINE",
"98 683 LINE",
"100 696 LINE SMOOTH",
"106 739 OFFCURVE",
"143 764 OFFCURVE",
"190 764 CURVE SMOOTH",
"230 764 OFFCURVE",
"261 745 OFFCURVE",
"261 707 CURVE SMOOTH",
"261 654 OFFCURVE",
"216 630 OFFCURVE",
"168 630 CURVE SMOOTH",
"124 630 LINE",
"119 593 LINE",
"166 593 LINE SMOOTH",
"210 593 OFFCURVE",
"244 574 OFFCURVE",
"244 532 CURVE SMOOTH",
"244 478 OFFCURVE",
"204 449 OFFCURVE",
"153 449 CURVE SMOOTH",
"91 449 OFFCURVE",
"66 472 OFFCURVE",
"66 510 CURVE SMOOTH",
"66 515 OFFCURVE",
"67 523 OFFCURVE",
"70 536 CURVE"
);
}
);
};
layerId = "65EC8A7C-8A8B-4926-A170-31F830B4F708";
paths = (
{
closed = 1;
nodes = (
"30 536 LINE",
"26 519 OFFCURVE",
"26 510 OFFCURVE",
"26 505 CURVE SMOOTH",
"26 448 OFFCURVE",
"75 413 OFFCURVE",
"148 413 CURVE SMOOTH",
"228 413 OFFCURVE",
"284 460 OFFCURVE",
"284 538 CURVE SMOOTH",
"284 576 OFFCURVE",
"265 601 OFFCURVE",
"237 614 CURVE",
"274 633 OFFCURVE",
"302 655 OFFCURVE",
"302 713 CURVE SMOOTH",
"302 771 OFFCURVE",
"255 801 OFFCURVE",
"195 801 CURVE SMOOTH",
"127 801 OFFCURVE",
"70 763 OFFCURVE",
"60 696 CURVE SMOOTH",
"58 683 LINE",
"98 683 LINE",
"100 696 LINE SMOOTH",
"106 739 OFFCURVE",
"143 764 OFFCURVE",
"190 764 CURVE SMOOTH",
"230 764 OFFCURVE",
"261 745 OFFCURVE",
"261 707 CURVE SMOOTH",
"261 654 OFFCURVE",
"216 630 OFFCURVE",
"168 630 CURVE SMOOTH",
"124 630 LINE",
"119 593 LINE",
"166 593 LINE SMOOTH",
"210 593 OFFCURVE",
"244 574 OFFCURVE",
"244 532 CURVE SMOOTH",
"244 478 OFFCURVE",
"204 449 OFFCURVE",
"153 449 CURVE SMOOTH",
"91 449 OFFCURVE",
"66 472 OFFCURVE",
"66 510 CURVE SMOOTH",
"66 515 OFFCURVE",
"67 523 OFFCURVE",
"70 536 CURVE"
);
}
);
width = 336;
}
);
unicode = 00B3;
},
{
glyphname = acute;
lastChange = "2014-09-05 19:12:00 +0000";
layers = (
{
anchors = (
{
name = _top;
position = "{88, 511}";
}
);
background = {
anchors = (
{
name = _top;
position = "{128, 511}";
}
);
paths = (
{
closed = 1;
nodes = (
"106 575 LINE",
"237 717 LINE",
"238 720 LINE",
"173 720 LINE",
"56 575 LINE"
);
}
);
};
layerId = "65EC8A7C-8A8B-4926-A170-31F830B4F708";
paths = (
{
closed = 1;
nodes = (
"106 575 LINE",
"237 717 LINE",
"238 720 LINE",
"173 720 LINE",
"56 575 LINE"
);
}
);
width = 333;
}
);
unicode = 00B4;
},
{
glyphname = paragraph;
lastChange = "2014-09-05 18:36:16 +0000";
layers = (
{
background = {
paths = (
{
closed = 1;
nodes = (
"212 -174 LINE",
"326 637 LINE",
"398 637 LINE",
"284 -174 LINE",
"336 -174 LINE",
"450 637 LINE",
"516 637 LINE",
"523 686 LINE",
"313 686 LINE SMOOTH",
"175 686 OFFCURVE",
"61 588 OFFCURVE",
"61 436 CURVE SMOOTH",
"61 340 OFFCURVE",
"126 263 OFFCURVE",
"220 249 CURVE",
"160 -174 LINE"
);
}
);
};
layerId = "65EC8A7C-8A8B-4926-A170-31F830B4F708";
paths = (
{
closed = 1;
nodes = (
"212 -174 LINE",
"326 637 LINE",
"398 637 LINE",
"284 -174 LINE",
"336 -174 LINE",
"450 637 LINE",
"516 637 LINE",
"523 686 LINE",
"313 686 LINE SMOOTH",
"175 686 OFFCURVE",
"61 588 OFFCURVE",
"61 436 CURVE SMOOTH",
"61 340 OFFCURVE",
"126 263 OFFCURVE",
"220 249 CURVE",
"160 -174 LINE"
);
}
);
width = 524;
}
);
unicode = 00B6;
},
{
glyphname = periodcentered;
lastChange = "2014-09-05 18:36:16 +0000";
layers = (
{
background = {
paths = (
{
closed = 1;
nodes = (
"80 254 LINE",
"145 254 LINE",
"154 323 LINE",
"89 323 LINE"
);
}
);
};
layerId = "65EC8A7C-8A8B-4926-A170-31F830B4F708";
paths = (
{
closed = 1;
nodes = (
"80 254 LINE",
"145 254 LINE",
"154 323 LINE",
"89 323 LINE"
);
}
);
width = 235;
}
);
unicode = 00B7;
},
{
glyphname = cedilla;
lastChange = "2014-09-05 19:11:54 +0000";
layers = (
{
anchors = (
{
name = _bottom;
position = "{168, 0}";
}
);
background = {
anchors = (
{
name = _bottom;
position = "{178, 0}";
}
);
paths = (
{
closed = 1;
nodes = (
"59 -184 LINE",
"81 -193 OFFCURVE",
"110 -197 OFFCURVE",
"135 -197 CURVE SMOOTH",
"183 -197 OFFCURVE",
"267 -177 OFFCURVE",
"267 -90 CURVE SMOOTH",
"267 -22 OFFCURVE",
"206 -17 OFFCURVE",
"147 -17 CURVE",
"142 -51 LINE",
"164 -51 LINE SMOOTH",
"189 -51 OFFCURVE",
"216 -64 OFFCURVE",
"216 -91 CURVE SMOOTH",
"216 -139 OFFCURVE",
"168 -151 OFFCURVE",
"132 -151 CURVE SMOOTH",
"99 -151 OFFCURVE",
"77 -145 OFFCURVE",
"65 -138 CURVE"
);
}
);
};
layerId = "65EC8A7C-8A8B-4926-A170-31F830B4F708";
paths = (
{
closed = 1;
nodes = (
"59 -184 LINE",
"81 -193 OFFCURVE",
"110 -197 OFFCURVE",
"135 -197 CURVE SMOOTH",
"183 -197 OFFCURVE",
"267 -177 OFFCURVE",
"267 -90 CURVE SMOOTH",
"267 -22 OFFCURVE",
"206 -17 OFFCURVE",
"147 -17 CURVE",
"142 -51 LINE",
"164 -51 LINE SMOOTH",
"189 -51 OFFCURVE",
"216 -64 OFFCURVE",
"216 -91 CURVE SMOOTH",
"216 -139 OFFCURVE",
"168 -151 OFFCURVE",
"132 -151 CURVE SMOOTH",
"99 -151 OFFCURVE",
"77 -145 OFFCURVE",
"65 -138 CURVE"
);
}
);
width = 350;
}
);
unicode = 00B8;
},
{
glyphname = onesuperior;
lastChange = "2014-09-05 18:36:16 +0000";
layers = (
{
background = {
paths = (
{
closed = 1;
nodes = (
"234 422 LINE",
"239 460 LINE",
"162 460 LINE",
"210 797 LINE",
"188 797 LINE",
"132 780 OFFCURVE",
"105 776 OFFCURVE",
"63 774 CURVE",
"59 745 LINE",
"161 745 LINE",
"120 460 LINE",
"18 460 LINE",
"13 422 LINE"
);
}
);
};
layerId = "65EC8A7C-8A8B-4926-A170-31F830B4F708";
paths = (
{
closed = 1;
nodes = (
"234 422 LINE",
"239 460 LINE",
"162 460 LINE",
"210 797 LINE",
"188 797 LINE",
"132 780 OFFCURVE",
"105 776 OFFCURVE",
"63 774 CURVE",
"59 745 LINE",
"161 745 LINE",
"120 460 LINE",
"18 460 LINE",
"13 422 LINE"
);
}
);
width = 301;
}
);
unicode = 00B9;
},
{
glyphname = ordmasculine;
lastChange = "2014-09-05 18:36:16 +0000";
layers = (
{
background = {
paths = (
{
closed = 1;
nodes = (
"315 374 OFFCURVE",
"364 478 OFFCURVE",
"364 576 CURVE SMOOTH",
"364 656 OFFCURVE",
"319 701 OFFCURVE",
"250 701 CURVE SMOOTH",
"140 701 OFFCURVE",
"91 597 OFFCURVE",
"91 499 CURVE SMOOTH",
"91 419 OFFCURVE",
"136 374 OFFCURVE",
"205 374 CURVE SMOOTH"
);
},
{
closed = 1;
nodes = (
"161 406 OFFCURVE",
"126 436 OFFCURVE",
"126 499 CURVE SMOOTH",
"126 578 OFFCURVE",
"159 669 OFFCURVE",
"246 669 CURVE SMOOTH",
"294 669 OFFCURVE",
"329 639 OFFCURVE",
"329 575 CURVE SMOOTH",
"329 494 OFFCURVE",
"296 406 OFFCURVE",
"209 406 CURVE SMOOTH"
);
}
);
};
layerId = "65EC8A7C-8A8B-4926-A170-31F830B4F708";
paths = (
{
closed = 1;
nodes = (
"315 374 OFFCURVE",
"364 478 OFFCURVE",
"364 576 CURVE SMOOTH",
"364 656 OFFCURVE",
"319 701 OFFCURVE",
"250 701 CURVE SMOOTH",
"140 701 OFFCURVE",
"91 597 OFFCURVE",
"91 499 CURVE SMOOTH",
"91 419 OFFCURVE",
"136 374 OFFCURVE",
"205 374 CURVE SMOOTH"
);
},
{
closed = 1;
nodes = (
"161 406 OFFCURVE",
"126 436 OFFCURVE",
"126 499 CURVE SMOOTH",
"126 578 OFFCURVE",
"159 669 OFFCURVE",
"246 669 CURVE SMOOTH",
"294 669 OFFCURVE",
"329 639 OFFCURVE",
"329 575 CURVE SMOOTH",
"329 494 OFFCURVE",
"296 406 OFFCURVE",
"209 406 CURVE SMOOTH"
);
}
);
width = 392;
}
);
unicode = 00BA;
},
{
glyphname = guillemetright;
lastChange = "2014-09-05 18:36:16 +0000";
layers = (
{
background = {
paths = (
{
closed = 1;
nodes = (
"78 163 LINE",
"227 337 LINE",
"127 511 LINE",
"86 511 LINE",
"159 337 LINE",
"37 163 LINE"
);
},
{
closed = 1;
nodes = (
"261 163 LINE",
"409 337 LINE",
"310 511 LINE",
"269 511 LINE",
"342 337 LINE",
"220 163 LINE"
);
}
);
};
layerId = "65EC8A7C-8A8B-4926-A170-31F830B4F708";
paths = (
{
closed = 1;
nodes = (
"78 163 LINE",
"227 337 LINE",
"127 511 LINE",
"86 511 LINE",
"159 337 LINE",
"37 163 LINE"
);
},
{
closed = 1;
nodes = (
"261 163 LINE",
"409 337 LINE",
"310 511 LINE",
"269 511 LINE",
"342 337 LINE",
"220 163 LINE"
);
}
);
width = 460;
}
);
unicode = 00BB;
},
{
glyphname = onequarter;
lastChange = "2014-09-05 18:36:16 +0000";
layers = (
{
background = {
paths = (
{
closed = 1;
nodes = (
"259 311 LINE",
"264 349 LINE",
"187 349 LINE",
"235 686 LINE",
"213 686 LINE",
"157 669 OFFCURVE",
"130 665 OFFCURVE",
"87 663 CURVE",
"83 634 LINE",
"185 634 LINE",
"145 349 LINE",
"43 349 LINE",
"38 311 LINE"
);
},
{
closed = 1;
nodes = (
"646 686 LINE",
"602 686 LINE",
"85 0 LINE",
"132 0 LINE"
);
},
{
closed = 1;
nodes = (
"585 135 LINE",
"453 135 LINE",
"494 181 OFFCURVE",
"565 290 OFFCURVE",
"606 375 CURVE",
"563 375 LINE",
"519 287 OFFCURVE",
"428 157 OFFCURVE",
"404 132 CURVE",
"399 98 LINE",
"580 98 LINE",
"566 0 LINE",
"607 0 LINE",
"621 98 LINE",
"664 98 LINE",
"669 135 LINE",
"626 135 LINE",
"651 311 LINE",
"631 311 LINE",
"623 295 OFFCURVE",
"613 279 OFFCURVE",
"604 265 CURVE"
);
}
);
};
layerId = "65EC8A7C-8A8B-4926-A170-31F830B4F708";
paths = (
{
closed = 1;
nodes = (
"259 311 LINE",
"264 349 LINE",
"187 349 LINE",
"235 686 LINE",
"213 686 LINE",
"157 669 OFFCURVE",
"130 665 OFFCURVE",
"87 663 CURVE",
"83 634 LINE",
"185 634 LINE",
"145 349 LINE",
"43 349 LINE",
"38 311 LINE"
);
},
{
closed = 1;
nodes = (
"646 686 LINE",
"602 686 LINE",
"85 0 LINE",
"132 0 LINE"
);
},
{
closed = 1;
nodes = (
"585 135 LINE",
"453 135 LINE",
"494 181 OFFCURVE",
"565 290 OFFCURVE",
"606 375 CURVE",
"563 375 LINE",
"519 287 OFFCURVE",
"428 157 OFFCURVE",
"404 132 CURVE",
"399 98 LINE",
"580 98 LINE",
"566 0 LINE",
"607 0 LINE",
"621 98 LINE",
"664 98 LINE",
"669 135 LINE",
"626 135 LINE",
"651 311 LINE",
"631 311 LINE",
"623 295 OFFCURVE",
"613 279 OFFCURVE",
"604 265 CURVE"
);
}
);
width = 701;
}
);
unicode = 00BC;
},
{
glyphname = onehalf;
lastChange = "2014-09-05 18:36:16 +0000";
layers = (
{
background = {
paths = (
{
closed = 1;
nodes = (
"257 311 LINE",
"262 349 LINE",
"185 349 LINE",
"233 686 LINE",
"211 686 LINE",
"155 669 OFFCURVE",
"128 665 OFFCURVE",
"85 663 CURVE",
"81 634 LINE",
"183 634 LINE",
"143 349 LINE",
"41 349 LINE",
"36 311 LINE"
);
},
{
closed = 1;
nodes = (
"644 686 LINE",
"600 686 LINE",
"83 0 LINE",
"130 0 LINE"
);
},
{
closed = 1;
nodes = (
"398 0 LINE",
"652 0 LINE",
"658 38 LINE",
"450 38 LINE",
"451 48 OFFCURVE",
"459 62 OFFCURVE",
"482 76 CURVE SMOOTH",
"605 151 LINE SMOOTH",
"643 174 OFFCURVE",
"689 214 OFFCURVE",
"689 283 CURVE SMOOTH",
"689 340 OFFCURVE",
"651 383 OFFCURVE",
"582 383 CURVE SMOOTH",
"510 383 OFFCURVE",
"437 326 OFFCURVE",
"437 242 CURVE",
"478 242 LINE",
"478 299 OFFCURVE",
"521 345 OFFCURVE",
"577 345 CURVE SMOOTH",
"623 345 OFFCURVE",
"647 318 OFFCURVE",
"647 279 CURVE SMOOTH",
"647 231 OFFCURVE",
"618 203 OFFCURVE",
"590 186 CURVE SMOOTH",
"473 115 LINE SMOOTH",
"433 91 OFFCURVE",
"408 63 OFFCURVE",
"401 19 CURVE SMOOTH"
);
}
);
};
layerId = "65EC8A7C-8A8B-4926-A170-31F830B4F708";
paths = (
{
closed = 1;
nodes = (
"257 311 LINE",
"262 349 LINE",
"185 349 LINE",
"233 686 LINE",
"211 686 LINE",
"155 669 OFFCURVE",
"128 665 OFFCURVE",
"85 663 CURVE",
"81 634 LINE",
"183 634 LINE",
"143 349 LINE",
"41 349 LINE",
"36 311 LINE"
);
},
{
closed = 1;
nodes = (
"644 686 LINE",
"600 686 LINE",
"83 0 LINE",
"130 0 LINE"
);
},
{
closed = 1;
nodes = (
"398 0 LINE",
"652 0 LINE",
"658 38 LINE",
"450 38 LINE",
"451 48 OFFCURVE",
"459 62 OFFCURVE",
"482 76 CURVE SMOOTH",
"605 151 LINE SMOOTH",
"643 174 OFFCURVE",
"689 214 OFFCURVE",
"689 283 CURVE SMOOTH",
"689 340 OFFCURVE",
"651 383 OFFCURVE",
"582 383 CURVE SMOOTH",
"510 383 OFFCURVE",
"437 326 OFFCURVE",
"437 242 CURVE",
"478 242 LINE",
"478 299 OFFCURVE",
"521 345 OFFCURVE",
"577 345 CURVE SMOOTH",
"623 345 OFFCURVE",
"647 318 OFFCURVE",
"647 279 CURVE SMOOTH",
"647 231 OFFCURVE",
"618 203 OFFCURVE",
"590 186 CURVE SMOOTH",
"473 115 LINE SMOOTH",
"433 91 OFFCURVE",
"408 63 OFFCURVE",
"401 19 CURVE SMOOTH"
);
}
);
width = 727;
}
);
unicode = 00BD;
},
{
glyphname = threequarters;
lastChange = "2014-09-05 18:36:16 +0000";
layers = (
{
background = {
paths = (
{
closed = 1;
nodes = (
"688 686 LINE",
"644 686 LINE",
"128 0 LINE",
"175 0 LINE"
);
},
{
closed = 1;
nodes = (
"613 135 LINE",
"481 135 LINE",
"521 181 OFFCURVE",
"593 290 OFFCURVE",
"634 375 CURVE",
"591 375 LINE",
"546 287 OFFCURVE",
"456 157 OFFCURVE",
"431 132 CURVE",
"427 98 LINE",
"608 98 LINE",
"594 0 LINE",
"635 0 LINE",
"649 98 LINE",
"692 98 LINE",
"697 135 LINE",
"654 135 LINE",
"679 311 LINE",
"659 311 LINE",
"650 295 OFFCURVE",
"640 279 OFFCURVE",
"631 265 CURVE"
);
},
{
closed = 1;
nodes = (
"57 427 LINE",
"53 410 OFFCURVE",
"53 401 OFFCURVE",
"53 396 CURVE SMOOTH",
"53 339 OFFCURVE",
"102 304 OFFCURVE",
"175 304 CURVE SMOOTH",
"255 304 OFFCURVE",
"311 351 OFFCURVE",
"311 429 CURVE SMOOTH",
"311 467 OFFCURVE",
"292 492 OFFCURVE",
"264 505 CURVE",
"301 524 OFFCURVE",
"329 546 OFFCURVE",
"329 604 CURVE SMOOTH",
"329 662 OFFCURVE",
"282 692 OFFCURVE",
"222 692 CURVE SMOOTH",
"154 692 OFFCURVE",
"97 654 OFFCURVE",
"87 587 CURVE SMOOTH",
"85 574 LINE",
"125 574 LINE",
"127 587 LINE SMOOTH",
"133 630 OFFCURVE",
"170 655 OFFCURVE",
"217 655 CURVE SMOOTH",
"257 655 OFFCURVE",
"288 636 OFFCURVE",
"288 598 CURVE SMOOTH",
"288 545 OFFCURVE",
"243 521 OFFCURVE",
"195 521 CURVE SMOOTH",
"151 521 LINE",
"146 484 LINE",
"193 484 LINE SMOOTH",
"237 484 OFFCURVE",
"271 465 OFFCURVE",
"271 423 CURVE SMOOTH",
"271 369 OFFCURVE",
"231 340 OFFCURVE",
"180 340 CURVE SMOOTH",
"118 340 OFFCURVE",
"93 363 OFFCURVE",
"93 401 CURVE SMOOTH",
"93 406 OFFCURVE",
"94 414 OFFCURVE",
"97 427 CURVE"
);
}
);
};
layerId = "65EC8A7C-8A8B-4926-A170-31F830B4F708";
paths = (
{
closed = 1;
nodes = (
"688 686 LINE",
"644 686 LINE",
"128 0 LINE",
"175 0 LINE"
);
},
{
closed = 1;
nodes = (
"613 135 LINE",
"481 135 LINE",
"521 181 OFFCURVE",
"593 290 OFFCURVE",
"634 375 CURVE",
"591 375 LINE",
"546 287 OFFCURVE",
"456 157 OFFCURVE",
"431 132 CURVE",
"427 98 LINE",
"608 98 LINE",
"594 0 LINE",
"635 0 LINE",
"649 98 LINE",
"692 98 LINE",
"697 135 LINE",
"654 135 LINE",
"679 311 LINE",
"659 311 LINE",
"650 295 OFFCURVE",
"640 279 OFFCURVE",
"631 265 CURVE"
);
},
{
closed = 1;
nodes = (
"57 427 LINE",
"53 410 OFFCURVE",
"53 401 OFFCURVE",
"53 396 CURVE SMOOTH",
"53 339 OFFCURVE",
"102 304 OFFCURVE",
"175 304 CURVE SMOOTH",
"255 304 OFFCURVE",
"311 351 OFFCURVE",
"311 429 CURVE SMOOTH",
"311 467 OFFCURVE",
"292 492 OFFCURVE",
"264 505 CURVE",
"301 524 OFFCURVE",
"329 546 OFFCURVE",
"329 604 CURVE SMOOTH",
"329 662 OFFCURVE",
"282 692 OFFCURVE",
"222 692 CURVE SMOOTH",
"154 692 OFFCURVE",
"97 654 OFFCURVE",
"87 587 CURVE SMOOTH",
"85 574 LINE",
"125 574 LINE",
"127 587 LINE SMOOTH",
"133 630 OFFCURVE",
"170 655 OFFCURVE",
"217 655 CURVE SMOOTH",
"257 655 OFFCURVE",
"288 636 OFFCURVE",
"288 598 CURVE SMOOTH",
"288 545 OFFCURVE",
"243 521 OFFCURVE",
"195 521 CURVE SMOOTH",
"151 521 LINE",
"146 484 LINE",
"193 484 LINE SMOOTH",
"237 484 OFFCURVE",
"271 465 OFFCURVE",
"271 423 CURVE SMOOTH",
"271 369 OFFCURVE",
"231 340 OFFCURVE",
"180 340 CURVE SMOOTH",
"118 340 OFFCURVE",
"93 363 OFFCURVE",
"93 401 CURVE SMOOTH",
"93 406 OFFCURVE",
"94 414 OFFCURVE",
"97 427 CURVE"
);
}
);
width = 698;
}
);
unicode = 00BE;
},
{
glyphname = questiondown;
lastChange = "2014-09-05 18:36:16 +0000";
layers = (
{
background = {
paths = (
{
closed = 1;
nodes = (
"304 511 LINE",
"239 511 LINE",
"230 442 LINE",
"295 442 LINE"
);
},
{
closed = 1;
nodes = (
"212 280 LINE SMOOTH",
"196 165 OFFCURVE",
"13 160 OFFCURVE",
"13 -28 CURVE SMOOTH",
"13 -79 OFFCURVE",
"30 -186 OFFCURVE",
"182 -186 CURVE SMOOTH",
"377 -186 OFFCURVE",
"410 -18 OFFCURVE",
"414 13 CURVE",
"415 19 OFFCURVE",
"416 35 OFFCURVE",
"416 46 CURVE",
"362 46 LINE SMOOTH",
"362 46 OFFCURVE",
"362 27 OFFCURVE",
"361 17 CURVE",
"356 -18 OFFCURVE",
"326 -137 OFFCURVE",
"187 -137 CURVE SMOOTH",
"85 -137 OFFCURVE",
"67 -69 OFFCURVE",
"67 -23 CURVE SMOOTH",
"67 138 OFFCURVE",
"247 142 OFFCURVE",
"264 267 CURVE SMOOTH",
"275 345 LINE",
"221 345 LINE"
);
}
);
};
layerId = "65EC8A7C-8A8B-4926-A170-31F830B4F708";
paths = (
{
closed = 1;
nodes = (
"304 511 LINE",
"239 511 LINE",
"230 442 LINE",
"295 442 LINE"
);
},
{
closed = 1;
nodes = (
"212 280 LINE SMOOTH",
"196 165 OFFCURVE",
"13 160 OFFCURVE",
"13 -28 CURVE SMOOTH",
"13 -79 OFFCURVE",
"30 -186 OFFCURVE",
"182 -186 CURVE SMOOTH",
"377 -186 OFFCURVE",
"410 -18 OFFCURVE",
"414 13 CURVE",
"415 19 OFFCURVE",
"416 35 OFFCURVE",
"416 46 CURVE",
"362 46 LINE SMOOTH",
"362 46 OFFCURVE",
"362 27 OFFCURVE",
"361 17 CURVE",
"356 -18 OFFCURVE",
"326 -137 OFFCURVE",
"187 -137 CURVE SMOOTH",
"85 -137 OFFCURVE",
"67 -69 OFFCURVE",
"67 -23 CURVE SMOOTH",
"67 138 OFFCURVE",
"247 142 OFFCURVE",
"264 267 CURVE SMOOTH",
"275 345 LINE",
"221 345 LINE"
);
}
);
width = 494;
}
);
unicode = 00BF;
},
{
glyphname = Agrave;
lastChange = "2014-09-05 18:36:16 +0000";
layers = (
{
background = {
paths = (
{
closed = 1;
nodes = (
"522 0 LINE",
"581 0 LINE",
"394 686 LINE",
"344 686 LINE",
"-36 0 LINE",
"19 0 LINE",
"113 170 LINE",
"475 170 LINE"
);
},
{
closed = 1;
nodes = (
"354 612 LINE",
"358 612 LINE",
"462 219 LINE",
"140 219 LINE"
);
},
{
closed = 1;
nodes = (
"390 750 LINE",
"315 895 LINE",
"250 895 LINE",
"249 892 LINE",
"340 750 LINE"
);
}
);
};
layerId = "65EC8A7C-8A8B-4926-A170-31F830B4F708";
paths = (
{
closed = 1;
nodes = (
"522 0 LINE",
"581 0 LINE",
"394 686 LINE",
"344 686 LINE",
"-36 0 LINE",
"19 0 LINE",
"113 170 LINE",
"475 170 LINE"
);
},
{
closed = 1;
nodes = (
"354 612 LINE",
"358 612 LINE",
"462 219 LINE",
"140 219 LINE"
);
},
{
closed = 1;
nodes = (
"390 750 LINE",
"315 895 LINE",
"250 895 LINE",
"249 892 LINE",
"340 750 LINE"
);
}
);
width = 650;
}
);
unicode = 00C0;
},
{
glyphname = Aacute;
lastChange = "2014-09-05 18:36:16 +0000";
layers = (
{
background = {
paths = (
{
closed = 1;
nodes = (
"522 0 LINE",
"581 0 LINE",
"394 686 LINE",
"344 686 LINE",
"-36 0 LINE",
"19 0 LINE",
"113 170 LINE",
"475 170 LINE"
);
},
{
closed = 1;
nodes = (
"354 612 LINE",
"358 612 LINE",
"462 219 LINE",
"140 219 LINE"
);
},
{
closed = 1;
nodes = (
"396 750 LINE",
"527 892 LINE",
"528 895 LINE",
"463 895 LINE",
"346 750 LINE"
);
}
);
};
layerId = "65EC8A7C-8A8B-4926-A170-31F830B4F708";
paths = (
{
closed = 1;
nodes = (
"522 0 LINE",
"581 0 LINE",
"394 686 LINE",
"344 686 LINE",
"-36 0 LINE",
"19 0 LINE",
"113 170 LINE",
"475 170 LINE"
);
},
{
closed = 1;
nodes = (
"354 612 LINE",
"358 612 LINE",
"462 219 LINE",
"140 219 LINE"
);
},
{
closed = 1;
nodes = (
"396 750 LINE",
"527 892 LINE",
"528 895 LINE",
"463 895 LINE",
"346 750 LINE"
);
}
);
width = 650;
}
);
unicode = 00C1;
},
{
glyphname = Acircumflex;
lastChange = "2014-09-05 18:36:16 +0000";
layers = (
{
background = {
paths = (
{
closed = 1;
nodes = (
"522 0 LINE",
"581 0 LINE",
"394 686 LINE",
"344 686 LINE",
"-36 0 LINE",
"19 0 LINE",
"113 170 LINE",
"475 170 LINE"
);
},
{
closed = 1;
nodes = (
"354 612 LINE",
"358 612 LINE",
"462 219 LINE",
"140 219 LINE"
);
},
{
closed = 1;
nodes = (
"219 750 LINE",
"279 750 LINE",
"396 847 LINE",
"485 750 LINE",
"545 750 LINE",
"432 895 LINE",
"374 895 LINE"
);
}
);
};
layerId = "65EC8A7C-8A8B-4926-A170-31F830B4F708";
paths = (
{
closed = 1;
nodes = (
"522 0 LINE",
"581 0 LINE",
"394 686 LINE",
"344 686 LINE",
"-36 0 LINE",
"19 0 LINE",
"113 170 LINE",
"475 170 LINE"
);
},
{
closed = 1;
nodes = (
"354 612 LINE",
"358 612 LINE",
"462 219 LINE",
"140 219 LINE"
);
},
{
closed = 1;
nodes = (
"219 750 LINE",
"279 750 LINE",
"396 847 LINE",
"485 750 LINE",
"545 750 LINE",
"432 895 LINE",
"374 895 LINE"
);
}
);
width = 650;
}
);
unicode = 00C2;
},
{
glyphname = Atilde;
lastChange = "2014-09-05 18:36:16 +0000";
layers = (
{
background = {
paths = (
{
closed = 1;
nodes = (
"522 0 LINE",
"581 0 LINE",
"394 686 LINE",
"344 686 LINE",
"-36 0 LINE",
"19 0 LINE",
"113 170 LINE",
"475 170 LINE"
);
},
{
closed = 1;
nodes = (
"354 612 LINE",
"358 612 LINE",
"462 219 LINE",
"140 219 LINE"
);
},
{
closed = 1;
nodes = (
"530 832 LINE",
"520 809 OFFCURVE",
"502 800 OFFCURVE",
"469 800 CURVE SMOOTH",
"415 800 OFFCURVE",
"370 832 OFFCURVE",
"306 832 CURVE SMOOTH",
"228 832 OFFCURVE",
"198 782 OFFCURVE",
"194 750 CURVE",
"231 750 LINE",
"241 773 OFFCURVE",
"259 782 OFFCURVE",
"292 782 CURVE SMOOTH",
"346 782 OFFCURVE",
"391 750 OFFCURVE",
"455 750 CURVE SMOOTH",
"534 750 OFFCURVE",
"563 800 OFFCURVE",
"567 832 CURVE"
);
}
);
};
layerId = "65EC8A7C-8A8B-4926-A170-31F830B4F708";
paths = (
{
closed = 1;
nodes = (
"522 0 LINE",
"581 0 LINE",
"394 686 LINE",
"344 686 LINE",
"-36 0 LINE",
"19 0 LINE",
"113 170 LINE",
"475 170 LINE"
);
},
{
closed = 1;
nodes = (
"354 612 LINE",
"358 612 LINE",
"462 219 LINE",
"140 219 LINE"
);
},
{
closed = 1;
nodes = (
"530 832 LINE",
"520 809 OFFCURVE",
"502 800 OFFCURVE",
"469 800 CURVE SMOOTH",
"415 800 OFFCURVE",
"370 832 OFFCURVE",
"306 832 CURVE SMOOTH",
"228 832 OFFCURVE",
"198 782 OFFCURVE",
"194 750 CURVE",
"231 750 LINE",
"241 773 OFFCURVE",
"259 782 OFFCURVE",
"292 782 CURVE SMOOTH",
"346 782 OFFCURVE",
"391 750 OFFCURVE",
"455 750 CURVE SMOOTH",
"534 750 OFFCURVE",
"563 800 OFFCURVE",
"567 832 CURVE"
);
}
);
width = 650;
}
);
unicode = 00C3;
},
{
glyphname = Adieresis;
lastChange = "2014-09-05 18:36:16 +0000";
layers = (
{
background = {
paths = (
{
closed = 1;
nodes = (
"522 0 LINE",
"581 0 LINE",
"394 686 LINE",
"344 686 LINE",
"-36 0 LINE",
"19 0 LINE",
"113 170 LINE",
"475 170 LINE"
);
},
{
closed = 1;
nodes = (
"354 612 LINE",
"358 612 LINE",
"462 219 LINE",
"140 219 LINE"
);
},
{
closed = 1;
nodes = (
"252 750 LINE",
"317 750 LINE",
"326 819 LINE",
"261 819 LINE"
);
},
{
closed = 1;
nodes = (
"428 750 LINE",
"493 750 LINE",
"502 819 LINE",
"437 819 LINE"
);
}
);
};
layerId = "65EC8A7C-8A8B-4926-A170-31F830B4F708";
paths = (
{
closed = 1;
nodes = (
"522 0 LINE",
"581 0 LINE",
"394 686 LINE",
"344 686 LINE",
"-36 0 LINE",
"19 0 LINE",
"113 170 LINE",
"475 170 LINE"
);
},
{
closed = 1;
nodes = (
"354 612 LINE",
"358 612 LINE",
"462 219 LINE",
"140 219 LINE"
);
},
{
closed = 1;
nodes = (
"252 750 LINE",
"317 750 LINE",
"326 819 LINE",
"261 819 LINE"
);
},
{
closed = 1;
nodes = (
"428 750 LINE",
"493 750 LINE",
"502 819 LINE",
"437 819 LINE"
);
}
);
width = 650;
}
);
unicode = 00C4;
},
{
glyphname = Aring;
lastChange = "2014-09-05 18:36:16 +0000";
layers = (
{
background = {
paths = (
{
closed = 1;
nodes = (
"522 0 LINE",
"581 0 LINE",
"394 686 LINE",
"344 686 LINE",
"-36 0 LINE",
"19 0 LINE",
"113 170 LINE",
"475 170 LINE"
);
},
{
closed = 1;
nodes = (
"354 612 LINE",
"358 612 LINE",
"462 219 LINE",
"140 219 LINE"
);
},
{
closed = 1;
nodes = (
"490 884 OFFCURVE",
"453 921 OFFCURVE",
"403 921 CURVE SMOOTH",
"343 921 OFFCURVE",
"286 873 OFFCURVE",
"286 807 CURVE SMOOTH",
"286 757 OFFCURVE",
"323 720 OFFCURVE",
"374 720 CURVE SMOOTH",
"438 720 OFFCURVE",
"490 772 OFFCURVE",
"490 835 CURVE SMOOTH"
);
},
{
closed = 1;
nodes = (
"347 756 OFFCURVE",
"322 779 OFFCURVE",
"322 811 CURVE SMOOTH",
"322 851 OFFCURVE",
"359 885 OFFCURVE",
"398 885 CURVE SMOOTH",
"429 885 OFFCURVE",
"454 862 OFFCURVE",
"454 830 CURVE SMOOTH",
"454 789 OFFCURVE",
"418 756 OFFCURVE",
"379 756 CURVE SMOOTH"
);
}
);
};
layerId = "65EC8A7C-8A8B-4926-A170-31F830B4F708";
paths = (
{
closed = 1;
nodes = (
"522 0 LINE",
"581 0 LINE",
"394 686 LINE",
"344 686 LINE",
"-36 0 LINE",
"19 0 LINE",
"113 170 LINE",
"475 170 LINE"
);
},
{
closed = 1;
nodes = (
"354 612 LINE",
"358 612 LINE",
"462 219 LINE",
"140 219 LINE"
);
},
{
closed = 1;
nodes = (
"490 884 OFFCURVE",
"453 921 OFFCURVE",
"403 921 CURVE SMOOTH",
"343 921 OFFCURVE",
"286 873 OFFCURVE",
"286 807 CURVE SMOOTH",
"286 757 OFFCURVE",
"323 720 OFFCURVE",
"374 720 CURVE SMOOTH",
"438 720 OFFCURVE",
"490 772 OFFCURVE",
"490 835 CURVE SMOOTH"
);
},
{
closed = 1;
nodes = (
"347 756 OFFCURVE",
"322 779 OFFCURVE",
"322 811 CURVE SMOOTH",
"322 851 OFFCURVE",
"359 885 OFFCURVE",
"398 885 CURVE SMOOTH",
"429 885 OFFCURVE",
"454 862 OFFCURVE",
"454 830 CURVE SMOOTH",
"454 789 OFFCURVE",
"418 756 OFFCURVE",
"379 756 CURVE SMOOTH"
);
}
);
width = 650;
}
);
unicode = 00C5;
},
{
glyphname = AE;
lastChange = "2014-09-05 19:12:14 +0000";
layers = (
{
anchors = (
{
name = top;
position = "{442, 686}";
}
);
background = {
anchors = (
{
name = top;
position = "{552, 686}";
}
);
paths = (
{
closed = 1;
nodes = (
"873 0 LINE",
"864 48 LINE",
"568 48 LINE",
"492 326 LINE",
"812 326 LINE",
"812 374 LINE",
"479 374 LINE",
"407 638 LINE",
"851 638 LINE",
"863 686 LINE",
"348 686 LINE",
"-33 0 LINE",
"29 0 LINE",
"123 170 LINE",
"477 170 LINE",
"524 0 LINE"
);
},
{
closed = 1;
nodes = (
"358 607 LINE",
"361 608 LINE",
"464 219 LINE",
"150 219 LINE"
);
}
);
};
layerId = "65EC8A7C-8A8B-4926-A170-31F830B4F708";
paths = (
{
closed = 1;
nodes = (
"873 0 LINE",
"864 48 LINE",
"568 48 LINE",
"492 326 LINE",
"812 326 LINE",
"812 374 LINE",
"479 374 LINE",
"407 638 LINE",
"851 638 LINE",
"863 686 LINE",
"348 686 LINE",
"-33 0 LINE",
"29 0 LINE",
"123 170 LINE",
"477 170 LINE",
"524 0 LINE"
);
},
{
closed = 1;
nodes = (
"358 607 LINE",
"361 608 LINE",
"464 219 LINE",
"150 219 LINE"
);
}
);
width = 981;
}
);
unicode = 00C6;
},
{
glyphname = Ccedilla;
lastChange = "2014-09-05 18:36:16 +0000";
layers = (
{
background = {
paths = (
{
closed = 1;
nodes = (
"513 251 LINE",
"489 81 OFFCURVE",
"387 38 OFFCURVE",
"282 38 CURVE SMOOTH",
"182 38 OFFCURVE",
"110 76 OFFCURVE",
"110 227 CURVE SMOOTH",
"110 254 OFFCURVE",
"111 284 OFFCURVE",
"123 368 CURVE SMOOTH",
"155 595 OFFCURVE",
"250 648 OFFCURVE",
"367 648 CURVE SMOOTH",
"460 648 OFFCURVE",
"542 615 OFFCURVE",
"542 486 CURVE SMOOTH",
"542 470 OFFCURVE",
"541 453 OFFCURVE",
"538 434 CURVE",
"591 434 LINE",
"594 456 OFFCURVE",
"596 477 OFFCURVE",
"596 496 CURVE SMOOTH",
"596 653 OFFCURVE",
"492 696 OFFCURVE",
"374 696 CURVE SMOOTH",
"227 696 OFFCURVE",
"104 631 OFFCURVE",
"68 356 CURVE SMOOTH",
"59 289 OFFCURVE",
"57 254 OFFCURVE",
"57 223 CURVE SMOOTH",
"57 37 OFFCURVE",
"149 -10 OFFCURVE",
"275 -10 CURVE SMOOTH",
"407 -10 OFFCURVE",
"537 48 OFFCURVE",
"566 251 CURVE"
);
},
{
closed = 1;
nodes = (
"149 -184 LINE",
"171 -193 OFFCURVE",
"200 -197 OFFCURVE",
"225 -197 CURVE SMOOTH",
"273 -197 OFFCURVE",
"357 -177 OFFCURVE",
"357 -90 CURVE SMOOTH",
"357 -22 OFFCURVE",
"296 -17 OFFCURVE",
"237 -17 CURVE",
"232 -51 LINE",
"254 -51 LINE SMOOTH",
"279 -51 OFFCURVE",
"306 -64 OFFCURVE",
"306 -91 CURVE SMOOTH",
"306 -139 OFFCURVE",
"258 -151 OFFCURVE",
"222 -151 CURVE SMOOTH",
"189 -151 OFFCURVE",
"167 -145 OFFCURVE",
"155 -138 CURVE"
);
}
);
};
layerId = "65EC8A7C-8A8B-4926-A170-31F830B4F708";
paths = (
{
closed = 1;
nodes = (
"513 251 LINE",
"489 81 OFFCURVE",
"387 38 OFFCURVE",
"282 38 CURVE SMOOTH",
"182 38 OFFCURVE",
"110 76 OFFCURVE",
"110 227 CURVE SMOOTH",
"110 254 OFFCURVE",
"111 284 OFFCURVE",
"123 368 CURVE SMOOTH",
"155 595 OFFCURVE",
"250 648 OFFCURVE",
"367 648 CURVE SMOOTH",
"460 648 OFFCURVE",
"542 615 OFFCURVE",
"542 486 CURVE SMOOTH",
"542 470 OFFCURVE",
"541 453 OFFCURVE",
"538 434 CURVE",
"591 434 LINE",
"594 456 OFFCURVE",
"596 477 OFFCURVE",
"596 496 CURVE SMOOTH",
"596 653 OFFCURVE",
"492 696 OFFCURVE",
"374 696 CURVE SMOOTH",
"227 696 OFFCURVE",
"104 631 OFFCURVE",
"68 356 CURVE SMOOTH",
"59 289 OFFCURVE",
"57 254 OFFCURVE",
"57 223 CURVE SMOOTH",
"57 37 OFFCURVE",
"149 -10 OFFCURVE",
"275 -10 CURVE SMOOTH",
"407 -10 OFFCURVE",
"537 48 OFFCURVE",
"566 251 CURVE"
);
},
{
closed = 1;
nodes = (
"149 -184 LINE",
"171 -193 OFFCURVE",
"200 -197 OFFCURVE",
"225 -197 CURVE SMOOTH",
"273 -197 OFFCURVE",
"357 -177 OFFCURVE",
"357 -90 CURVE SMOOTH",
"357 -22 OFFCURVE",
"296 -17 OFFCURVE",
"237 -17 CURVE",
"232 -51 LINE",
"254 -51 LINE SMOOTH",
"279 -51 OFFCURVE",
"306 -64 OFFCURVE",
"306 -91 CURVE SMOOTH",
"306 -139 OFFCURVE",
"258 -151 OFFCURVE",
"222 -151 CURVE SMOOTH",
"189 -151 OFFCURVE",
"167 -145 OFFCURVE",
"155 -138 CURVE"
);
}
);
width = 662;
}
);
unicode = 00C7;
},
{
glyphname = Egrave;
lastChange = "2014-09-05 18:36:16 +0000";
layers = (
{
background = {
paths = (
{
closed = 1;
nodes = (
"481 0 LINE",
"481 48 LINE",
"112 48 LINE",
"151 326 LINE",
"470 326 LINE",
"477 374 LINE",
"158 374 LINE",
"195 638 LINE",
"559 638 LINE",
"572 686 LINE",
"148 686 LINE",
"51 0 LINE"
);
},
{
closed = 1;
nodes = (
"391 750 LINE",
"316 895 LINE",
"251 895 LINE",
"250 892 LINE",
"341 750 LINE"
);
}
);
};
layerId = "65EC8A7C-8A8B-4926-A170-31F830B4F708";
paths = (
{
closed = 1;
nodes = (
"481 0 LINE",
"481 48 LINE",
"112 48 LINE",
"151 326 LINE",
"470 326 LINE",
"477 374 LINE",
"158 374 LINE",
"195 638 LINE",
"559 638 LINE",
"572 686 LINE",
"148 686 LINE",
"51 0 LINE"
);
},
{
closed = 1;
nodes = (
"391 750 LINE",
"316 895 LINE",
"251 895 LINE",
"250 892 LINE",
"341 750 LINE"
);
}
);
width = 592;
}
);
unicode = 00C8;
},
{
glyphname = Eacute;
lastChange = "2014-09-05 18:36:16 +0000";
layers = (
{
background = {
paths = (
{
closed = 1;
nodes = (
"481 0 LINE",
"481 48 LINE",
"112 48 LINE",
"151 326 LINE",
"470 326 LINE",
"477 374 LINE",
"158 374 LINE",
"195 638 LINE",
"559 638 LINE",
"572 686 LINE",
"148 686 LINE",
"51 0 LINE"
);
},
{
closed = 1;
nodes = (
"384 750 LINE",
"515 892 LINE",
"516 895 LINE",
"451 895 LINE",
"334 750 LINE"
);
}
);
};
layerId = "65EC8A7C-8A8B-4926-A170-31F830B4F708";
paths = (
{
closed = 1;
nodes = (
"481 0 LINE",
"481 48 LINE",
"112 48 LINE",
"151 326 LINE",
"470 326 LINE",
"477 374 LINE",
"158 374 LINE",
"195 638 LINE",
"559 638 LINE",
"572 686 LINE",
"148 686 LINE",
"51 0 LINE"
);
},
{
closed = 1;
nodes = (
"384 750 LINE",
"515 892 LINE",
"516 895 LINE",
"451 895 LINE",
"334 750 LINE"
);
}
);
width = 592;
}
);
unicode = 00C9;
},
{
glyphname = Ecircumflex;
lastChange = "2014-09-05 18:36:16 +0000";
layers = (
{
background = {
paths = (
{
closed = 1;
nodes = (
"481 0 LINE",
"481 48 LINE",
"112 48 LINE",
"151 326 LINE",
"470 326 LINE",
"477 374 LINE",
"158 374 LINE",
"195 638 LINE",
"559 638 LINE",
"572 686 LINE",
"148 686 LINE",
"51 0 LINE"
);
},
{
closed = 1;
nodes = (
"199 750 LINE",
"259 750 LINE",
"376 847 LINE",
"465 750 LINE",
"525 750 LINE",
"412 895 LINE",
"354 895 LINE"
);
}
);
};
layerId = "65EC8A7C-8A8B-4926-A170-31F830B4F708";
paths = (
{
closed = 1;
nodes = (
"481 0 LINE",
"481 48 LINE",
"112 48 LINE",
"151 326 LINE",
"470 326 LINE",
"477 374 LINE",
"158 374 LINE",
"195 638 LINE",
"559 638 LINE",
"572 686 LINE",
"148 686 LINE",
"51 0 LINE"
);
},
{
closed = 1;
nodes = (
"199 750 LINE",
"259 750 LINE",
"376 847 LINE",
"465 750 LINE",
"525 750 LINE",
"412 895 LINE",
"354 895 LINE"
);
}
);
width = 592;
}
);
unicode = 00CA;
},
{
glyphname = Edieresis;
lastChange = "2014-09-05 18:36:16 +0000";
layers = (
{
background = {
paths = (
{
closed = 1;
nodes = (
"481 0 LINE",
"481 48 LINE",
"112 48 LINE",
"151 326 LINE",
"470 326 LINE",
"477 374 LINE",
"158 374 LINE",
"195 638 LINE",
"559 638 LINE",
"572 686 LINE",
"148 686 LINE",
"51 0 LINE"
);
},
{
closed = 1;
nodes = (
"254 750 LINE",
"319 750 LINE",
"328 819 LINE",
"263 819 LINE"
);
},
{
closed = 1;
nodes = (
"430 750 LINE",
"495 750 LINE",
"504 819 LINE",
"439 819 LINE"
);
}
);
};
layerId = "65EC8A7C-8A8B-4926-A170-31F830B4F708";
paths = (
{
closed = 1;
nodes = (
"481 0 LINE",
"481 48 LINE",
"112 48 LINE",
"151 326 LINE",
"470 326 LINE",
"477 374 LINE",
"158 374 LINE",
"195 638 LINE",
"559 638 LINE",
"572 686 LINE",
"148 686 LINE",
"51 0 LINE"
);
},
{
closed = 1;
nodes = (
"254 750 LINE",
"319 750 LINE",
"328 819 LINE",
"263 819 LINE"
);
},
{
closed = 1;
nodes = (
"430 750 LINE",
"495 750 LINE",
"504 819 LINE",
"439 819 LINE"
);
}
);
width = 592;
}
);
unicode = 00CB;
},
{
glyphname = Igrave;
lastChange = "2014-09-05 18:36:16 +0000";
layers = (
{
background = {
paths = (
{
closed = 1;
nodes = (
"102 637 LINE",
"181 637 LINE",
"98 49 LINE",
"19 49 LINE",
"12 0 LINE",
"224 0 LINE",
"231 49 LINE",
"152 49 LINE",
"235 637 LINE",
"314 637 LINE",
"321 686 LINE",
"109 686 LINE"
);
},
{
closed = 1;
nodes = (
"249 750 LINE",
"174 895 LINE",
"109 895 LINE",
"108 892 LINE",
"199 750 LINE"
);
}
);
};
layerId = "65EC8A7C-8A8B-4926-A170-31F830B4F708";
paths = (
{
closed = 1;
nodes = (
"102 637 LINE",
"181 637 LINE",
"98 49 LINE",
"19 49 LINE",
"12 0 LINE",
"224 0 LINE",
"231 49 LINE",
"152 49 LINE",
"235 637 LINE",
"314 637 LINE",
"321 686 LINE",
"109 686 LINE"
);
},
{
closed = 1;
nodes = (
"249 750 LINE",
"174 895 LINE",
"109 895 LINE",
"108 892 LINE",
"199 750 LINE"
);
}
);
width = 365;
}
);
unicode = 00CC;
},
{
glyphname = Iacute;
lastChange = "2014-09-05 18:36:16 +0000";
layers = (
{
background = {
paths = (
{
closed = 1;
nodes = (
"102 637 LINE",
"181 637 LINE",
"98 49 LINE",
"19 49 LINE",
"12 0 LINE",
"224 0 LINE",
"231 49 LINE",
"152 49 LINE",
"235 637 LINE",
"314 637 LINE",
"321 686 LINE",
"109 686 LINE"
);
},
{
closed = 1;
nodes = (
"244 750 LINE",
"375 892 LINE",
"376 895 LINE",
"311 895 LINE",
"194 750 LINE"
);
}
);
};
layerId = "65EC8A7C-8A8B-4926-A170-31F830B4F708";
paths = (
{
closed = 1;
nodes = (
"102 637 LINE",
"181 637 LINE",
"98 49 LINE",
"19 49 LINE",
"12 0 LINE",
"224 0 LINE",
"231 49 LINE",
"152 49 LINE",
"235 637 LINE",
"314 637 LINE",
"321 686 LINE",
"109 686 LINE"
);
},
{
closed = 1;
nodes = (
"244 750 LINE",
"375 892 LINE",
"376 895 LINE",
"311 895 LINE",
"194 750 LINE"
);
}
);
width = 365;
}
);
unicode = 00CD;
},
{
glyphname = Icircumflex;
lastChange = "2014-09-05 18:36:16 +0000";
layers = (
{
background = {
paths = (
{
closed = 1;
nodes = (
"102 637 LINE",
"181 637 LINE",
"98 49 LINE",
"19 49 LINE",
"12 0 LINE",
"224 0 LINE",
"231 49 LINE",
"152 49 LINE",
"235 637 LINE",
"314 637 LINE",
"321 686 LINE",
"109 686 LINE"
);
},
{
closed = 1;
nodes = (
"61 750 LINE",
"121 750 LINE",
"238 847 LINE",
"327 750 LINE",
"387 750 LINE",
"274 895 LINE",
"216 895 LINE"
);
}
);
};
layerId = "65EC8A7C-8A8B-4926-A170-31F830B4F708";
paths = (
{
closed = 1;
nodes = (
"102 637 LINE",
"181 637 LINE",
"98 49 LINE",
"19 49 LINE",
"12 0 LINE",
"224 0 LINE",
"231 49 LINE",
"152 49 LINE",
"235 637 LINE",
"314 637 LINE",
"321 686 LINE",
"109 686 LINE"
);
},
{
closed = 1;
nodes = (
"61 750 LINE",
"121 750 LINE",
"238 847 LINE",
"327 750 LINE",
"387 750 LINE",
"274 895 LINE",
"216 895 LINE"
);
}
);
width = 365;
}
);
unicode = 00CE;
},
{
glyphname = Idieresis;
lastChange = "2014-09-05 18:36:16 +0000";
layers = (
{
background = {
paths = (
{
closed = 1;
nodes = (
"102 637 LINE",
"181 637 LINE",
"98 49 LINE",
"19 49 LINE",
"12 0 LINE",
"224 0 LINE",
"231 49 LINE",
"152 49 LINE",
"235 637 LINE",
"314 637 LINE",
"321 686 LINE",
"109 686 LINE"
);
},
{
closed = 1;
nodes = (
"102 751 LINE",
"167 751 LINE",
"176 820 LINE",
"111 820 LINE"
);
},
{
closed = 1;
nodes = (
"278 751 LINE",
"343 751 LINE",
"352 820 LINE",
"287 820 LINE"
);
}
);
};
layerId = "65EC8A7C-8A8B-4926-A170-31F830B4F708";
paths = (
{
closed = 1;
nodes = (
"102 637 LINE",
"181 637 LINE",
"98 49 LINE",
"19 49 LINE",
"12 0 LINE",
"224 0 LINE",
"231 49 LINE",
"152 49 LINE",
"235 637 LINE",
"314 637 LINE",
"321 686 LINE",
"109 686 LINE"
);
},
{
closed = 1;
nodes = (
"102 751 LINE",
"167 751 LINE",
"176 820 LINE",
"111 820 LINE"
);
},
{
closed = 1;
nodes = (
"278 751 LINE",
"343 751 LINE",
"352 820 LINE",
"287 820 LINE"
);
}
);
width = 365;
}
);
unicode = 00CF;
},
{
glyphname = Eth;
lastChange = "2014-09-05 18:36:16 +0000";
layers = (
{
background = {
paths = (
{
closed = 1;
nodes = (
"284 0 LINE SMOOTH",
"438 0 OFFCURVE",
"564 74 OFFCURVE",
"597 331 CURVE SMOOTH",
"605 391 OFFCURVE",
"607 421 OFFCURVE",
"607 450 CURVE SMOOTH",
"607 632 OFFCURVE",
"508 686 OFFCURVE",
"381 686 CURVE SMOOTH",
"161 686 LINE",
"116 367 LINE",
"16 367 LINE",
"10 319 LINE",
"109 319 LINE",
"64 0 LINE"
);
},
{
closed = 1;
nodes = (
"125 48 LINE",
"163 319 LINE",
"335 319 LINE",
"342 367 LINE",
"170 367 LINE",
"208 638 LINE",
"374 638 LINE SMOOTH",
"481 638 OFFCURVE",
"554 592 OFFCURVE",
"554 441 CURVE SMOOTH",
"554 418 OFFCURVE",
"552 393 OFFCURVE",
"542 322 CURVE SMOOTH",
"511 104 OFFCURVE",
"408 48 OFFCURVE",
"291 48 CURVE SMOOTH"
);
}
);
};
layerId = "65EC8A7C-8A8B-4926-A170-31F830B4F708";
paths = (
{
closed = 1;
nodes = (
"284 0 LINE SMOOTH",
"438 0 OFFCURVE",
"564 74 OFFCURVE",
"597 331 CURVE SMOOTH",
"605 391 OFFCURVE",
"607 421 OFFCURVE",
"607 450 CURVE SMOOTH",
"607 632 OFFCURVE",
"508 686 OFFCURVE",
"381 686 CURVE SMOOTH",
"161 686 LINE",
"116 367 LINE",
"16 367 LINE",
"10 319 LINE",
"109 319 LINE",
"64 0 LINE"
);
},
{
closed = 1;
nodes = (
"125 48 LINE",
"163 319 LINE",
"335 319 LINE",
"342 367 LINE",
"170 367 LINE",
"208 638 LINE",
"374 638 LINE SMOOTH",
"481 638 OFFCURVE",
"554 592 OFFCURVE",
"554 441 CURVE SMOOTH",
"554 418 OFFCURVE",
"552 393 OFFCURVE",
"542 322 CURVE SMOOTH",
"511 104 OFFCURVE",
"408 48 OFFCURVE",
"291 48 CURVE SMOOTH"
);
}
);
width = 682;
}
);
unicode = 00D0;
},
{
glyphname = Ntilde;
lastChange = "2014-09-05 18:36:16 +0000";
layers = (
{
background = {
paths = (
{
closed = 1;
nodes = (
"530 0 LINE",
"627 686 LINE",
"579 686 LINE",
"497 103 LINE",
"493 103 LINE",
"194 686 LINE",
"148 686 LINE",
"51 0 LINE",
"99 0 LINE",
"181 583 LINE",
"185 583 LINE",
"482 0 LINE"
);
},
{
closed = 1;
nodes = (
"555 832 LINE",
"545 809 OFFCURVE",
"527 800 OFFCURVE",
"494 800 CURVE SMOOTH",
"440 800 OFFCURVE",
"395 832 OFFCURVE",
"331 832 CURVE SMOOTH",
"253 832 OFFCURVE",
"223 782 OFFCURVE",
"219 750 CURVE",
"256 750 LINE",
"266 773 OFFCURVE",
"284 782 OFFCURVE",
"317 782 CURVE SMOOTH",
"371 782 OFFCURVE",
"416 750 OFFCURVE",
"480 750 CURVE SMOOTH",
"559 750 OFFCURVE",
"588 800 OFFCURVE",
"592 832 CURVE"
);
}
);
};
layerId = "65EC8A7C-8A8B-4926-A170-31F830B4F708";
paths = (
{
closed = 1;
nodes = (
"530 0 LINE",
"627 686 LINE",
"579 686 LINE",
"497 103 LINE",
"493 103 LINE",
"194 686 LINE",
"148 686 LINE",
"51 0 LINE",
"99 0 LINE",
"181 583 LINE",
"185 583 LINE",
"482 0 LINE"
);
},
{
closed = 1;
nodes = (
"555 832 LINE",
"545 809 OFFCURVE",
"527 800 OFFCURVE",
"494 800 CURVE SMOOTH",
"440 800 OFFCURVE",
"395 832 OFFCURVE",
"331 832 CURVE SMOOTH",
"253 832 OFFCURVE",
"223 782 OFFCURVE",
"219 750 CURVE",
"256 750 LINE",
"266 773 OFFCURVE",
"284 782 OFFCURVE",
"317 782 CURVE SMOOTH",
"371 782 OFFCURVE",
"416 750 OFFCURVE",
"480 750 CURVE SMOOTH",
"559 750 OFFCURVE",
"588 800 OFFCURVE",
"592 832 CURVE"
);
}
);
width = 694;
}
);
unicode = 00D1;
},
{
glyphname = Ograve;
lastChange = "2014-09-05 18:36:16 +0000";
layers = (
{
background = {
paths = (
{
closed = 1;
nodes = (
"430 -10 OFFCURVE",
"562 54 OFFCURVE",
"597 330 CURVE SMOOTH",
"605 394 OFFCURVE",
"608 428 OFFCURVE",
"608 458 CURVE SMOOTH",
"608 648 OFFCURVE",
"509 696 OFFCURVE",
"382 696 CURVE SMOOTH",
"235 696 OFFCURVE",
"104 631 OFFCURVE",
"68 356 CURVE SMOOTH",
"59 291 OFFCURVE",
"57 258 OFFCURVE",
"57 228 CURVE SMOOTH",
"57 38 OFFCURVE",
"156 -10 OFFCURVE",
"283 -10 CURVE SMOOTH"
);
},
{
closed = 1;
nodes = (
"189 38 OFFCURVE",
"110 77 OFFCURVE",
"110 232 CURVE SMOOTH",
"110 257 OFFCURVE",
"111 286 OFFCURVE",
"123 368 CURVE SMOOTH",
"156 595 OFFCURVE",
"258 648 OFFCURVE",
"375 648 CURVE SMOOTH",
"475 648 OFFCURVE",
"555 609 OFFCURVE",
"555 454 CURVE SMOOTH",
"555 428 OFFCURVE",
"553 400 OFFCURVE",
"542 318 CURVE SMOOTH",
"511 91 OFFCURVE",
"407 38 OFFCURVE",
"290 38 CURVE SMOOTH"
);
},
{
closed = 1;
nodes = (
"428 750 LINE",
"353 895 LINE",
"288 895 LINE",
"287 892 LINE",
"378 750 LINE"
);
}
);
};
layerId = "65EC8A7C-8A8B-4926-A170-31F830B4F708";
paths = (
{
closed = 1;
nodes = (
"430 -10 OFFCURVE",
"562 54 OFFCURVE",
"597 330 CURVE SMOOTH",
"605 394 OFFCURVE",
"608 428 OFFCURVE",
"608 458 CURVE SMOOTH",
"608 648 OFFCURVE",
"509 696 OFFCURVE",
"382 696 CURVE SMOOTH",
"235 696 OFFCURVE",
"104 631 OFFCURVE",
"68 356 CURVE SMOOTH",
"59 291 OFFCURVE",
"57 258 OFFCURVE",
"57 228 CURVE SMOOTH",
"57 38 OFFCURVE",
"156 -10 OFFCURVE",
"283 -10 CURVE SMOOTH"
);
},
{
closed = 1;
nodes = (
"189 38 OFFCURVE",
"110 77 OFFCURVE",
"110 232 CURVE SMOOTH",
"110 257 OFFCURVE",
"111 286 OFFCURVE",
"123 368 CURVE SMOOTH",
"156 595 OFFCURVE",
"258 648 OFFCURVE",
"375 648 CURVE SMOOTH",
"475 648 OFFCURVE",
"555 609 OFFCURVE",
"555 454 CURVE SMOOTH",
"555 428 OFFCURVE",
"553 400 OFFCURVE",
"542 318 CURVE SMOOTH",
"511 91 OFFCURVE",
"407 38 OFFCURVE",
"290 38 CURVE SMOOTH"
);
},
{
closed = 1;
nodes = (
"428 750 LINE",
"353 895 LINE",
"288 895 LINE",
"287 892 LINE",
"378 750 LINE"
);
}
);
width = 690;
}
);
unicode = 00D2;
},
{
glyphname = Oacute;
lastChange = "2014-09-05 18:36:16 +0000";
layers = (
{
background = {
paths = (
{
closed = 1;
nodes = (
"430 -10 OFFCURVE",
"562 54 OFFCURVE",
"597 330 CURVE SMOOTH",
"605 394 OFFCURVE",
"608 428 OFFCURVE",
"608 458 CURVE SMOOTH",
"608 648 OFFCURVE",
"509 696 OFFCURVE",
"382 696 CURVE SMOOTH",
"235 696 OFFCURVE",
"104 631 OFFCURVE",
"68 356 CURVE SMOOTH",
"59 291 OFFCURVE",
"57 258 OFFCURVE",
"57 228 CURVE SMOOTH",
"57 38 OFFCURVE",
"156 -10 OFFCURVE",
"283 -10 CURVE SMOOTH"
);
},
{
closed = 1;
nodes = (
"189 38 OFFCURVE",
"110 77 OFFCURVE",
"110 232 CURVE SMOOTH",
"110 257 OFFCURVE",
"111 286 OFFCURVE",
"123 368 CURVE SMOOTH",
"156 595 OFFCURVE",
"258 648 OFFCURVE",
"375 648 CURVE SMOOTH",
"475 648 OFFCURVE",
"555 609 OFFCURVE",
"555 454 CURVE SMOOTH",
"555 428 OFFCURVE",
"553 400 OFFCURVE",
"542 318 CURVE SMOOTH",
"511 91 OFFCURVE",
"407 38 OFFCURVE",
"290 38 CURVE SMOOTH"
);
},
{
closed = 1;
nodes = (
"418 750 LINE",
"549 892 LINE",
"550 895 LINE",
"485 895 LINE",
"368 750 LINE"
);
}
);
};
layerId = "65EC8A7C-8A8B-4926-A170-31F830B4F708";
paths = (
{
closed = 1;
nodes = (
"430 -10 OFFCURVE",
"562 54 OFFCURVE",
"597 330 CURVE SMOOTH",
"605 394 OFFCURVE",
"608 428 OFFCURVE",
"608 458 CURVE SMOOTH",
"608 648 OFFCURVE",
"509 696 OFFCURVE",
"382 696 CURVE SMOOTH",
"235 696 OFFCURVE",
"104 631 OFFCURVE",
"68 356 CURVE SMOOTH",
"59 291 OFFCURVE",
"57 258 OFFCURVE",
"57 228 CURVE SMOOTH",
"57 38 OFFCURVE",
"156 -10 OFFCURVE",
"283 -10 CURVE SMOOTH"
);
},
{
closed = 1;
nodes = (
"189 38 OFFCURVE",
"110 77 OFFCURVE",
"110 232 CURVE SMOOTH",
"110 257 OFFCURVE",
"111 286 OFFCURVE",
"123 368 CURVE SMOOTH",
"156 595 OFFCURVE",
"258 648 OFFCURVE",
"375 648 CURVE SMOOTH",
"475 648 OFFCURVE",
"555 609 OFFCURVE",
"555 454 CURVE SMOOTH",
"555 428 OFFCURVE",
"553 400 OFFCURVE",
"542 318 CURVE SMOOTH",
"511 91 OFFCURVE",
"407 38 OFFCURVE",
"290 38 CURVE SMOOTH"
);
},
{
closed = 1;
nodes = (
"418 750 LINE",
"549 892 LINE",
"550 895 LINE",
"485 895 LINE",
"368 750 LINE"
);
}
);
width = 690;
}
);
unicode = 00D3;
},
{
glyphname = Ocircumflex;
lastChange = "2014-09-05 18:36:16 +0000";
layers = (
{
background = {
paths = (
{
closed = 1;
nodes = (
"430 -10 OFFCURVE",
"562 54 OFFCURVE",
"597 330 CURVE SMOOTH",
"605 394 OFFCURVE",
"608 428 OFFCURVE",
"608 458 CURVE SMOOTH",
"608 648 OFFCURVE",
"509 696 OFFCURVE",
"382 696 CURVE SMOOTH",
"235 696 OFFCURVE",
"104 631 OFFCURVE",
"68 356 CURVE SMOOTH",
"59 291 OFFCURVE",
"57 258 OFFCURVE",
"57 228 CURVE SMOOTH",
"57 38 OFFCURVE",
"156 -10 OFFCURVE",
"283 -10 CURVE SMOOTH"
);
},
{
closed = 1;
nodes = (
"189 38 OFFCURVE",
"110 77 OFFCURVE",
"110 232 CURVE SMOOTH",
"110 257 OFFCURVE",
"111 286 OFFCURVE",
"123 368 CURVE SMOOTH",
"156 595 OFFCURVE",
"258 648 OFFCURVE",
"375 648 CURVE SMOOTH",
"475 648 OFFCURVE",
"555 609 OFFCURVE",
"555 454 CURVE SMOOTH",
"555 428 OFFCURVE",
"553 400 OFFCURVE",
"542 318 CURVE SMOOTH",
"511 91 OFFCURVE",
"407 38 OFFCURVE",
"290 38 CURVE SMOOTH"
);
},
{
closed = 1;
nodes = (
"240 750 LINE",
"300 750 LINE",
"417 847 LINE",
"506 750 LINE",
"566 750 LINE",
"453 895 LINE",
"395 895 LINE"
);
}
);
};
layerId = "65EC8A7C-8A8B-4926-A170-31F830B4F708";
paths = (
{
closed = 1;
nodes = (
"430 -10 OFFCURVE",
"562 54 OFFCURVE",
"597 330 CURVE SMOOTH",
"605 394 OFFCURVE",
"608 428 OFFCURVE",
"608 458 CURVE SMOOTH",
"608 648 OFFCURVE",
"509 696 OFFCURVE",
"382 696 CURVE SMOOTH",
"235 696 OFFCURVE",
"104 631 OFFCURVE",
"68 356 CURVE SMOOTH",
"59 291 OFFCURVE",
"57 258 OFFCURVE",
"57 228 CURVE SMOOTH",
"57 38 OFFCURVE",
"156 -10 OFFCURVE",
"283 -10 CURVE SMOOTH"
);
},
{
closed = 1;
nodes = (
"189 38 OFFCURVE",
"110 77 OFFCURVE",
"110 232 CURVE SMOOTH",
"110 257 OFFCURVE",
"111 286 OFFCURVE",
"123 368 CURVE SMOOTH",
"156 595 OFFCURVE",
"258 648 OFFCURVE",
"375 648 CURVE SMOOTH",
"475 648 OFFCURVE",
"555 609 OFFCURVE",
"555 454 CURVE SMOOTH",
"555 428 OFFCURVE",
"553 400 OFFCURVE",
"542 318 CURVE SMOOTH",
"511 91 OFFCURVE",
"407 38 OFFCURVE",
"290 38 CURVE SMOOTH"
);
},
{
closed = 1;
nodes = (
"240 750 LINE",
"300 750 LINE",
"417 847 LINE",
"506 750 LINE",
"566 750 LINE",
"453 895 LINE",
"395 895 LINE"
);
}
);
width = 690;
}
);
unicode = 00D4;
},
{
glyphname = Otilde;
lastChange = "2014-09-05 18:36:16 +0000";
layers = (
{
background = {
paths = (
{
closed = 1;
nodes = (
"430 -10 OFFCURVE",
"562 54 OFFCURVE",
"597 330 CURVE SMOOTH",
"605 394 OFFCURVE",
"608 428 OFFCURVE",
"608 458 CURVE SMOOTH",
"608 648 OFFCURVE",
"509 696 OFFCURVE",
"382 696 CURVE SMOOTH",
"235 696 OFFCURVE",
"104 631 OFFCURVE",
"68 356 CURVE SMOOTH",
"59 291 OFFCURVE",
"57 258 OFFCURVE",
"57 228 CURVE SMOOTH",
"57 38 OFFCURVE",
"156 -10 OFFCURVE",
"283 -10 CURVE SMOOTH"
);
},
{
closed = 1;
nodes = (
"189 38 OFFCURVE",
"110 77 OFFCURVE",
"110 232 CURVE SMOOTH",
"110 257 OFFCURVE",
"111 286 OFFCURVE",
"123 368 CURVE SMOOTH",
"156 595 OFFCURVE",
"258 648 OFFCURVE",
"375 648 CURVE SMOOTH",
"475 648 OFFCURVE",
"555 609 OFFCURVE",
"555 454 CURVE SMOOTH",
"555 428 OFFCURVE",
"553 400 OFFCURVE",
"542 318 CURVE SMOOTH",
"511 91 OFFCURVE",
"407 38 OFFCURVE",
"290 38 CURVE SMOOTH"
);
},
{
closed = 1;
nodes = (
"558 833 LINE",
"548 810 OFFCURVE",
"530 801 OFFCURVE",
"497 801 CURVE SMOOTH",
"443 801 OFFCURVE",
"398 833 OFFCURVE",
"334 833 CURVE SMOOTH",
"256 833 OFFCURVE",
"226 783 OFFCURVE",
"222 751 CURVE",
"259 751 LINE",
"269 774 OFFCURVE",
"287 783 OFFCURVE",
"320 783 CURVE SMOOTH",
"374 783 OFFCURVE",
"419 751 OFFCURVE",
"483 751 CURVE SMOOTH",
"562 751 OFFCURVE",
"591 801 OFFCURVE",
"595 833 CURVE"
);
}
);
};
layerId = "65EC8A7C-8A8B-4926-A170-31F830B4F708";
paths = (
{
closed = 1;
nodes = (
"430 -10 OFFCURVE",
"562 54 OFFCURVE",
"597 330 CURVE SMOOTH",
"605 394 OFFCURVE",
"608 428 OFFCURVE",
"608 458 CURVE SMOOTH",
"608 648 OFFCURVE",
"509 696 OFFCURVE",
"382 696 CURVE SMOOTH",
"235 696 OFFCURVE",
"104 631 OFFCURVE",
"68 356 CURVE SMOOTH",
"59 291 OFFCURVE",
"57 258 OFFCURVE",
"57 228 CURVE SMOOTH",
"57 38 OFFCURVE",
"156 -10 OFFCURVE",
"283 -10 CURVE SMOOTH"
);
},
{
closed = 1;
nodes = (
"189 38 OFFCURVE",
"110 77 OFFCURVE",
"110 232 CURVE SMOOTH",
"110 257 OFFCURVE",
"111 286 OFFCURVE",
"123 368 CURVE SMOOTH",
"156 595 OFFCURVE",
"258 648 OFFCURVE",
"375 648 CURVE SMOOTH",
"475 648 OFFCURVE",
"555 609 OFFCURVE",
"555 454 CURVE SMOOTH",
"555 428 OFFCURVE",
"553 400 OFFCURVE",
"542 318 CURVE SMOOTH",
"511 91 OFFCURVE",
"407 38 OFFCURVE",
"290 38 CURVE SMOOTH"
);
},
{
closed = 1;
nodes = (
"558 833 LINE",
"548 810 OFFCURVE",
"530 801 OFFCURVE",
"497 801 CURVE SMOOTH",
"443 801 OFFCURVE",
"398 833 OFFCURVE",
"334 833 CURVE SMOOTH",
"256 833 OFFCURVE",
"226 783 OFFCURVE",
"222 751 CURVE",
"259 751 LINE",
"269 774 OFFCURVE",
"287 783 OFFCURVE",
"320 783 CURVE SMOOTH",
"374 783 OFFCURVE",
"419 751 OFFCURVE",
"483 751 CURVE SMOOTH",
"562 751 OFFCURVE",
"591 801 OFFCURVE",
"595 833 CURVE"
);
}
);
width = 690;
}
);
unicode = 00D5;
},
{
glyphname = Odieresis;
lastChange = "2014-09-05 18:36:16 +0000";
layers = (
{
background = {
paths = (
{
closed = 1;
nodes = (
"430 -10 OFFCURVE",
"562 54 OFFCURVE",
"597 330 CURVE SMOOTH",
"605 394 OFFCURVE",
"608 428 OFFCURVE",
"608 458 CURVE SMOOTH",
"608 648 OFFCURVE",
"509 696 OFFCURVE",
"382 696 CURVE SMOOTH",
"235 696 OFFCURVE",
"104 631 OFFCURVE",
"68 356 CURVE SMOOTH",
"59 291 OFFCURVE",
"57 258 OFFCURVE",
"57 228 CURVE SMOOTH",
"57 38 OFFCURVE",
"156 -10 OFFCURVE",
"283 -10 CURVE SMOOTH"
);
},
{
closed = 1;
nodes = (
"189 38 OFFCURVE",
"110 77 OFFCURVE",
"110 232 CURVE SMOOTH",
"110 257 OFFCURVE",
"111 286 OFFCURVE",
"123 368 CURVE SMOOTH",
"156 595 OFFCURVE",
"258 648 OFFCURVE",
"375 648 CURVE SMOOTH",
"475 648 OFFCURVE",
"555 609 OFFCURVE",
"555 454 CURVE SMOOTH",
"555 428 OFFCURVE",
"553 400 OFFCURVE",
"542 318 CURVE SMOOTH",
"511 91 OFFCURVE",
"407 38 OFFCURVE",
"290 38 CURVE SMOOTH"
);
},
{
closed = 1;
nodes = (
"286 751 LINE",
"351 751 LINE",
"360 820 LINE",
"295 820 LINE"
);
},
{
closed = 1;
nodes = (
"462 751 LINE",
"527 751 LINE",
"536 820 LINE",
"471 820 LINE"
);
}
);
};
layerId = "65EC8A7C-8A8B-4926-A170-31F830B4F708";
paths = (
{
closed = 1;
nodes = (
"430 -10 OFFCURVE",
"562 54 OFFCURVE",
"597 330 CURVE SMOOTH",
"605 394 OFFCURVE",
"608 428 OFFCURVE",
"608 458 CURVE SMOOTH",
"608 648 OFFCURVE",
"509 696 OFFCURVE",
"382 696 CURVE SMOOTH",
"235 696 OFFCURVE",
"104 631 OFFCURVE",
"68 356 CURVE SMOOTH",
"59 291 OFFCURVE",
"57 258 OFFCURVE",
"57 228 CURVE SMOOTH",
"57 38 OFFCURVE",
"156 -10 OFFCURVE",
"283 -10 CURVE SMOOTH"
);
},
{
closed = 1;
nodes = (
"189 38 OFFCURVE",
"110 77 OFFCURVE",
"110 232 CURVE SMOOTH",
"110 257 OFFCURVE",
"111 286 OFFCURVE",
"123 368 CURVE SMOOTH",
"156 595 OFFCURVE",
"258 648 OFFCURVE",
"375 648 CURVE SMOOTH",
"475 648 OFFCURVE",
"555 609 OFFCURVE",
"555 454 CURVE SMOOTH",
"555 428 OFFCURVE",
"553 400 OFFCURVE",
"542 318 CURVE SMOOTH",
"511 91 OFFCURVE",
"407 38 OFFCURVE",
"290 38 CURVE SMOOTH"
);
},
{
closed = 1;
nodes = (
"286 751 LINE",
"351 751 LINE",
"360 820 LINE",
"295 820 LINE"
);
},
{
closed = 1;
nodes = (
"462 751 LINE",
"527 751 LINE",
"536 820 LINE",
"471 820 LINE"
);
}
);
width = 690;
}
);
unicode = 00D6;
},
{
glyphname = multiply;
lastChange = "2014-09-05 18:36:16 +0000";
layers = (
{
background = {
paths = (
{
closed = 1;
nodes = (
"164 457 LINE",
"117 416 LINE",
"254 255 LINE",
"72 95 LINE",
"107 54 LINE",
"290 214 LINE",
"427 54 LINE",
"474 95 LINE",
"336 255 LINE",
"520 416 LINE",
"485 457 LINE",
"301 296 LINE"
);
}
);
};
layerId = "65EC8A7C-8A8B-4926-A170-31F830B4F708";
paths = (
{
closed = 1;
nodes = (
"164 457 LINE",
"117 416 LINE",
"254 255 LINE",
"72 95 LINE",
"107 54 LINE",
"290 214 LINE",
"427 54 LINE",
"474 95 LINE",
"336 255 LINE",
"520 416 LINE",
"485 457 LINE",
"301 296 LINE"
);
}
);
width = 615;
}
);
unicode = 00D7;
},
{
glyphname = Oslash;
lastChange = "2014-09-05 18:36:16 +0000";
layers = (
{
anchors = (
{
name = top;
position = "{406, 686}";
}
);
background = {
anchors = (
{
name = top;
position = "{406, 686}";
}
);
paths = (
{
closed = 1;
nodes = (
"441 -10 OFFCURVE",
"573 54 OFFCURVE",
"608 330 CURVE SMOOTH",
"616 394 OFFCURVE",
"619 428 OFFCURVE",
"619 458 CURVE SMOOTH",
"619 536 OFFCURVE",
"602 590 OFFCURVE",
"574 626 CURVE",
"668 754 LINE",
"624 754 LINE",
"549 652 LINE",
"509 685 OFFCURVE",
"454 696 OFFCURVE",
"393 696 CURVE SMOOTH",
"246 696 OFFCURVE",
"115 631 OFFCURVE",
"79 356 CURVE SMOOTH",
"70 291 OFFCURVE",
"68 258 OFFCURVE",
"68 228 CURVE SMOOTH",
"68 150 OFFCURVE",
"84 96 OFFCURVE",
"112 60 CURVE",
"20 -65 LINE",
"65 -65 LINE",
"138 34 LINE",
"178 1 OFFCURVE",
"233 -10 OFFCURVE",
"294 -10 CURVE SMOOTH"
);
},
{
closed = 1;
nodes = (
"249 38 OFFCURVE",
"203 48 OFFCURVE",
"171 79 CURVE",
"538 578 LINE",
"555 549 OFFCURVE",
"566 508 OFFCURVE",
"566 454 CURVE SMOOTH",
"566 428 OFFCURVE",
"564 400 OFFCURVE",
"553 318 CURVE SMOOTH",
"522 91 OFFCURVE",
"418 38 OFFCURVE",
"301 38 CURVE SMOOTH"
);
},
{
closed = 1;
nodes = (
"121 257 OFFCURVE",
"122 286 OFFCURVE",
"134 368 CURVE SMOOTH",
"167 595 OFFCURVE",
"269 648 OFFCURVE",
"386 648 CURVE SMOOTH",
"437 648 OFFCURVE",
"483 637 OFFCURVE",
"515 607 CURVE",
"148 108 LINE",
"131 137 OFFCURVE",
"121 177 OFFCURVE",
"121 232 CURVE SMOOTH"
);
}
);
};
layerId = "65EC8A7C-8A8B-4926-A170-31F830B4F708";
paths = (
{
closed = 1;
nodes = (
"441 -10 OFFCURVE",
"573 54 OFFCURVE",
"608 330 CURVE SMOOTH",
"616 394 OFFCURVE",
"619 428 OFFCURVE",
"619 458 CURVE SMOOTH",
"619 536 OFFCURVE",
"602 590 OFFCURVE",
"574 626 CURVE",
"668 754 LINE",
"624 754 LINE",
"549 652 LINE",
"509 685 OFFCURVE",
"454 696 OFFCURVE",
"393 696 CURVE SMOOTH",
"246 696 OFFCURVE",
"115 631 OFFCURVE",
"79 356 CURVE SMOOTH",
"70 291 OFFCURVE",
"68 258 OFFCURVE",
"68 228 CURVE SMOOTH",
"68 150 OFFCURVE",
"84 96 OFFCURVE",
"112 60 CURVE",
"20 -65 LINE",
"65 -65 LINE",
"138 34 LINE",
"178 1 OFFCURVE",
"233 -10 OFFCURVE",
"294 -10 CURVE SMOOTH"
);
},
{
closed = 1;
nodes = (
"249 38 OFFCURVE",
"203 48 OFFCURVE",
"171 79 CURVE",
"538 578 LINE",
"555 549 OFFCURVE",
"566 508 OFFCURVE",
"566 454 CURVE SMOOTH",
"566 428 OFFCURVE",
"564 400 OFFCURVE",
"553 318 CURVE SMOOTH",
"522 91 OFFCURVE",
"418 38 OFFCURVE",
"301 38 CURVE SMOOTH"
);
},
{
closed = 1;
nodes = (
"121 257 OFFCURVE",
"122 286 OFFCURVE",
"134 368 CURVE SMOOTH",
"167 595 OFFCURVE",
"269 648 OFFCURVE",
"386 648 CURVE SMOOTH",
"437 648 OFFCURVE",
"483 637 OFFCURVE",
"515 607 CURVE",
"148 108 LINE",
"131 137 OFFCURVE",
"121 177 OFFCURVE",
"121 232 CURVE SMOOTH"
);
}
);
width = 690;
}
);
unicode = 00D8;
},
{
glyphname = Ugrave;
lastChange = "2014-09-05 18:36:16 +0000";
layers = (
{
background = {
paths = (
{
closed = 1;
nodes = (
"565 686 LINE",
"500 222 LINE SMOOTH",
"485 114 OFFCURVE",
"408 38 OFFCURVE",
"289 38 CURVE SMOOTH",
"184 38 OFFCURVE",
"128 96 OFFCURVE",
"128 187 CURVE SMOOTH",
"128 214 OFFCURVE",
"129 210 OFFCURVE",
"196 686 CURVE",
"142 686 LINE SMOOTH",
"142 686 OFFCURVE",
"74 233 OFFCURVE",
"74 180 CURVE SMOOTH",
"74 64 OFFCURVE",
"153 -10 OFFCURVE",
"283 -10 CURVE SMOOTH",
"427 -10 OFFCURVE",
"534 81 OFFCURVE",
"554 220 CURVE",
"554 221 OFFCURVE",
"619 686 OFFCURVE",
"619 686 CURVE SMOOTH"
);
},
{
closed = 1;
nodes = (
"418 750 LINE",
"343 895 LINE",
"278 895 LINE",
"277 892 LINE",
"368 750 LINE"
);
}
);
};
layerId = "65EC8A7C-8A8B-4926-A170-31F830B4F708";
paths = (
{
closed = 1;
nodes = (
"565 686 LINE",
"500 222 LINE SMOOTH",
"485 114 OFFCURVE",
"408 38 OFFCURVE",
"289 38 CURVE SMOOTH",
"184 38 OFFCURVE",
"128 96 OFFCURVE",
"128 187 CURVE SMOOTH",
"128 214 OFFCURVE",
"129 210 OFFCURVE",
"196 686 CURVE",
"142 686 LINE SMOOTH",
"142 686 OFFCURVE",
"74 233 OFFCURVE",
"74 180 CURVE SMOOTH",
"74 64 OFFCURVE",
"153 -10 OFFCURVE",
"283 -10 CURVE SMOOTH",
"427 -10 OFFCURVE",
"534 81 OFFCURVE",
"554 220 CURVE",
"554 221 OFFCURVE",
"619 686 OFFCURVE",
"619 686 CURVE SMOOTH"
);
},
{
closed = 1;
nodes = (
"418 750 LINE",
"343 895 LINE",
"278 895 LINE",
"277 892 LINE",
"368 750 LINE"
);
}
);
width = 682;
}
);
unicode = 00D9;
},
